{
	"patcher" : 	{
		"fileversion" : 1,
		"appversion" : 		{
			"major" : 5,
			"minor" : 1,
			"revision" : 9
		}
,
		"rect" : [ 757.0, 298.0, 649.0, 674.0 ],
		"bglocked" : 0,
		"defrect" : [ 757.0, 298.0, 649.0, 674.0 ],
		"openrect" : [ 0.0, 0.0, 0.0, 0.0 ],
		"openinpresentation" : 1,
		"default_fontsize" : 12.0,
		"default_fontface" : 0,
		"default_fontname" : "Arial",
		"gridonopen" : 0,
		"gridsize" : [ 10.0, 10.0 ],
		"gridsnaponopen" : 0,
		"toolbarvisible" : 1,
		"boxanimatetime" : 200,
		"imprint" : 0,
		"enablehscroll" : 1,
		"enablevscroll" : 1,
		"devicewidth" : 0.0,
		"boxes" : [ 			{
				"box" : 				{
					"maxclass" : "newobj",
					"text" : "stripnote",
					"patching_rect" : [ 224.0, 747.0, 57.0, 20.0 ],
					"id" : "obj-37",
					"fontname" : "Arial",
					"numinlets" : 2,
					"fontsize" : 12.0,
					"numoutlets" : 2,
					"outlettype" : [ "int", "int" ]
				}

			}
, 			{
				"box" : 				{
					"maxclass" : "newobj",
					"text" : "r pitch_in",
					"patching_rect" : [ 224.0, 720.0, 59.0, 20.0 ],
					"id" : "obj-75",
					"fontname" : "Arial",
					"numinlets" : 0,
					"fontsize" : 12.0,
					"numoutlets" : 1,
					"outlettype" : [ "" ]
				}

			}
, 			{
				"box" : 				{
					"maxclass" : "newobj",
					"text" : "s o_sp1",
					"patching_rect" : [ 224.0, 782.0, 46.0, 18.0 ],
					"id" : "obj-72",
					"fontname" : "Arial",
					"numinlets" : 1,
					"fontsize" : 10.0,
					"numoutlets" : 0
				}

			}
, 			{
				"box" : 				{
					"maxclass" : "newobj",
					"text" : "r o_sp1",
					"patching_rect" : [ 128.0, 118.0, 44.0, 18.0 ],
					"id" : "obj-66",
					"fontname" : "Arial",
					"numinlets" : 0,
					"fontsize" : 10.0,
					"numoutlets" : 1,
					"outlettype" : [ "" ]
				}

			}
, 			{
				"box" : 				{
					"maxclass" : "newobj",
					"text" : "loadmess 1",
					"patching_rect" : [ 7.464722, 760.132141, 62.0, 18.0 ],
					"id" : "obj-93",
					"fontname" : "Arial",
					"numinlets" : 1,
					"fontsize" : 10.0,
					"numoutlets" : 1,
					"outlettype" : [ "" ]
				}

			}
, 			{
				"box" : 				{
					"maxclass" : "toggle",
					"patching_rect" : [ 73.0, 760.132141, 20.0, 20.0 ],
					"id" : "obj-92",
					"numinlets" : 1,
					"numoutlets" : 1,
					"outlettype" : [ "int" ]
				}

			}
, 			{
				"box" : 				{
					"maxclass" : "newobj",
					"text" : "gate",
					"patching_rect" : [ 88.0, 784.0, 34.0, 20.0 ],
					"id" : "obj-89",
					"fontname" : "Arial",
					"numinlets" : 2,
					"fontsize" : 12.0,
					"numoutlets" : 1,
					"outlettype" : [ "" ]
				}

			}
, 			{
				"box" : 				{
					"maxclass" : "message",
					"text" : "0. 0. 0. 0. 0. 0. 0. 0. 0. 0. 0. 0.",
					"linecount" : 3,
					"patching_rect" : [ 138.349243, 809.38916, 53.0, 39.0 ],
					"id" : "obj-88",
					"fontname" : "Arial",
					"numinlets" : 2,
					"fontsize" : 10.0,
					"numoutlets" : 1,
					"outlettype" : [ "" ]
				}

			}
, 			{
				"box" : 				{
					"maxclass" : "newobj",
					"text" : "s h_sp1",
					"patching_rect" : [ 88.464722, 855.132202, 46.0, 18.0 ],
					"id" : "obj-87",
					"fontname" : "Arial",
					"numinlets" : 1,
					"fontsize" : 10.0,
					"numoutlets" : 0
				}

			}
, 			{
				"box" : 				{
					"maxclass" : "newobj",
					"text" : "r hctxt_ap1",
					"patching_rect" : [ 103.464722, 708.132141, 59.0, 18.0 ],
					"id" : "obj-86",
					"fontname" : "Arial",
					"numinlets" : 0,
					"fontsize" : 10.0,
					"numoutlets" : 1,
					"outlettype" : [ "" ]
				}

			}
, 			{
				"box" : 				{
					"maxclass" : "newobj",
					"text" : "s in_sp1",
					"patching_rect" : [ 677.821045, 678.276733, 48.0, 18.0 ],
					"id" : "obj-84",
					"fontname" : "Arial",
					"numinlets" : 1,
					"fontsize" : 10.0,
					"numoutlets" : 0
				}

			}
, 			{
				"box" : 				{
					"maxclass" : "newobj",
					"text" : "del 1000",
					"patching_rect" : [ 677.821045, 572.276733, 57.0, 20.0 ],
					"id" : "obj-81",
					"fontname" : "Arial",
					"numinlets" : 2,
					"fontsize" : 12.0,
					"numoutlets" : 1,
					"outlettype" : [ "bang" ]
				}

			}
, 			{
				"box" : 				{
					"maxclass" : "newobj",
					"text" : "s #0_modGain",
					"patching_rect" : [ 755.821045, 602.276733, 89.0, 20.0 ],
					"id" : "obj-74",
					"fontname" : "Arial",
					"numinlets" : 1,
					"fontsize" : 12.0,
					"numoutlets" : 0
				}

			}
, 			{
				"box" : 				{
					"maxclass" : "newobj",
					"text" : "r #0_modGain",
					"patching_rect" : [ 168.0, 395.0, 87.0, 20.0 ],
					"id" : "obj-76",
					"fontname" : "Arial",
					"numinlets" : 0,
					"fontsize" : 12.0,
					"numoutlets" : 1,
					"outlettype" : [ "" ]
				}

			}
, 			{
				"box" : 				{
					"maxclass" : "message",
					"text" : "127, 0 3000",
					"patching_rect" : [ 755.821045, 551.276733, 74.0, 18.0 ],
					"id" : "obj-69",
					"fontname" : "Arial",
					"numinlets" : 2,
					"fontsize" : 12.0,
					"numoutlets" : 1,
					"outlettype" : [ "" ]
				}

			}
, 			{
				"box" : 				{
					"maxclass" : "newobj",
					"text" : "line",
					"patching_rect" : [ 755.821045, 577.276733, 46.0, 20.0 ],
					"id" : "obj-59",
					"fontname" : "Arial",
					"numinlets" : 3,
					"fontsize" : 12.0,
					"numoutlets" : 2,
					"outlettype" : [ "", "" ]
				}

			}
, 			{
				"box" : 				{
					"maxclass" : "message",
					"text" : "autoBpm 1",
					"patching_rect" : [ 965.821045, 606.276733, 69.0, 18.0 ],
					"id" : "obj-54",
					"fontname" : "Arial",
					"numinlets" : 2,
					"fontsize" : 12.0,
					"numoutlets" : 1,
					"outlettype" : [ "" ]
				}

			}
, 			{
				"box" : 				{
					"maxclass" : "comment",
					"text" : "auto bpm on",
					"patching_rect" : [ 960.821045, 516.276733, 77.0, 20.0 ],
					"presentation" : 1,
					"id" : "obj-53",
					"fontname" : "Arial",
					"numinlets" : 1,
					"fontsize" : 12.0,
					"numoutlets" : 0,
					"presentation_rect" : [ 299.0, 211.0, 77.0, 20.0 ]
				}

			}
, 			{
				"box" : 				{
					"maxclass" : "comment",
					"text" : "stop",
					"patching_rect" : [ 710.821045, 516.276733, 34.0, 20.0 ],
					"presentation" : 1,
					"id" : "obj-47",
					"fontname" : "Arial",
					"numinlets" : 1,
					"fontsize" : 12.0,
					"numoutlets" : 0,
					"presentation_rect" : [ 135.0, 188.0, 34.0, 20.0 ]
				}

			}
, 			{
				"box" : 				{
					"maxclass" : "button",
					"patching_rect" : [ 677.821045, 516.276733, 31.0, 31.0 ],
					"presentation" : 1,
					"id" : "obj-49",
					"numinlets" : 1,
					"numoutlets" : 1,
					"blinkcolor" : [ 1.0, 0.862745, 0.439216, 1.0 ],
					"presentation_rect" : [ 135.0, 205.0, 31.0, 31.0 ],
					"outlettype" : [ "bang" ]
				}

			}
, 			{
				"box" : 				{
					"maxclass" : "message",
					"text" : "stop",
					"patching_rect" : [ 677.821045, 600.276733, 33.0, 18.0 ],
					"id" : "obj-50",
					"fontname" : "Arial",
					"numinlets" : 2,
					"fontsize" : 12.0,
					"numoutlets" : 1,
					"outlettype" : [ "" ]
				}

			}
, 			{
				"box" : 				{
					"maxclass" : "comment",
					"text" : "start",
					"patching_rect" : [ 603.821045, 516.276733, 34.0, 20.0 ],
					"presentation" : 1,
					"id" : "obj-40",
					"fontname" : "Arial",
					"numinlets" : 1,
					"fontsize" : 12.0,
					"numoutlets" : 0,
					"presentation_rect" : [ 21.0, 188.0, 34.0, 20.0 ]
				}

			}
, 			{
				"box" : 				{
					"maxclass" : "button",
					"patching_rect" : [ 570.821045, 516.276733, 31.0, 31.0 ],
					"presentation" : 1,
					"id" : "obj-32",
					"numinlets" : 1,
					"numoutlets" : 1,
					"blinkcolor" : [ 1.0, 0.862745, 0.439216, 1.0 ],
					"presentation_rect" : [ 21.0, 205.0, 31.0, 31.0 ],
					"outlettype" : [ "bang" ]
				}

			}
, 			{
				"box" : 				{
					"maxclass" : "button",
					"patching_rect" : [ 929.821045, 516.276733, 31.0, 31.0 ],
					"presentation" : 1,
					"id" : "obj-34",
					"numinlets" : 1,
					"numoutlets" : 1,
					"blinkcolor" : [ 1.0, 0.862745, 0.439216, 1.0 ],
					"presentation_rect" : [ 378.0, 205.0, 31.0, 31.0 ],
					"outlettype" : [ "bang" ]
				}

			}
, 			{
				"box" : 				{
					"maxclass" : "message",
					"text" : "autoBpmWindow 80 195",
					"patching_rect" : [ 943.821045, 580.276733, 141.0, 18.0 ],
					"id" : "obj-26",
					"fontname" : "Arial",
					"numinlets" : 2,
					"fontsize" : 12.0,
					"numoutlets" : 1,
					"outlettype" : [ "" ]
				}

			}
, 			{
				"box" : 				{
					"maxclass" : "message",
					"text" : "useOriginalBpm 0",
					"patching_rect" : [ 929.821045, 556.276733, 106.0, 18.0 ],
					"id" : "obj-24",
					"fontname" : "Arial",
					"numinlets" : 2,
					"fontsize" : 12.0,
					"numoutlets" : 1,
					"outlettype" : [ "" ]
				}

			}
, 			{
				"box" : 				{
					"maxclass" : "message",
					"text" : "listeningWeights 10. 0. 1.",
					"patching_rect" : [ 375.821045, 718.276733, 144.0, 18.0 ],
					"id" : "obj-5",
					"fontname" : "Arial",
					"numinlets" : 2,
					"fontsize" : 12.0,
					"numoutlets" : 1,
					"outlettype" : [ "" ]
				}

			}
, 			{
				"box" : 				{
					"maxclass" : "message",
					"text" : "autoJump 1",
					"patching_rect" : [ 368.821045, 694.276733, 73.0, 18.0 ],
					"id" : "obj-33",
					"fontname" : "Arial",
					"numinlets" : 2,
					"fontsize" : 12.0,
					"numoutlets" : 1,
					"outlettype" : [ "" ]
				}

			}
, 			{
				"box" : 				{
					"maxclass" : "newobj",
					"text" : "s in_sp1",
					"patching_rect" : [ 938.821045, 672.276733, 48.0, 18.0 ],
					"id" : "obj-28",
					"fontname" : "Arial",
					"numinlets" : 1,
					"fontsize" : 10.0,
					"numoutlets" : 0
				}

			}
, 			{
				"box" : 				{
					"maxclass" : "message",
					"text" : "start 1",
					"patching_rect" : [ 570.821045, 582.276733, 44.0, 18.0 ],
					"id" : "obj-27",
					"fontname" : "Arial",
					"numinlets" : 2,
					"fontsize" : 12.0,
					"numoutlets" : 1,
					"outlettype" : [ "" ]
				}

			}
, 			{
				"box" : 				{
					"maxclass" : "message",
					"text" : "load the_thiefs_theme",
					"patching_rect" : [ 326.821045, 598.276733, 129.0, 18.0 ],
					"id" : "obj-25",
					"fontname" : "Arial",
					"numinlets" : 2,
					"fontsize" : 12.0,
					"numoutlets" : 1,
					"outlettype" : [ "" ]
				}

			}
, 			{
				"box" : 				{
					"maxclass" : "message",
					"text" : "useOriginalBpm 1",
					"patching_rect" : [ 361.821045, 670.276733, 106.0, 18.0 ],
					"id" : "obj-16",
					"fontname" : "Arial",
					"numinlets" : 2,
					"fontsize" : 12.0,
					"numoutlets" : 1,
					"outlettype" : [ "" ]
				}

			}
, 			{
				"box" : 				{
					"maxclass" : "message",
					"text" : "phaseAdjustment 0.15 1.",
					"patching_rect" : [ 348.821045, 647.276733, 143.0, 18.0 ],
					"id" : "obj-14",
					"fontname" : "Arial",
					"numinlets" : 2,
					"fontsize" : 12.0,
					"numoutlets" : 1,
					"outlettype" : [ "" ]
				}

			}
, 			{
				"box" : 				{
					"maxclass" : "newobj",
					"text" : "del 1000",
					"patching_rect" : [ 339.821045, 522.276733, 57.0, 20.0 ],
					"id" : "obj-11",
					"fontname" : "Arial",
					"numinlets" : 2,
					"fontsize" : 12.0,
					"numoutlets" : 1,
					"outlettype" : [ "bang" ]
				}

			}
, 			{
				"box" : 				{
					"maxclass" : "message",
					"text" : "useOriginalBeatPhaseValue 1",
					"patching_rect" : [ 339.821045, 624.276733, 170.0, 18.0 ],
					"id" : "obj-9",
					"fontname" : "Arial",
					"numinlets" : 2,
					"fontsize" : 12.0,
					"numoutlets" : 1,
					"outlettype" : [ "" ]
				}

			}
, 			{
				"box" : 				{
					"maxclass" : "newobj",
					"text" : "loadbang",
					"patching_rect" : [ 339.821045, 500.276703, 52.0, 18.0 ],
					"id" : "obj-4",
					"fontname" : "Arial",
					"numinlets" : 1,
					"fontsize" : 10.0,
					"numoutlets" : 1,
					"outlettype" : [ "bang" ]
				}

			}
, 			{
				"box" : 				{
					"maxclass" : "newobj",
					"text" : "s in_sp1",
					"patching_rect" : [ 338.821045, 808.276733, 48.0, 18.0 ],
					"id" : "obj-3",
					"fontname" : "Arial",
					"numinlets" : 1,
					"fontsize" : 10.0,
					"numoutlets" : 0
				}

			}
, 			{
				"box" : 				{
					"maxclass" : "newobj",
					"text" : "r hCst",
					"patching_rect" : [ 784.0, 400.0, 43.0, 20.0 ],
					"id" : "obj-170",
					"fontname" : "Arial",
					"numinlets" : 0,
					"fontsize" : 12.0,
					"numoutlets" : 1,
					"outlettype" : [ "" ]
				}

			}
, 			{
				"box" : 				{
					"maxclass" : "newobj",
					"text" : "s hctxt_ap1",
					"patching_rect" : [ 784.0, 423.742981, 62.0, 18.0 ],
					"id" : "obj-169",
					"fontname" : "Arial",
					"numinlets" : 1,
					"fontsize" : 10.0,
					"numoutlets" : 0
				}

			}
, 			{
				"box" : 				{
					"maxclass" : "newobj",
					"text" : "r pitch_in",
					"patching_rect" : [ 292.0, 393.0, 59.0, 20.0 ],
					"id" : "obj-107",
					"fontname" : "Arial",
					"numinlets" : 0,
					"fontsize" : 12.0,
					"numoutlets" : 1,
					"outlettype" : [ "" ]
				}

			}
, 			{
				"box" : 				{
					"maxclass" : "newobj",
					"text" : "s midi_out_ap1",
					"patching_rect" : [ 292.0, 419.742981, 78.0, 18.0 ],
					"id" : "obj-106",
					"fontname" : "Arial",
					"numinlets" : 1,
					"fontsize" : 10.0,
					"numoutlets" : 0
				}

			}
, 			{
				"box" : 				{
					"maxclass" : "newobj",
					"text" : "receive~ ar_sp1",
					"patching_rect" : [ 152.0, 162.0, 82.0, 18.0 ],
					"id" : "obj-30",
					"fontname" : "Arial",
					"numinlets" : 1,
					"fontsize" : 10.0,
					"numoutlets" : 1,
					"outlettype" : [ "signal" ]
				}

			}
, 			{
				"box" : 				{
					"maxclass" : "newobj",
					"text" : "receive~ ad_sp1",
					"patching_rect" : [ 138.0, 140.0, 84.0, 18.0 ],
					"id" : "obj-29",
					"fontname" : "Arial",
					"numinlets" : 1,
					"fontsize" : 10.0,
					"numoutlets" : 1,
					"outlettype" : [ "signal" ]
				}

			}
, 			{
				"box" : 				{
					"maxclass" : "newobj",
					"text" : "receive~ piezo_in",
					"patching_rect" : [ 784.0, 137.0, 104.0, 20.0 ],
					"id" : "obj-237",
					"fontname" : "Arial",
					"numinlets" : 1,
					"fontsize" : 12.0,
					"numoutlets" : 1,
					"outlettype" : [ "signal" ]
				}

			}
, 			{
				"box" : 				{
					"maxclass" : "comment",
					"text" : "mic",
					"patching_rect" : [ 716.0, 75.0, 29.0, 20.0 ],
					"presentation" : 1,
					"id" : "obj-236",
					"fontname" : "Arial",
					"numinlets" : 1,
					"fontsize" : 12.0,
					"numoutlets" : 0,
					"presentation_rect" : [ 298.0, 13.0, 29.0, 20.0 ]
				}

			}
, 			{
				"box" : 				{
					"maxclass" : "comment",
					"text" : "piezo",
					"patching_rect" : [ 561.0, 75.0, 39.0, 20.0 ],
					"presentation" : 1,
					"id" : "obj-235",
					"fontname" : "Arial",
					"numinlets" : 1,
					"fontsize" : 12.0,
					"numoutlets" : 0,
					"presentation_rect" : [ 198.0, 13.0, 39.0, 20.0 ]
				}

			}
, 			{
				"box" : 				{
					"maxclass" : "meter~",
					"patching_rect" : [ 716.0, 59.0, 80.0, 13.0 ],
					"presentation" : 1,
					"id" : "obj-233",
					"bgcolor" : [ 0.87451, 0.87451, 0.87451, 1.0 ],
					"numinlets" : 1,
					"numoutlets" : 1,
					"presentation_rect" : [ 298.0, 32.0, 61.0, 12.0 ],
					"outlettype" : [ "float" ]
				}

			}
, 			{
				"box" : 				{
					"maxclass" : "newobj",
					"text" : "receive~ mic_in",
					"patching_rect" : [ 716.0, 34.0, 94.0, 20.0 ],
					"id" : "obj-232",
					"fontname" : "Arial",
					"numinlets" : 1,
					"fontsize" : 12.0,
					"numoutlets" : 1,
					"outlettype" : [ "signal" ]
				}

			}
, 			{
				"box" : 				{
					"maxclass" : "newobj",
					"text" : "receive~ piezo_in",
					"patching_rect" : [ 561.0, 34.0, 104.0, 20.0 ],
					"id" : "obj-213",
					"fontname" : "Arial",
					"numinlets" : 1,
					"fontsize" : 12.0,
					"numoutlets" : 1,
					"outlettype" : [ "signal" ]
				}

			}
, 			{
				"box" : 				{
					"maxclass" : "meter~",
					"patching_rect" : [ 561.0, 59.0, 80.0, 13.0 ],
					"presentation" : 1,
					"id" : "obj-210",
					"bgcolor" : [ 0.87451, 0.87451, 0.87451, 1.0 ],
					"numinlets" : 1,
					"numoutlets" : 1,
					"presentation_rect" : [ 198.0, 32.0, 61.0, 12.0 ],
					"outlettype" : [ "float" ]
				}

			}
, 			{
				"box" : 				{
					"maxclass" : "newobj",
					"text" : "receive~ piezo_in",
					"patching_rect" : [ 292.0, 119.0, 104.0, 20.0 ],
					"id" : "obj-209",
					"fontname" : "Arial",
					"numinlets" : 1,
					"fontsize" : 12.0,
					"numoutlets" : 1,
					"outlettype" : [ "signal" ]
				}

			}
, 			{
				"box" : 				{
					"maxclass" : "newobj",
					"text" : "send~ mic_in",
					"patching_rect" : [ 437.0, 82.0, 82.0, 20.0 ],
					"id" : "obj-196",
					"fontname" : "Arial",
					"numinlets" : 1,
					"fontsize" : 12.0,
					"numoutlets" : 0
				}

			}
, 			{
				"box" : 				{
					"maxclass" : "newobj",
					"text" : "adc~ 1",
					"patching_rect" : [ 288.0, 45.0, 47.0, 20.0 ],
					"id" : "obj-204",
					"fontname" : "Arial",
					"numinlets" : 1,
					"fontsize" : 12.0,
					"numoutlets" : 1,
					"outlettype" : [ "signal" ]
				}

			}
, 			{
				"box" : 				{
					"maxclass" : "newobj",
					"text" : "send~ piezo_in",
					"patching_rect" : [ 288.0, 82.0, 92.0, 20.0 ],
					"id" : "obj-193",
					"fontname" : "Arial",
					"numinlets" : 1,
					"fontsize" : 12.0,
					"numoutlets" : 0
				}

			}
, 			{
				"box" : 				{
					"maxclass" : "newobj",
					"text" : "adc~ 2",
					"patching_rect" : [ 436.0, 45.0, 47.0, 20.0 ],
					"id" : "obj-44",
					"fontname" : "Arial",
					"numinlets" : 1,
					"fontsize" : 12.0,
					"numoutlets" : 1,
					"outlettype" : [ "signal" ]
				}

			}
, 			{
				"box" : 				{
					"maxclass" : "slider",
					"patching_rect" : [ 343.0, 280.0, 21.0, 60.0 ],
					"presentation" : 1,
					"id" : "obj-387",
					"numinlets" : 1,
					"numoutlets" : 1,
					"presentation_rect" : [ 511.0, 72.314682, 18.0, 65.0 ],
					"outlettype" : [ "" ]
				}

			}
, 			{
				"box" : 				{
					"maxclass" : "newobj",
					"text" : "stripnote",
					"patching_rect" : [ 305.0, 255.0, 57.0, 20.0 ],
					"id" : "obj-386",
					"fontname" : "Arial",
					"numinlets" : 2,
					"fontsize" : 12.0,
					"numoutlets" : 2,
					"outlettype" : [ "int", "int" ]
				}

			}
, 			{
				"box" : 				{
					"maxclass" : "message",
					"text" : "-1",
					"patching_rect" : [ 1016.0, 356.0, 32.5, 18.0 ],
					"id" : "obj-530",
					"fontname" : "Arial",
					"numinlets" : 2,
					"fontsize" : 12.0,
					"numoutlets" : 1,
					"outlettype" : [ "" ]
				}

			}
, 			{
				"box" : 				{
					"maxclass" : "message",
					"text" : "0.7 0.15 0.15 1.",
					"patching_rect" : [ 478.0, 287.0, 102.0, 18.0 ],
					"id" : "obj-63",
					"fontname" : "Arial",
					"numinlets" : 2,
					"fontsize" : 12.0,
					"numoutlets" : 1,
					"outlettype" : [ "" ]
				}

			}
, 			{
				"box" : 				{
					"maxclass" : "newobj",
					"text" : "loadbang",
					"patching_rect" : [ 478.0, 266.0, 52.0, 18.0 ],
					"id" : "obj-64",
					"fontname" : "Arial",
					"numinlets" : 1,
					"fontsize" : 10.0,
					"numoutlets" : 1,
					"outlettype" : [ "bang" ]
				}

			}
, 			{
				"box" : 				{
					"maxclass" : "newobj",
					"text" : "r pitch_in",
					"patching_rect" : [ 387.0, 278.0, 59.0, 20.0 ],
					"id" : "obj-67",
					"fontname" : "Arial",
					"numinlets" : 0,
					"fontsize" : 12.0,
					"numoutlets" : 1,
					"outlettype" : [ "" ]
				}

			}
, 			{
				"box" : 				{
					"maxclass" : "message",
					"text" : "fgcolor $1 $2 $3 $4",
					"patching_rect" : [ 631.0, 308.0, 111.0, 18.0 ],
					"id" : "obj-727",
					"fontname" : "Arial",
					"numinlets" : 2,
					"fontsize" : 12.0,
					"numoutlets" : 1,
					"outlettype" : [ "" ]
				}

			}
, 			{
				"box" : 				{
					"maxclass" : "message",
					"text" : "hkeycolor $1 $2 $3 1.",
					"patching_rect" : [ 478.0, 312.0, 125.0, 18.0 ],
					"id" : "obj-713",
					"fontname" : "Arial",
					"numinlets" : 2,
					"fontsize" : 12.0,
					"numoutlets" : 1,
					"outlettype" : [ "" ]
				}

			}
, 			{
				"box" : 				{
					"maxclass" : "kslider",
					"patching_rect" : [ 386.666504, 346.0, 266.0, 34.0 ],
					"mode" : 1,
					"presentation" : 1,
					"id" : "obj-717",
					"numinlets" : 2,
					"blackkeycolor" : [ 0.0, 0.0, 0.0, 0.698039 ],
					"numoutlets" : 2,
					"offset" : 34,
					"range" : 64,
					"presentation_rect" : [ 196.0, 145.0, 342.0, 41.0 ],
					"hkeycolor" : [ 0.7, 0.15, 0.15, 1.0 ],
					"ignoreclick" : 1,
					"outlettype" : [ "int", "int" ],
					"whitekeycolor" : [ 1.0, 1.0, 1.0, 0.576471 ]
				}

			}
, 			{
				"box" : 				{
					"maxclass" : "button",
					"patching_rect" : [ 631.0, 326.0, 16.0, 16.0 ],
					"outlinecolor" : [ 1.0, 1.0, 1.0, 0.0 ],
					"presentation" : 1,
					"id" : "obj-720",
					"fgcolor" : [ 0.7, 0.15, 0.15, 1.0 ],
					"bgcolor" : [ 1.0, 1.0, 1.0, 0.0 ],
					"numinlets" : 1,
					"numoutlets" : 1,
					"blinkcolor" : [ 1.0, 1.0, 1.0, 1.0 ],
					"presentation_rect" : [ 339.554077, 181.108154, 10.0, 10.0 ],
					"ignoreclick" : 1,
					"outlettype" : [ "bang" ]
				}

			}
, 			{
				"box" : 				{
					"maxclass" : "newobj",
					"text" : "s pitch_in",
					"patching_rect" : [ 292.0, 364.0, 61.0, 20.0 ],
					"id" : "obj-85",
					"fontname" : "Arial",
					"numinlets" : 1,
					"fontsize" : 12.0,
					"numoutlets" : 0
				}

			}
, 			{
				"box" : 				{
					"maxclass" : "bpatcher",
					"varname" : "Yin+",
					"patching_rect" : [ 292.0, 181.314697, 220.0, 69.0 ],
					"presentation" : 1,
					"id" : "obj-172",
					"name" : "OMax.yin+.maxpat",
					"numinlets" : 2,
					"numoutlets" : 4,
					"presentation_rect" : [ 343.667175, 70.314682, 168.0, 69.0 ],
					"outlettype" : [ "", "int", "int", "float" ],
					"args" : [  ]
				}

			}
, 			{
				"box" : 				{
					"maxclass" : "newobj",
					"text" : "s hCst",
					"patching_rect" : [ 784.0, 373.0, 45.0, 20.0 ],
					"id" : "obj-141",
					"fontname" : "Arial",
					"numinlets" : 1,
					"fontsize" : 12.0,
					"numoutlets" : 0
				}

			}
, 			{
				"box" : 				{
					"maxclass" : "message",
					"text" : "0.7 0.15 0.15 1.",
					"patching_rect" : [ 966.0, 208.0, 94.0, 18.0 ],
					"id" : "obj-151",
					"fontname" : "Arial",
					"numinlets" : 2,
					"fontsize" : 12.0,
					"numoutlets" : 1,
					"outlettype" : [ "" ]
				}

			}
, 			{
				"box" : 				{
					"maxclass" : "newobj",
					"text" : "loadbang",
					"patching_rect" : [ 966.0, 187.0, 52.0, 18.0 ],
					"id" : "obj-152",
					"fontname" : "Arial",
					"numinlets" : 1,
					"fontsize" : 10.0,
					"numoutlets" : 1,
					"outlettype" : [ "bang" ]
				}

			}
, 			{
				"box" : 				{
					"maxclass" : "flonum",
					"patching_rect" : [ 819.0, 217.0, 45.0, 18.0 ],
					"id" : "obj-157",
					"fontname" : "Arial",
					"numinlets" : 1,
					"triscale" : 0.5,
					"fontsize" : 10.0,
					"numoutlets" : 2,
					"outlettype" : [ "float", "bang" ]
				}

			}
, 			{
				"box" : 				{
					"maxclass" : "comment",
					"text" : "integration time (ms)",
					"patching_rect" : [ 822.0, 197.0, 108.0, 18.0 ],
					"id" : "obj-158",
					"fontname" : "Arial",
					"numinlets" : 1,
					"fontsize" : 10.0,
					"numoutlets" : 0
				}

			}
, 			{
				"box" : 				{
					"maxclass" : "newobj",
					"text" : "loadmess 1000",
					"patching_rect" : [ 871.0, 217.0, 78.0, 18.0 ],
					"id" : "obj-159",
					"fontname" : "Arial",
					"numinlets" : 1,
					"fontsize" : 10.0,
					"numoutlets" : 1,
					"outlettype" : [ "" ]
				}

			}
, 			{
				"box" : 				{
					"maxclass" : "message",
					"text" : "slidercolor $1 $2 $3 $4",
					"patching_rect" : [ 966.0, 238.0, 130.0, 18.0 ],
					"id" : "obj-164",
					"fontname" : "Arial",
					"numinlets" : 2,
					"fontsize" : 12.0,
					"numoutlets" : 1,
					"outlettype" : [ "" ]
				}

			}
, 			{
				"box" : 				{
					"maxclass" : "multislider",
					"ghostbar" : 20,
					"patching_rect" : [ 784.0, 274.0, 142.0, 85.0 ],
					"presentation" : 1,
					"id" : "obj-179",
					"numinlets" : 1,
					"slidercolor" : [ 0.7, 0.15, 0.15, 1.0 ],
					"size" : 12,
					"numoutlets" : 2,
					"thickness" : 3,
					"presentation_rect" : [ 206.0, 57.0, 125.0, 79.0 ],
					"outlettype" : [ "", "" ],
					"setminmax" : [ 0.0, 1.05 ]
				}

			}
, 			{
				"box" : 				{
					"maxclass" : "newobj",
					"text" : "audio2chroma",
					"patching_rect" : [ 784.0, 241.0, 87.0, 20.0 ],
					"id" : "obj-191",
					"fontname" : "Arial",
					"numinlets" : 2,
					"fontsize" : 12.0,
					"numoutlets" : 1,
					"outlettype" : [ "" ]
				}

			}
, 			{
				"box" : 				{
					"maxclass" : "comment",
					"text" : "remi",
					"patching_rect" : [ 282.0, 12.0, 47.0, 20.0 ],
					"presentation" : 1,
					"id" : "obj-12",
					"fontname" : "Arial",
					"numinlets" : 1,
					"fontface" : 1,
					"fontsize" : 12.0,
					"numoutlets" : 0,
					"presentation_rect" : [ 422.0, 11.0, 36.0, 20.0 ]
				}

			}
, 			{
				"box" : 				{
					"maxclass" : "ezdac~",
					"patching_rect" : [ 13.0, 38.0, 45.0, 45.0 ],
					"presentation" : 1,
					"id" : "obj-7",
					"bgcolor" : [ 1.0, 1.0, 1.0, 0.0 ],
					"numinlets" : 2,
					"numoutlets" : 0,
					"presentation_rect" : [ 13.0, 12.0, 45.0, 45.0 ],
					"ongradcolor1" : [ 0.901961, 0.2, 0.2, 1.0 ],
					"ongradcolor2" : [ 0.74902, 0.14902, 0.14902, 1.0 ]
				}

			}
, 			{
				"box" : 				{
					"maxclass" : "button",
					"patching_rect" : [ 212.0, 219.0, 17.0, 17.0 ],
					"id" : "obj-192",
					"bgcolor" : [ 0.913725, 0.913725, 0.913725, 0.0 ],
					"numinlets" : 1,
					"numoutlets" : 1,
					"blinkcolor" : [ 1.0, 0.862745, 0.439216, 1.0 ],
					"outlettype" : [ "bang" ]
				}

			}
, 			{
				"box" : 				{
					"maxclass" : "newobj",
					"text" : "r p_sp1",
					"patching_rect" : [ 116.0, 97.0, 44.0, 18.0 ],
					"id" : "obj-105",
					"fontname" : "Arial",
					"numinlets" : 0,
					"fontsize" : 10.0,
					"numoutlets" : 1,
					"outlettype" : [ "" ]
				}

			}
, 			{
				"box" : 				{
					"maxclass" : "newobj",
					"text" : "r h_sp1",
					"patching_rect" : [ 104.0, 76.0, 44.0, 18.0 ],
					"id" : "obj-104",
					"fontname" : "Arial",
					"numinlets" : 0,
					"fontsize" : 10.0,
					"numoutlets" : 1,
					"outlettype" : [ "" ]
				}

			}
, 			{
				"box" : 				{
					"maxclass" : "newobj",
					"text" : "r m_sp1",
					"patching_rect" : [ 93.0, 56.0, 47.0, 18.0 ],
					"id" : "obj-103",
					"fontname" : "Arial",
					"numinlets" : 0,
					"fontsize" : 10.0,
					"numoutlets" : 1,
					"outlettype" : [ "" ]
				}

			}
, 			{
				"box" : 				{
					"maxclass" : "newobj",
					"text" : "r in_sp1",
					"patching_rect" : [ 81.0, 36.0, 46.0, 18.0 ],
					"id" : "obj-101",
					"fontname" : "Arial",
					"numinlets" : 0,
					"fontsize" : 10.0,
					"numoutlets" : 1,
					"outlettype" : [ "" ]
				}

			}
, 			{
				"box" : 				{
					"maxclass" : "message",
					"text" : "gain $1",
					"patching_rect" : [ 167.675995, 440.800049, 50.0, 18.0 ],
					"id" : "obj-56",
					"fontname" : "Arial",
					"numinlets" : 2,
					"fontsize" : 12.0,
					"numoutlets" : 1,
					"outlettype" : [ "" ]
				}

			}
, 			{
				"box" : 				{
					"maxclass" : "newobj",
					"text" : "loadmess 127",
					"patching_rect" : [ 167.675995, 419.800049, 73.0, 18.0 ],
					"id" : "obj-60",
					"fontname" : "Arial",
					"numinlets" : 1,
					"fontsize" : 10.0,
					"numoutlets" : 1,
					"outlettype" : [ "" ]
				}

			}
, 			{
				"box" : 				{
					"maxclass" : "message",
					"text" : "pan $1",
					"patching_rect" : [ 167.675995, 490.800049, 47.0, 18.0 ],
					"id" : "obj-61",
					"fontname" : "Arial",
					"numinlets" : 2,
					"fontsize" : 12.0,
					"numoutlets" : 1,
					"outlettype" : [ "" ]
				}

			}
, 			{
				"box" : 				{
					"maxclass" : "newobj",
					"text" : "loadmess 45",
					"patching_rect" : [ 167.675995, 467.800049, 67.0, 18.0 ],
					"id" : "obj-62",
					"fontname" : "Arial",
					"numinlets" : 1,
					"fontsize" : 10.0,
					"numoutlets" : 1,
					"outlettype" : [ "" ]
				}

			}
, 			{
				"box" : 				{
					"maxclass" : "newobj",
					"text" : "dac~",
					"patching_rect" : [ 32.676003, 581.800049, 65.0, 20.0 ],
					"id" : "obj-45",
					"fontname" : "Arial",
					"numinlets" : 2,
					"fontsize" : 12.0,
					"numoutlets" : 0
				}

			}
, 			{
				"box" : 				{
					"maxclass" : "newobj",
					"text" : "receive~ audio_out_sp1",
					"patching_rect" : [ 32.676003, 390.800049, 117.0, 18.0 ],
					"id" : "obj-43",
					"fontname" : "Arial",
					"numinlets" : 1,
					"fontsize" : 10.0,
					"numoutlets" : 1,
					"outlettype" : [ "signal" ]
				}

			}
, 			{
				"box" : 				{
					"maxclass" : "comment",
					"text" : "output",
					"patching_rect" : [ 7.0, 334.0, 52.0, 20.0 ],
					"id" : "obj-41",
					"fontname" : "Arial",
					"numinlets" : 1,
					"fontface" : 1,
					"fontsize" : 12.0,
					"numoutlets" : 0
				}

			}
, 			{
				"box" : 				{
					"maxclass" : "bpatcher",
					"patching_rect" : [ 33.676003, 424.800049, 122.0, 82.0 ],
					"presentation" : 1,
					"id" : "obj-36",
					"name" : "audio_gain_pan.maxpat",
					"numinlets" : 2,
					"numoutlets" : 2,
					"presentation_rect" : [ 39.0, 86.0, 122.0, 82.0 ],
					"outlettype" : [ "signal", "signal" ],
					"args" : [  ]
				}

			}
, 			{
				"box" : 				{
					"maxclass" : "newobj",
					"text" : "s pulse_sp1",
					"patching_rect" : [ 151.0, 218.0, 64.0, 18.0 ],
					"id" : "obj-15",
					"fontname" : "Arial",
					"numinlets" : 1,
					"fontsize" : 10.0,
					"numoutlets" : 0
				}

			}
, 			{
				"box" : 				{
					"maxclass" : "newobj",
					"text" : "s hctxt_sp1",
					"patching_rect" : [ 127.999992, 239.0, 61.0, 18.0 ],
					"id" : "obj-10",
					"fontname" : "Arial",
					"numinlets" : 1,
					"fontsize" : 10.0,
					"numoutlets" : 0
				}

			}
, 			{
				"box" : 				{
					"maxclass" : "newobj",
					"text" : "send~ audio_out_sp1",
					"patching_rect" : [ 103.0, 260.0, 106.0, 18.0 ],
					"id" : "obj-8",
					"fontname" : "Arial",
					"numinlets" : 1,
					"fontsize" : 10.0,
					"numoutlets" : 0
				}

			}
, 			{
				"box" : 				{
					"maxclass" : "comment",
					"text" : "color management\n",
					"patching_rect" : [ 10.0, 1570.0, 128.0, 20.0 ],
					"id" : "obj-19",
					"fontname" : "Arial",
					"numinlets" : 1,
					"fontface" : 1,
					"fontsize" : 12.0,
					"numoutlets" : 0
				}

			}
, 			{
				"box" : 				{
					"maxclass" : "newobj",
					"text" : "b 2",
					"patching_rect" : [ 180.0, 1600.0, 32.5, 20.0 ],
					"id" : "obj-114",
					"fontname" : "Arial",
					"numinlets" : 1,
					"fontsize" : 12.0,
					"numoutlets" : 2,
					"outlettype" : [ "bang", "bang" ]
				}

			}
, 			{
				"box" : 				{
					"maxclass" : "message",
					"text" : "remove $1",
					"patching_rect" : [ 479.0, 1878.0, 67.0, 18.0 ],
					"id" : "obj-122",
					"fontname" : "Arial",
					"numinlets" : 2,
					"fontsize" : 12.0,
					"numoutlets" : 1,
					"outlettype" : [ "" ]
				}

			}
, 			{
				"box" : 				{
					"maxclass" : "message",
					"text" : "dump",
					"patching_rect" : [ 180.0, 1631.0, 41.0, 18.0 ],
					"id" : "obj-109",
					"fontname" : "Arial",
					"numinlets" : 2,
					"fontsize" : 12.0,
					"numoutlets" : 1,
					"outlettype" : [ "" ]
				}

			}
, 			{
				"box" : 				{
					"maxclass" : "newobj",
					"text" : "t s s",
					"patching_rect" : [ 479.0, 1745.0, 33.0, 20.0 ],
					"id" : "obj-97",
					"fontname" : "Arial",
					"numinlets" : 1,
					"fontsize" : 12.0,
					"numoutlets" : 2,
					"outlettype" : [ "", "" ]
				}

			}
, 			{
				"box" : 				{
					"maxclass" : "newobj",
					"text" : "zl reg",
					"patching_rect" : [ 479.0, 1851.0, 40.0, 20.0 ],
					"id" : "obj-80",
					"fontname" : "Arial",
					"numinlets" : 2,
					"fontsize" : 12.0,
					"numoutlets" : 2,
					"outlettype" : [ "", "" ]
				}

			}
, 			{
				"box" : 				{
					"maxclass" : "newobj",
					"text" : "sel 0",
					"patching_rect" : [ 479.0, 1826.0, 36.0, 20.0 ],
					"id" : "obj-78",
					"fontname" : "Arial",
					"numinlets" : 2,
					"fontsize" : 12.0,
					"numoutlets" : 2,
					"outlettype" : [ "bang", "" ]
				}

			}
, 			{
				"box" : 				{
					"maxclass" : "newobj",
					"text" : "prepend doesObjectExist",
					"patching_rect" : [ 479.0, 1770.0, 145.0, 20.0 ],
					"id" : "obj-70",
					"fontname" : "Arial",
					"numinlets" : 1,
					"fontsize" : 12.0,
					"numoutlets" : 1,
					"outlettype" : [ "" ]
				}

			}
, 			{
				"box" : 				{
					"maxclass" : "newobj",
					"text" : "route symbol",
					"patching_rect" : [ 479.0, 1717.0, 79.0, 20.0 ],
					"id" : "obj-52",
					"fontname" : "Arial",
					"numinlets" : 1,
					"fontsize" : 12.0,
					"numoutlets" : 2,
					"outlettype" : [ "", "" ]
				}

			}
, 			{
				"box" : 				{
					"maxclass" : "message",
					"text" : "dump",
					"patching_rect" : [ 454.0, 1663.0, 41.0, 18.0 ],
					"id" : "obj-46",
					"fontname" : "Arial",
					"numinlets" : 2,
					"fontsize" : 12.0,
					"numoutlets" : 1,
					"outlettype" : [ "" ]
				}

			}
, 			{
				"box" : 				{
					"maxclass" : "newobj",
					"text" : "js SOMax_misc_js",
					"patching_rect" : [ 479.0, 1799.0, 109.0, 20.0 ],
					"id" : "obj-31",
					"fontname" : "Arial",
					"numinlets" : 1,
					"fontsize" : 12.0,
					"numoutlets" : 1,
					"outlettype" : [ "" ]
				}

			}
, 			{
				"box" : 				{
					"maxclass" : "newobj",
					"text" : "coll playerColor",
					"patching_rect" : [ 454.0, 1692.0, 93.0, 20.0 ],
					"id" : "obj-20",
					"fontname" : "Arial",
					"numinlets" : 1,
					"fontsize" : 12.0,
					"numoutlets" : 4,
					"outlettype" : [ "", "", "", "" ],
					"coll_data" : 					{
						"count" : 1,
						"data" : [ 							{
								"key" : "player_1",
								"value" : [ 0.695247, 0.837263, 0.235355, 1.0 ]
							}
 ]
					}
,
					"saved_object_attributes" : 					{
						"embed" : 1
					}

				}

			}
, 			{
				"box" : 				{
					"maxclass" : "newobj",
					"text" : "prepend in0",
					"patching_rect" : [ 196.0, 1801.0, 74.0, 20.0 ],
					"id" : "obj-73",
					"fontname" : "Arial",
					"numinlets" : 1,
					"fontsize" : 12.0,
					"numoutlets" : 1,
					"outlettype" : [ "" ]
				}

			}
, 			{
				"box" : 				{
					"maxclass" : "message",
					"text" : "color $2 $3 $4 $5",
					"patching_rect" : [ 196.0, 1778.0, 103.0, 18.0 ],
					"id" : "obj-68",
					"fontname" : "Arial",
					"numinlets" : 2,
					"fontsize" : 12.0,
					"numoutlets" : 1,
					"outlettype" : [ "" ]
				}

			}
, 			{
				"box" : 				{
					"maxclass" : "newobj",
					"text" : "pattrforward",
					"patching_rect" : [ 196.0, 1829.0, 75.0, 20.0 ],
					"id" : "obj-21",
					"fontname" : "Arial",
					"numinlets" : 1,
					"fontsize" : 12.0,
					"numoutlets" : 1,
					"outlettype" : [ "" ]
				}

			}
, 			{
				"box" : 				{
					"maxclass" : "newobj",
					"text" : "loadbang",
					"patching_rect" : [ 180.0, 1575.0, 60.0, 20.0 ],
					"id" : "obj-91",
					"fontname" : "Arial",
					"numinlets" : 1,
					"fontsize" : 12.0,
					"numoutlets" : 1,
					"outlettype" : [ "bang" ]
				}

			}
, 			{
				"box" : 				{
					"maxclass" : "message",
					"text" : "set $1",
					"patching_rect" : [ 205.0, 1718.0, 43.0, 18.0 ],
					"id" : "obj-83",
					"fontname" : "Arial",
					"numinlets" : 2,
					"fontsize" : 12.0,
					"numoutlets" : 1,
					"outlettype" : [ "" ]
				}

			}
, 			{
				"box" : 				{
					"maxclass" : "newobj",
					"text" : "route symbol",
					"patching_rect" : [ 205.0, 1695.0, 79.0, 20.0 ],
					"id" : "obj-79",
					"fontname" : "Arial",
					"numinlets" : 1,
					"fontsize" : 12.0,
					"numoutlets" : 2,
					"outlettype" : [ "", "" ]
				}

			}
, 			{
				"box" : 				{
					"maxclass" : "newobj",
					"text" : "prepend",
					"patching_rect" : [ 180.0, 1743.0, 55.0, 20.0 ],
					"id" : "obj-48",
					"fontname" : "Arial",
					"numinlets" : 1,
					"fontsize" : 12.0,
					"numoutlets" : 1,
					"outlettype" : [ "" ]
				}

			}
, 			{
				"box" : 				{
					"maxclass" : "message",
					"text" : "script sendbox $1 bordercolor $2 $3 $4 $5",
					"patching_rect" : [ 180.0, 1861.0, 235.0, 18.0 ],
					"id" : "obj-77",
					"fontname" : "Arial",
					"numinlets" : 2,
					"fontsize" : 12.0,
					"numoutlets" : 1,
					"outlettype" : [ "" ]
				}

			}
, 			{
				"box" : 				{
					"maxclass" : "newobj",
					"varname" : "playerColor",
					"text" : "coll playerColor",
					"patching_rect" : [ 180.0, 1653.0, 93.0, 20.0 ],
					"id" : "obj-39",
					"fontname" : "Arial",
					"numinlets" : 1,
					"fontsize" : 12.0,
					"numoutlets" : 4,
					"outlettype" : [ "", "", "", "" ],
					"coll_data" : 					{
						"count" : 1,
						"data" : [ 							{
								"key" : "player_1",
								"value" : [ 0.695247, 0.837263, 0.235355, 1.0 ]
							}
 ]
					}
,
					"saved_object_attributes" : 					{
						"embed" : 1
					}

				}

			}
, 			{
				"box" : 				{
					"maxclass" : "newobj",
					"text" : "prepend store",
					"patching_rect" : [ 65.0, 1852.0, 85.0, 20.0 ],
					"id" : "obj-55",
					"fontname" : "Arial",
					"numinlets" : 1,
					"fontsize" : 12.0,
					"numoutlets" : 1,
					"outlettype" : [ "" ]
				}

			}
, 			{
				"box" : 				{
					"maxclass" : "newobj",
					"text" : "coll playerColor",
					"patching_rect" : [ 65.0, 1881.0, 93.0, 20.0 ],
					"id" : "obj-38",
					"fontname" : "Arial",
					"numinlets" : 1,
					"fontsize" : 12.0,
					"numoutlets" : 4,
					"outlettype" : [ "", "", "", "" ],
					"coll_data" : 					{
						"count" : 1,
						"data" : [ 							{
								"key" : "player_1",
								"value" : [ 0.695247, 0.837263, 0.235355, 1.0 ]
							}
 ]
					}
,
					"saved_object_attributes" : 					{
						"embed" : 1
					}

				}

			}
, 			{
				"box" : 				{
					"maxclass" : "newobj",
					"text" : "route color",
					"patching_rect" : [ 65.0, 1807.0, 67.0, 20.0 ],
					"id" : "obj-35",
					"fontname" : "Arial",
					"numinlets" : 1,
					"fontsize" : 12.0,
					"numoutlets" : 2,
					"outlettype" : [ "", "" ]
				}

			}
, 			{
				"box" : 				{
					"maxclass" : "newobj",
					"text" : "r extraInfo",
					"patching_rect" : [ 65.0, 1774.0, 65.0, 20.0 ],
					"id" : "obj-22",
					"fontname" : "Arial",
					"numinlets" : 0,
					"fontsize" : 12.0,
					"numoutlets" : 1,
					"outlettype" : [ "" ]
				}

			}
, 			{
				"box" : 				{
					"maxclass" : "newobj",
					"varname" : "poum",
					"text" : "thispatcher",
					"patching_rect" : [ 180.0, 1887.0, 69.0, 20.0 ],
					"id" : "obj-57",
					"fontname" : "Arial",
					"numinlets" : 1,
					"fontsize" : 12.0,
					"numoutlets" : 2,
					"outlettype" : [ "", "" ],
					"save" : [ "#N", "thispatcher", ";", "#Q", "end", ";" ]
				}

			}
, 			{
				"box" : 				{
					"maxclass" : "message",
					"text" : "send $1",
					"patching_rect" : [ 275.0, 1805.0, 51.0, 18.0 ],
					"id" : "obj-58",
					"fontname" : "Arial",
					"numinlets" : 2,
					"fontsize" : 12.0,
					"numoutlets" : 1,
					"outlettype" : [ "" ]
				}

			}
, 			{
				"box" : 				{
					"maxclass" : "message",
					"text" : "clear",
					"patching_rect" : [ 22.0, 1855.0, 37.0, 18.0 ],
					"id" : "obj-6",
					"fontname" : "Arial",
					"numinlets" : 2,
					"fontsize" : 12.0,
					"numoutlets" : 1,
					"outlettype" : [ "" ]
				}

			}
, 			{
				"box" : 				{
					"maxclass" : "message",
					"text" : "remove $1",
					"patching_rect" : [ 513.0, 1664.0, 65.0, 18.0 ],
					"id" : "obj-82",
					"fontname" : "Arial",
					"numinlets" : 2,
					"fontsize" : 12.0,
					"numoutlets" : 1,
					"outlettype" : [ "" ]
				}

			}
, 			{
				"box" : 				{
					"maxclass" : "panel",
					"patching_rect" : [ 10.0, 1570.0, 623.0, 345.0 ],
					"id" : "obj-23",
					"bgcolor" : [ 0.666667, 0.666667, 0.666667, 1.0 ],
					"numinlets" : 1,
					"numoutlets" : 0,
					"bordercolor" : [ 0.0, 0.0, 0.0, 0.0 ]
				}

			}
, 			{
				"box" : 				{
					"maxclass" : "newobj",
					"text" : "s midi_out_sp1",
					"patching_rect" : [ 81.0, 281.0, 78.0, 18.0 ],
					"id" : "obj-18",
					"fontname" : "Arial",
					"numinlets" : 1,
					"fontsize" : 10.0,
					"numoutlets" : 0
				}

			}
, 			{
				"box" : 				{
					"maxclass" : "comment",
					"text" : "agents",
					"patching_rect" : [ 11.0, 12.0, 47.0, 20.0 ],
					"id" : "obj-17",
					"fontname" : "Arial",
					"numinlets" : 1,
					"fontface" : 1,
					"fontsize" : 12.0,
					"numoutlets" : 0
				}

			}
, 			{
				"box" : 				{
					"maxclass" : "newobj",
					"varname" : "player_1",
					"text" : "soma player_1",
					"patching_rect" : [ 81.0, 193.0, 89.0, 20.0 ],
					"presentation" : 1,
					"id" : "obj-1",
					"fontname" : "Arial",
					"numinlets" : 7,
					"color" : [ 0.695247, 0.837263, 0.235355, 1.0 ],
					"fontsize" : 12.0,
					"numoutlets" : 4,
					"presentation_rect" : [ 59.0, 66.0, 89.0, 20.0 ],
					"outlettype" : [ "", "signal", "", "" ]
				}

			}
, 			{
				"box" : 				{
					"maxclass" : "panel",
					"patching_rect" : [ 10.0, 10.0, 253.0, 311.0 ],
					"presentation" : 1,
					"id" : "obj-479",
					"bgcolor" : [ 0.8, 0.8, 0.8, 1.0 ],
					"numinlets" : 1,
					"background" : 1,
					"numoutlets" : 0,
					"presentation_rect" : [ 10.0, 10.0, 165.0, 170.0 ]
				}

			}
, 			{
				"box" : 				{
					"maxclass" : "panel",
					"patching_rect" : [ 284.0, 8.0, 834.0, 449.0 ],
					"presentation" : 1,
					"id" : "obj-13",
					"bgcolor" : [ 0.8, 0.8, 0.8, 1.0 ],
					"numinlets" : 1,
					"background" : 1,
					"numoutlets" : 0,
					"presentation_rect" : [ 186.0, 10.0, 362.0, 188.0 ]
				}

			}
, 			{
				"box" : 				{
					"maxclass" : "panel",
					"patching_rect" : [ 7.0, 334.0, 263.442078, 298.779022 ],
					"id" : "obj-42",
					"numinlets" : 1,
					"background" : 1,
					"numoutlets" : 0
				}

			}
 ],
		"lines" : [ 			{
				"patchline" : 				{
					"source" : [ "obj-44", 0 ],
					"destination" : [ "obj-196", 0 ],
					"hidden" : 0,
					"midpoints" : [  ]
				}

			}
, 			{
				"patchline" : 				{
					"source" : [ "obj-204", 0 ],
					"destination" : [ "obj-193", 0 ],
					"hidden" : 0,
					"midpoints" : [  ]
				}

			}
, 			{
				"patchline" : 				{
					"source" : [ "obj-75", 0 ],
					"destination" : [ "obj-37", 0 ],
					"hidden" : 0,
					"midpoints" : [  ]
				}

			}
, 			{
				"patchline" : 				{
					"source" : [ "obj-37", 0 ],
					"destination" : [ "obj-72", 0 ],
					"hidden" : 0,
					"midpoints" : [  ]
				}

			}
, 			{
				"patchline" : 				{
					"source" : [ "obj-34", 0 ],
					"destination" : [ "obj-26", 0 ],
					"hidden" : 0,
					"midpoints" : [  ]
				}

			}
, 			{
				"patchline" : 				{
					"source" : [ "obj-34", 0 ],
					"destination" : [ "obj-24", 0 ],
					"hidden" : 0,
					"midpoints" : [  ]
				}

			}
, 			{
				"patchline" : 				{
					"source" : [ "obj-26", 0 ],
					"destination" : [ "obj-28", 0 ],
					"hidden" : 0,
					"midpoints" : [  ]
				}

			}
, 			{
				"patchline" : 				{
					"source" : [ "obj-24", 0 ],
					"destination" : [ "obj-28", 0 ],
					"hidden" : 0,
					"midpoints" : [  ]
				}

			}
, 			{
				"patchline" : 				{
					"source" : [ "obj-11", 0 ],
					"destination" : [ "obj-5", 0 ],
					"hidden" : 0,
					"midpoints" : [  ]
				}

			}
, 			{
				"patchline" : 				{
					"source" : [ "obj-5", 0 ],
					"destination" : [ "obj-3", 0 ],
					"hidden" : 0,
					"midpoints" : [  ]
				}

			}
, 			{
				"patchline" : 				{
					"source" : [ "obj-33", 0 ],
					"destination" : [ "obj-3", 0 ],
					"hidden" : 0,
					"midpoints" : [  ]
				}

			}
, 			{
				"patchline" : 				{
					"source" : [ "obj-11", 0 ],
					"destination" : [ "obj-33", 0 ],
					"hidden" : 0,
					"midpoints" : [  ]
				}

			}
, 			{
				"patchline" : 				{
					"source" : [ "obj-25", 0 ],
					"destination" : [ "obj-3", 0 ],
					"hidden" : 0,
					"midpoints" : [  ]
				}

			}
, 			{
				"patchline" : 				{
					"source" : [ "obj-11", 0 ],
					"destination" : [ "obj-25", 0 ],
					"hidden" : 0,
					"midpoints" : [  ]
				}

			}
, 			{
				"patchline" : 				{
					"source" : [ "obj-11", 0 ],
					"destination" : [ "obj-16", 0 ],
					"hidden" : 0,
					"midpoints" : [  ]
				}

			}
, 			{
				"patchline" : 				{
					"source" : [ "obj-16", 0 ],
					"destination" : [ "obj-3", 0 ],
					"hidden" : 0,
					"midpoints" : [  ]
				}

			}
, 			{
				"patchline" : 				{
					"source" : [ "obj-14", 0 ],
					"destination" : [ "obj-3", 0 ],
					"hidden" : 0,
					"midpoints" : [  ]
				}

			}
, 			{
				"patchline" : 				{
					"source" : [ "obj-11", 0 ],
					"destination" : [ "obj-14", 0 ],
					"hidden" : 0,
					"midpoints" : [  ]
				}

			}
, 			{
				"patchline" : 				{
					"source" : [ "obj-4", 0 ],
					"destination" : [ "obj-11", 0 ],
					"hidden" : 0,
					"midpoints" : [  ]
				}

			}
, 			{
				"patchline" : 				{
					"source" : [ "obj-11", 0 ],
					"destination" : [ "obj-9", 0 ],
					"hidden" : 0,
					"midpoints" : [  ]
				}

			}
, 			{
				"patchline" : 				{
					"source" : [ "obj-9", 0 ],
					"destination" : [ "obj-3", 0 ],
					"hidden" : 0,
					"midpoints" : [  ]
				}

			}
, 			{
				"patchline" : 				{
					"source" : [ "obj-170", 0 ],
					"destination" : [ "obj-169", 0 ],
					"hidden" : 0,
					"midpoints" : [  ]
				}

			}
, 			{
				"patchline" : 				{
					"source" : [ "obj-62", 0 ],
					"destination" : [ "obj-61", 0 ],
					"hidden" : 0,
					"midpoints" : [  ]
				}

			}
, 			{
				"patchline" : 				{
					"source" : [ "obj-237", 0 ],
					"destination" : [ "obj-191", 0 ],
					"hidden" : 0,
					"midpoints" : [  ]
				}

			}
, 			{
				"patchline" : 				{
					"source" : [ "obj-232", 0 ],
					"destination" : [ "obj-233", 0 ],
					"hidden" : 0,
					"midpoints" : [  ]
				}

			}
, 			{
				"patchline" : 				{
					"source" : [ "obj-213", 0 ],
					"destination" : [ "obj-210", 0 ],
					"hidden" : 0,
					"midpoints" : [  ]
				}

			}
, 			{
				"patchline" : 				{
					"source" : [ "obj-209", 0 ],
					"destination" : [ "obj-172", 0 ],
					"hidden" : 0,
					"midpoints" : [  ]
				}

			}
, 			{
				"patchline" : 				{
					"source" : [ "obj-172", 0 ],
					"destination" : [ "obj-85", 0 ],
					"hidden" : 0,
					"midpoints" : [  ]
				}

			}
, 			{
				"patchline" : 				{
					"source" : [ "obj-386", 1 ],
					"destination" : [ "obj-387", 0 ],
					"hidden" : 0,
					"midpoints" : [  ]
				}

			}
, 			{
				"patchline" : 				{
					"source" : [ "obj-530", 0 ],
					"destination" : [ "obj-141", 0 ],
					"hidden" : 0,
					"midpoints" : [  ]
				}

			}
, 			{
				"patchline" : 				{
					"source" : [ "obj-157", 0 ],
					"destination" : [ "obj-191", 1 ],
					"hidden" : 0,
					"midpoints" : [  ]
				}

			}
, 			{
				"patchline" : 				{
					"source" : [ "obj-191", 0 ],
					"destination" : [ "obj-179", 0 ],
					"hidden" : 0,
					"midpoints" : [  ]
				}

			}
, 			{
				"patchline" : 				{
					"source" : [ "obj-164", 0 ],
					"destination" : [ "obj-179", 0 ],
					"hidden" : 0,
					"midpoints" : [ 975.5, 266.5, 793.5, 266.5 ]
				}

			}
, 			{
				"patchline" : 				{
					"source" : [ "obj-159", 0 ],
					"destination" : [ "obj-157", 0 ],
					"hidden" : 0,
					"midpoints" : [  ]
				}

			}
, 			{
				"patchline" : 				{
					"source" : [ "obj-152", 0 ],
					"destination" : [ "obj-151", 0 ],
					"hidden" : 0,
					"midpoints" : [  ]
				}

			}
, 			{
				"patchline" : 				{
					"source" : [ "obj-151", 0 ],
					"destination" : [ "obj-164", 0 ],
					"hidden" : 0,
					"midpoints" : [  ]
				}

			}
, 			{
				"patchline" : 				{
					"source" : [ "obj-727", 0 ],
					"destination" : [ "obj-720", 0 ],
					"hidden" : 0,
					"midpoints" : [  ]
				}

			}
, 			{
				"patchline" : 				{
					"source" : [ "obj-713", 0 ],
					"destination" : [ "obj-717", 0 ],
					"hidden" : 0,
					"midpoints" : [  ]
				}

			}
, 			{
				"patchline" : 				{
					"source" : [ "obj-67", 0 ],
					"destination" : [ "obj-717", 0 ],
					"hidden" : 0,
					"midpoints" : [  ]
				}

			}
, 			{
				"patchline" : 				{
					"source" : [ "obj-64", 0 ],
					"destination" : [ "obj-63", 0 ],
					"hidden" : 0,
					"midpoints" : [  ]
				}

			}
, 			{
				"patchline" : 				{
					"source" : [ "obj-63", 0 ],
					"destination" : [ "obj-727", 0 ],
					"hidden" : 0,
					"midpoints" : [ 487.5, 307.0, 640.5, 307.0 ]
				}

			}
, 			{
				"patchline" : 				{
					"source" : [ "obj-63", 0 ],
					"destination" : [ "obj-713", 0 ],
					"hidden" : 0,
					"midpoints" : [  ]
				}

			}
, 			{
				"patchline" : 				{
					"source" : [ "obj-179", 0 ],
					"destination" : [ "obj-141", 0 ],
					"hidden" : 0,
					"midpoints" : [  ]
				}

			}
, 			{
				"patchline" : 				{
					"source" : [ "obj-172", 0 ],
					"destination" : [ "obj-386", 0 ],
					"hidden" : 0,
					"midpoints" : [  ]
				}

			}
, 			{
				"patchline" : 				{
					"source" : [ "obj-1", 3 ],
					"destination" : [ "obj-192", 0 ],
					"hidden" : 0,
					"midpoints" : [  ]
				}

			}
, 			{
				"patchline" : 				{
					"source" : [ "obj-105", 0 ],
					"destination" : [ "obj-1", 3 ],
					"hidden" : 0,
					"midpoints" : [  ]
				}

			}
, 			{
				"patchline" : 				{
					"source" : [ "obj-104", 0 ],
					"destination" : [ "obj-1", 2 ],
					"hidden" : 0,
					"midpoints" : [  ]
				}

			}
, 			{
				"patchline" : 				{
					"source" : [ "obj-103", 0 ],
					"destination" : [ "obj-1", 1 ],
					"hidden" : 0,
					"midpoints" : [  ]
				}

			}
, 			{
				"patchline" : 				{
					"source" : [ "obj-101", 0 ],
					"destination" : [ "obj-1", 0 ],
					"hidden" : 0,
					"midpoints" : [  ]
				}

			}
, 			{
				"patchline" : 				{
					"source" : [ "obj-56", 0 ],
					"destination" : [ "obj-36", 0 ],
					"hidden" : 0,
					"midpoints" : [  ]
				}

			}
, 			{
				"patchline" : 				{
					"source" : [ "obj-61", 0 ],
					"destination" : [ "obj-36", 0 ],
					"hidden" : 0,
					"midpoints" : [  ]
				}

			}
, 			{
				"patchline" : 				{
					"source" : [ "obj-36", 1 ],
					"destination" : [ "obj-45", 1 ],
					"hidden" : 0,
					"midpoints" : [ 146.175995, 532.800049, 88.176003, 532.800049 ]
				}

			}
, 			{
				"patchline" : 				{
					"source" : [ "obj-36", 0 ],
					"destination" : [ "obj-45", 0 ],
					"hidden" : 0,
					"midpoints" : [ 43.176003, 532.800049, 42.176003, 532.800049 ]
				}

			}
, 			{
				"patchline" : 				{
					"source" : [ "obj-43", 0 ],
					"destination" : [ "obj-36", 1 ],
					"hidden" : 0,
					"midpoints" : [  ]
				}

			}
, 			{
				"patchline" : 				{
					"source" : [ "obj-43", 0 ],
					"destination" : [ "obj-36", 0 ],
					"hidden" : 0,
					"midpoints" : [  ]
				}

			}
, 			{
				"patchline" : 				{
					"source" : [ "obj-1", 3 ],
					"destination" : [ "obj-15", 0 ],
					"hidden" : 0,
					"midpoints" : [  ]
				}

			}
, 			{
				"patchline" : 				{
					"source" : [ "obj-1", 0 ],
					"destination" : [ "obj-18", 0 ],
					"hidden" : 0,
					"midpoints" : [  ]
				}

			}
, 			{
				"patchline" : 				{
					"source" : [ "obj-114", 1 ],
					"destination" : [ "obj-46", 0 ],
					"hidden" : 0,
					"midpoints" : [  ]
				}

			}
, 			{
				"patchline" : 				{
					"source" : [ "obj-114", 0 ],
					"destination" : [ "obj-109", 0 ],
					"hidden" : 0,
					"midpoints" : [  ]
				}

			}
, 			{
				"patchline" : 				{
					"source" : [ "obj-91", 0 ],
					"destination" : [ "obj-114", 0 ],
					"hidden" : 0,
					"midpoints" : [  ]
				}

			}
, 			{
				"patchline" : 				{
					"source" : [ "obj-35", 0 ],
					"destination" : [ "obj-77", 0 ],
					"hidden" : 0,
					"midpoints" : [  ]
				}

			}
, 			{
				"patchline" : 				{
					"source" : [ "obj-48", 0 ],
					"destination" : [ "obj-58", 0 ],
					"hidden" : 0,
					"midpoints" : [  ]
				}

			}
, 			{
				"patchline" : 				{
					"source" : [ "obj-77", 0 ],
					"destination" : [ "obj-57", 0 ],
					"hidden" : 0,
					"midpoints" : [  ]
				}

			}
, 			{
				"patchline" : 				{
					"source" : [ "obj-48", 0 ],
					"destination" : [ "obj-77", 0 ],
					"hidden" : 0,
					"midpoints" : [  ]
				}

			}
, 			{
				"patchline" : 				{
					"source" : [ "obj-39", 0 ],
					"destination" : [ "obj-48", 0 ],
					"hidden" : 0,
					"midpoints" : [  ]
				}

			}
, 			{
				"patchline" : 				{
					"source" : [ "obj-83", 0 ],
					"destination" : [ "obj-48", 0 ],
					"hidden" : 0,
					"midpoints" : [  ]
				}

			}
, 			{
				"patchline" : 				{
					"source" : [ "obj-79", 0 ],
					"destination" : [ "obj-83", 0 ],
					"hidden" : 0,
					"midpoints" : [  ]
				}

			}
, 			{
				"patchline" : 				{
					"source" : [ "obj-39", 1 ],
					"destination" : [ "obj-79", 0 ],
					"hidden" : 0,
					"midpoints" : [  ]
				}

			}
, 			{
				"patchline" : 				{
					"source" : [ "obj-22", 0 ],
					"destination" : [ "obj-35", 0 ],
					"hidden" : 0,
					"midpoints" : [  ]
				}

			}
, 			{
				"patchline" : 				{
					"source" : [ "obj-35", 0 ],
					"destination" : [ "obj-55", 0 ],
					"hidden" : 0,
					"midpoints" : [  ]
				}

			}
, 			{
				"patchline" : 				{
					"source" : [ "obj-55", 0 ],
					"destination" : [ "obj-38", 0 ],
					"hidden" : 0,
					"midpoints" : [  ]
				}

			}
, 			{
				"patchline" : 				{
					"source" : [ "obj-58", 0 ],
					"destination" : [ "obj-21", 0 ],
					"hidden" : 0,
					"midpoints" : [  ]
				}

			}
, 			{
				"patchline" : 				{
					"source" : [ "obj-48", 0 ],
					"destination" : [ "obj-68", 0 ],
					"hidden" : 0,
					"midpoints" : [  ]
				}

			}
, 			{
				"patchline" : 				{
					"source" : [ "obj-6", 0 ],
					"destination" : [ "obj-38", 0 ],
					"hidden" : 0,
					"midpoints" : [  ]
				}

			}
, 			{
				"patchline" : 				{
					"source" : [ "obj-46", 0 ],
					"destination" : [ "obj-20", 0 ],
					"hidden" : 0,
					"midpoints" : [  ]
				}

			}
, 			{
				"patchline" : 				{
					"source" : [ "obj-20", 1 ],
					"destination" : [ "obj-52", 0 ],
					"hidden" : 0,
					"midpoints" : [  ]
				}

			}
, 			{
				"patchline" : 				{
					"source" : [ "obj-70", 0 ],
					"destination" : [ "obj-31", 0 ],
					"hidden" : 0,
					"midpoints" : [  ]
				}

			}
, 			{
				"patchline" : 				{
					"source" : [ "obj-31", 0 ],
					"destination" : [ "obj-78", 0 ],
					"hidden" : 0,
					"midpoints" : [  ]
				}

			}
, 			{
				"patchline" : 				{
					"source" : [ "obj-82", 0 ],
					"destination" : [ "obj-20", 0 ],
					"hidden" : 0,
					"midpoints" : [  ]
				}

			}
, 			{
				"patchline" : 				{
					"source" : [ "obj-97", 0 ],
					"destination" : [ "obj-70", 0 ],
					"hidden" : 0,
					"midpoints" : [  ]
				}

			}
, 			{
				"patchline" : 				{
					"source" : [ "obj-52", 0 ],
					"destination" : [ "obj-97", 0 ],
					"hidden" : 0,
					"midpoints" : [  ]
				}

			}
, 			{
				"patchline" : 				{
					"source" : [ "obj-97", 1 ],
					"destination" : [ "obj-80", 1 ],
					"hidden" : 0,
					"midpoints" : [  ]
				}

			}
, 			{
				"patchline" : 				{
					"source" : [ "obj-78", 0 ],
					"destination" : [ "obj-80", 0 ],
					"hidden" : 0,
					"midpoints" : [  ]
				}

			}
, 			{
				"patchline" : 				{
					"source" : [ "obj-109", 0 ],
					"destination" : [ "obj-39", 0 ],
					"hidden" : 0,
					"midpoints" : [  ]
				}

			}
, 			{
				"patchline" : 				{
					"source" : [ "obj-122", 0 ],
					"destination" : [ "obj-20", 0 ],
					"hidden" : 0,
					"midpoints" : [ 488.5, 1904.0, 441.0, 1904.0, 441.0, 1688.0, 463.5, 1688.0 ]
				}

			}
, 			{
				"patchline" : 				{
					"source" : [ "obj-80", 0 ],
					"destination" : [ "obj-122", 0 ],
					"hidden" : 0,
					"midpoints" : [  ]
				}

			}
, 			{
				"patchline" : 				{
					"source" : [ "obj-73", 0 ],
					"destination" : [ "obj-21", 0 ],
					"hidden" : 0,
					"midpoints" : [  ]
				}

			}
, 			{
				"patchline" : 				{
					"source" : [ "obj-68", 0 ],
					"destination" : [ "obj-73", 0 ],
					"hidden" : 0,
					"midpoints" : [  ]
				}

			}
, 			{
				"patchline" : 				{
					"source" : [ "obj-1", 2 ],
					"destination" : [ "obj-10", 0 ],
					"hidden" : 0,
					"midpoints" : [  ]
				}

			}
, 			{
				"patchline" : 				{
					"source" : [ "obj-1", 1 ],
					"destination" : [ "obj-8", 0 ],
					"hidden" : 0,
					"midpoints" : [  ]
				}

			}
, 			{
				"patchline" : 				{
					"source" : [ "obj-60", 0 ],
					"destination" : [ "obj-56", 0 ],
					"hidden" : 0,
					"midpoints" : [  ]
				}

			}
, 			{
				"patchline" : 				{
					"source" : [ "obj-107", 0 ],
					"destination" : [ "obj-106", 0 ],
					"hidden" : 0,
					"midpoints" : [  ]
				}

			}
, 			{
				"patchline" : 				{
					"source" : [ "obj-32", 0 ],
					"destination" : [ "obj-27", 0 ],
					"hidden" : 0,
					"midpoints" : [  ]
				}

			}
, 			{
				"patchline" : 				{
					"source" : [ "obj-54", 0 ],
					"destination" : [ "obj-28", 0 ],
					"hidden" : 0,
					"midpoints" : [  ]
				}

			}
, 			{
				"patchline" : 				{
					"source" : [ "obj-34", 0 ],
					"destination" : [ "obj-54", 0 ],
					"hidden" : 0,
					"midpoints" : [  ]
				}

			}
, 			{
				"patchline" : 				{
					"source" : [ "obj-69", 0 ],
					"destination" : [ "obj-59", 0 ],
					"hidden" : 0,
					"midpoints" : [  ]
				}

			}
, 			{
				"patchline" : 				{
					"source" : [ "obj-49", 0 ],
					"destination" : [ "obj-69", 0 ],
					"hidden" : 0,
					"midpoints" : [  ]
				}

			}
, 			{
				"patchline" : 				{
					"source" : [ "obj-59", 0 ],
					"destination" : [ "obj-74", 0 ],
					"hidden" : 0,
					"midpoints" : [  ]
				}

			}
, 			{
				"patchline" : 				{
					"source" : [ "obj-76", 0 ],
					"destination" : [ "obj-56", 0 ],
					"hidden" : 0,
					"midpoints" : [  ]
				}

			}
, 			{
				"patchline" : 				{
					"source" : [ "obj-49", 0 ],
					"destination" : [ "obj-81", 0 ],
					"hidden" : 0,
					"midpoints" : [  ]
				}

			}
, 			{
				"patchline" : 				{
					"source" : [ "obj-81", 0 ],
					"destination" : [ "obj-50", 0 ],
					"hidden" : 0,
					"midpoints" : [  ]
				}

			}
, 			{
				"patchline" : 				{
					"source" : [ "obj-27", 0 ],
					"destination" : [ "obj-84", 0 ],
					"hidden" : 0,
					"midpoints" : [  ]
				}

			}
, 			{
				"patchline" : 				{
					"source" : [ "obj-50", 0 ],
					"destination" : [ "obj-84", 0 ],
					"hidden" : 0,
					"midpoints" : [  ]
				}

			}
, 			{
				"patchline" : 				{
					"source" : [ "obj-88", 0 ],
					"destination" : [ "obj-87", 0 ],
					"hidden" : 0,
					"midpoints" : [  ]
				}

			}
, 			{
				"patchline" : 				{
					"source" : [ "obj-86", 0 ],
					"destination" : [ "obj-89", 1 ],
					"hidden" : 0,
					"midpoints" : [  ]
				}

			}
, 			{
				"patchline" : 				{
					"source" : [ "obj-92", 0 ],
					"destination" : [ "obj-89", 0 ],
					"hidden" : 0,
					"midpoints" : [  ]
				}

			}
, 			{
				"patchline" : 				{
					"source" : [ "obj-89", 0 ],
					"destination" : [ "obj-87", 0 ],
					"hidden" : 0,
					"midpoints" : [  ]
				}

			}
, 			{
				"patchline" : 				{
					"source" : [ "obj-93", 0 ],
					"destination" : [ "obj-92", 0 ],
					"hidden" : 0,
					"midpoints" : [  ]
				}

			}
, 			{
				"patchline" : 				{
					"source" : [ "obj-30", 0 ],
					"destination" : [ "obj-1", 6 ],
					"hidden" : 0,
					"midpoints" : [  ]
				}

			}
, 			{
				"patchline" : 				{
					"source" : [ "obj-29", 0 ],
					"destination" : [ "obj-1", 5 ],
					"hidden" : 0,
					"midpoints" : [  ]
				}

			}
, 			{
				"patchline" : 				{
					"source" : [ "obj-66", 0 ],
					"destination" : [ "obj-1", 4 ],
					"hidden" : 0,
					"midpoints" : [  ]
				}

			}
 ]
	}

}
