{
	"patcher" : 	{
		"fileversion" : 1,
		"appversion" : 		{
			"major" : 5,
			"minor" : 1,
			"revision" : 9
		}
,
		"rect" : [ 497.0, 496.0, 781.0, 249.0 ],
		"bglocked" : 0,
		"defrect" : [ 497.0, 496.0, 781.0, 249.0 ],
		"openrect" : [ 0.0, 0.0, 0.0, 0.0 ],
		"openinpresentation" : 1,
		"default_fontsize" : 12.0,
		"default_fontface" : 0,
		"default_fontname" : "Arial",
		"gridonopen" : 0,
		"gridsize" : [ 10.0, 10.0 ],
		"gridsnaponopen" : 0,
		"toolbarvisible" : 1,
		"boxanimatetime" : 200,
		"imprint" : 0,
		"enablehscroll" : 1,
		"enablevscroll" : 1,
		"devicewidth" : 0.0,
		"boxes" : [ 			{
				"box" : 				{
					"maxclass" : "message",
					"text" : "nextStateAutoMod 3.5",
					"outlettype" : [ "" ],
					"fontsize" : 12.0,
					"numinlets" : 2,
					"id" : "obj-93",
					"fontname" : "Arial",
					"patching_rect" : [ 808.0, 1158.0, 129.0, 18.0 ],
					"numoutlets" : 1
				}

			}
, 			{
				"box" : 				{
					"maxclass" : "newobj",
					"text" : "s in_sp2",
					"fontsize" : 10.0,
					"numinlets" : 1,
					"id" : "obj-76",
					"fontname" : "Arial",
					"patching_rect" : [ 735.760498, 1185.832153, 48.0, 18.0 ],
					"numoutlets" : 0
				}

			}
, 			{
				"box" : 				{
					"maxclass" : "newobj",
					"text" : "s in_sp1",
					"fontsize" : 10.0,
					"numinlets" : 1,
					"id" : "obj-86",
					"fontname" : "Arial",
					"patching_rect" : [ 785.760498, 1185.832153, 48.0, 18.0 ],
					"numoutlets" : 0
				}

			}
, 			{
				"box" : 				{
					"maxclass" : "message",
					"text" : "autoJump 1",
					"outlettype" : [ "" ],
					"fontsize" : 12.0,
					"numinlets" : 2,
					"id" : "obj-87",
					"fontname" : "Arial",
					"patching_rect" : [ 772.0271, 1105.31189, 73.0, 18.0 ],
					"numoutlets" : 1
				}

			}
, 			{
				"box" : 				{
					"maxclass" : "message",
					"text" : "nextStateAutoMod 3.",
					"outlettype" : [ "" ],
					"fontsize" : 12.0,
					"numinlets" : 2,
					"id" : "obj-88",
					"fontname" : "Arial",
					"patching_rect" : [ 736.0, 1130.0, 123.0, 18.0 ],
					"numoutlets" : 1
				}

			}
, 			{
				"box" : 				{
					"maxclass" : "message",
					"text" : "listeningWeights 1. 1. 0",
					"outlettype" : [ "" ],
					"fontsize" : 12.0,
					"numinlets" : 2,
					"id" : "obj-89",
					"fontname" : "Arial",
					"patching_rect" : [ 757.760498, 1082.032227, 134.0, 18.0 ],
					"numoutlets" : 1
				}

			}
, 			{
				"box" : 				{
					"maxclass" : "comment",
					"text" : "mainly self listening",
					"linecount" : 3,
					"fontsize" : 12.0,
					"presentation_rect" : [ 316.0, 208.0, 115.0, 20.0 ],
					"numinlets" : 1,
					"id" : "obj-90",
					"fontname" : "Arial",
					"patching_rect" : [ 792.0, 1024.0, 63.0, 48.0 ],
					"numoutlets" : 0,
					"presentation" : 1
				}

			}
, 			{
				"box" : 				{
					"maxclass" : "button",
					"outlettype" : [ "bang" ],
					"presentation_rect" : [ 286.0, 208.0, 31.0, 31.0 ],
					"numinlets" : 1,
					"blinkcolor" : [ 1.0, 0.862745, 0.439216, 1.0 ],
					"id" : "obj-92",
					"patching_rect" : [ 758.0, 1033.0, 31.0, 31.0 ],
					"numoutlets" : 1,
					"presentation" : 1
				}

			}
, 			{
				"box" : 				{
					"maxclass" : "newobj",
					"text" : "s in_sp2",
					"fontsize" : 10.0,
					"numinlets" : 1,
					"id" : "obj-72",
					"fontname" : "Arial",
					"patching_rect" : [ 521.760498, 1184.832153, 48.0, 18.0 ],
					"numoutlets" : 0
				}

			}
, 			{
				"box" : 				{
					"maxclass" : "newobj",
					"text" : "s in_sp1",
					"fontsize" : 10.0,
					"numinlets" : 1,
					"id" : "obj-75",
					"fontname" : "Arial",
					"patching_rect" : [ 571.760498, 1184.832153, 48.0, 18.0 ],
					"numoutlets" : 0
				}

			}
, 			{
				"box" : 				{
					"maxclass" : "message",
					"text" : "autoJump 1",
					"outlettype" : [ "" ],
					"fontsize" : 12.0,
					"numinlets" : 2,
					"id" : "obj-71",
					"fontname" : "Arial",
					"patching_rect" : [ 558.0271, 1104.31189, 73.0, 18.0 ],
					"numoutlets" : 1
				}

			}
, 			{
				"box" : 				{
					"maxclass" : "message",
					"text" : "nextStateAutoMod 6.",
					"outlettype" : [ "" ],
					"fontsize" : 12.0,
					"numinlets" : 2,
					"id" : "obj-62",
					"fontname" : "Arial",
					"patching_rect" : [ 573.0, 1129.0, 135.0, 18.0 ],
					"numoutlets" : 1
				}

			}
, 			{
				"box" : 				{
					"maxclass" : "message",
					"text" : "listeningWeights 1. 4. 0",
					"outlettype" : [ "" ],
					"fontsize" : 12.0,
					"numinlets" : 2,
					"id" : "obj-60",
					"fontname" : "Arial",
					"patching_rect" : [ 543.760498, 1081.032227, 134.0, 18.0 ],
					"numoutlets" : 1
				}

			}
, 			{
				"box" : 				{
					"maxclass" : "comment",
					"text" : "mainly melodic listening",
					"linecount" : 3,
					"fontsize" : 12.0,
					"presentation_rect" : [ 76.0, 208.0, 137.0, 20.0 ],
					"numinlets" : 1,
					"id" : "obj-45",
					"fontname" : "Arial",
					"patching_rect" : [ 578.0, 1023.0, 61.0, 48.0 ],
					"numoutlets" : 0,
					"presentation" : 1
				}

			}
, 			{
				"box" : 				{
					"maxclass" : "button",
					"outlettype" : [ "bang" ],
					"presentation_rect" : [ 46.0, 208.0, 31.0, 31.0 ],
					"numinlets" : 1,
					"blinkcolor" : [ 1.0, 0.862745, 0.439216, 1.0 ],
					"id" : "obj-56",
					"patching_rect" : [ 544.0, 1032.0, 31.0, 31.0 ],
					"numoutlets" : 1,
					"presentation" : 1
				}

			}
, 			{
				"box" : 				{
					"maxclass" : "newobj",
					"text" : "r #0_modGain",
					"outlettype" : [ "" ],
					"fontsize" : 12.0,
					"numinlets" : 0,
					"id" : "obj-36",
					"fontname" : "Arial",
					"patching_rect" : [ 572.0, 460.0, 87.0, 20.0 ],
					"numoutlets" : 1
				}

			}
, 			{
				"box" : 				{
					"maxclass" : "newobj",
					"text" : "s in_sp2",
					"fontsize" : 10.0,
					"numinlets" : 1,
					"id" : "obj-28",
					"fontname" : "Arial",
					"patching_rect" : [ 911.558228, 962.635681, 48.0, 18.0 ],
					"numoutlets" : 0
				}

			}
, 			{
				"box" : 				{
					"maxclass" : "newobj",
					"text" : "del 1000",
					"outlettype" : [ "bang" ],
					"fontsize" : 12.0,
					"numinlets" : 2,
					"id" : "obj-81",
					"fontname" : "Arial",
					"patching_rect" : [ 912.0, 855.0, 57.0, 20.0 ],
					"numoutlets" : 1
				}

			}
, 			{
				"box" : 				{
					"maxclass" : "newobj",
					"text" : "s #0_modGain",
					"fontsize" : 12.0,
					"numinlets" : 1,
					"id" : "obj-74",
					"fontname" : "Arial",
					"patching_rect" : [ 990.0, 885.0, 89.0, 20.0 ],
					"numoutlets" : 0
				}

			}
, 			{
				"box" : 				{
					"maxclass" : "message",
					"text" : "127, 0 1000",
					"outlettype" : [ "" ],
					"fontsize" : 12.0,
					"numinlets" : 2,
					"id" : "obj-2",
					"fontname" : "Arial",
					"patching_rect" : [ 990.0, 834.0, 74.0, 18.0 ],
					"numoutlets" : 1
				}

			}
, 			{
				"box" : 				{
					"maxclass" : "newobj",
					"text" : "line",
					"outlettype" : [ "", "" ],
					"fontsize" : 12.0,
					"numinlets" : 3,
					"id" : "obj-9",
					"fontname" : "Arial",
					"patching_rect" : [ 990.0, 860.0, 46.0, 20.0 ],
					"numoutlets" : 2
				}

			}
, 			{
				"box" : 				{
					"maxclass" : "comment",
					"text" : "stop",
					"fontsize" : 12.0,
					"presentation_rect" : [ 569.0, 208.0, 34.0, 20.0 ],
					"numinlets" : 1,
					"id" : "obj-14",
					"fontname" : "Arial",
					"patching_rect" : [ 945.0, 799.0, 34.0, 20.0 ],
					"numoutlets" : 0,
					"presentation" : 1
				}

			}
, 			{
				"box" : 				{
					"maxclass" : "button",
					"outlettype" : [ "bang" ],
					"presentation_rect" : [ 539.0, 208.0, 31.0, 31.0 ],
					"numinlets" : 1,
					"blinkcolor" : [ 1.0, 0.862745, 0.439216, 1.0 ],
					"id" : "obj-16",
					"patching_rect" : [ 912.0, 799.0, 31.0, 31.0 ],
					"numoutlets" : 1,
					"presentation" : 1
				}

			}
, 			{
				"box" : 				{
					"maxclass" : "message",
					"text" : "stop",
					"outlettype" : [ "" ],
					"fontsize" : 12.0,
					"numinlets" : 2,
					"id" : "obj-27",
					"fontname" : "Arial",
					"patching_rect" : [ 912.0, 883.0, 33.0, 18.0 ],
					"numoutlets" : 1
				}

			}
, 			{
				"box" : 				{
					"maxclass" : "message",
					"text" : "autoBpm 0",
					"outlettype" : [ "" ],
					"fontsize" : 12.0,
					"numinlets" : 2,
					"id" : "obj-69",
					"fontname" : "Arial",
					"patching_rect" : [ 386.348145, 953.788696, 69.0, 18.0 ],
					"numoutlets" : 1
				}

			}
, 			{
				"box" : 				{
					"maxclass" : "newobj",
					"text" : "s in_sp2",
					"fontsize" : 10.0,
					"numinlets" : 1,
					"id" : "obj-65",
					"fontname" : "Arial",
					"patching_rect" : [ 294.760498, 985.832153, 48.0, 18.0 ],
					"numoutlets" : 0
				}

			}
, 			{
				"box" : 				{
					"maxclass" : "message",
					"text" : "autoJump 0",
					"outlettype" : [ "" ],
					"fontsize" : 12.0,
					"numinlets" : 2,
					"id" : "obj-51",
					"fontname" : "Arial",
					"patching_rect" : [ 359.0271, 907.31189, 74.0, 18.0 ],
					"numoutlets" : 1
				}

			}
, 			{
				"box" : 				{
					"maxclass" : "message",
					"text" : "useOriginalBeatPhaseValue 0",
					"outlettype" : [ "" ],
					"fontsize" : 12.0,
					"numinlets" : 2,
					"id" : "obj-25",
					"fontname" : "Arial",
					"patching_rect" : [ 373.348145, 929.788696, 170.0, 18.0 ],
					"numoutlets" : 1
				}

			}
, 			{
				"box" : 				{
					"maxclass" : "newobj",
					"text" : "s m_sp2",
					"fontsize" : 10.0,
					"numinlets" : 1,
					"id" : "obj-33",
					"fontname" : "Arial",
					"patching_rect" : [ 161.848145, 918.588623, 48.0, 18.0 ],
					"numoutlets" : 0
				}

			}
, 			{
				"box" : 				{
					"maxclass" : "newobj",
					"text" : "loadmess 127",
					"outlettype" : [ "" ],
					"fontsize" : 10.0,
					"numinlets" : 1,
					"id" : "obj-163",
					"fontname" : "Arial",
					"patching_rect" : [ 616.661987, 514.724976, 73.0, 18.0 ],
					"numoutlets" : 1
				}

			}
, 			{
				"box" : 				{
					"maxclass" : "comment",
					"text" : "master",
					"fontsize" : 12.0,
					"presentation_rect" : [ 330.0, 27.0, 47.0, 20.0 ],
					"numinlets" : 1,
					"id" : "obj-162",
					"fontname" : "Arial",
					"patching_rect" : [ 584.661987, 485.725006, 47.0, 20.0 ],
					"numoutlets" : 0,
					"presentation" : 1
				}

			}
, 			{
				"box" : 				{
					"maxclass" : "slider",
					"outlettype" : [ "" ],
					"presentation_rect" : [ 333.0, 48.0, 40.0, 128.0 ],
					"numinlets" : 1,
					"id" : "obj-160",
					"patching_rect" : [ 571.661987, 506.725006, 40.0, 128.0 ],
					"numoutlets" : 1,
					"presentation" : 1
				}

			}
, 			{
				"box" : 				{
					"maxclass" : "newobj",
					"text" : "send~ ar_sp1",
					"fontsize" : 10.0,
					"numinlets" : 1,
					"id" : "obj-144",
					"fontname" : "Arial",
					"patching_rect" : [ 846.0, 485.0, 71.0, 18.0 ],
					"numoutlets" : 0
				}

			}
, 			{
				"box" : 				{
					"maxclass" : "newobj",
					"text" : "send~ ad_sp1",
					"fontsize" : 10.0,
					"numinlets" : 1,
					"id" : "obj-145",
					"fontname" : "Arial",
					"patching_rect" : [ 724.0, 485.0, 74.0, 18.0 ],
					"numoutlets" : 0
				}

			}
, 			{
				"box" : 				{
					"maxclass" : "newobj",
					"text" : "receive~ mic_in",
					"outlettype" : [ "signal" ],
					"fontsize" : 12.0,
					"numinlets" : 1,
					"id" : "obj-146",
					"fontname" : "Arial",
					"patching_rect" : [ 846.0, 440.0, 94.0, 20.0 ],
					"numoutlets" : 1
				}

			}
, 			{
				"box" : 				{
					"maxclass" : "newobj",
					"text" : "receive~ piezo_in",
					"outlettype" : [ "signal" ],
					"fontsize" : 12.0,
					"numinlets" : 1,
					"id" : "obj-147",
					"fontname" : "Arial",
					"patching_rect" : [ 724.0, 441.0, 104.0, 20.0 ],
					"numoutlets" : 1
				}

			}
, 			{
				"box" : 				{
					"maxclass" : "message",
					"text" : "gain $1",
					"outlettype" : [ "" ],
					"fontsize" : 12.0,
					"numinlets" : 2,
					"id" : "obj-84",
					"fontname" : "Arial",
					"patching_rect" : [ 177.662003, 549.724976, 50.0, 18.0 ],
					"numoutlets" : 1
				}

			}
, 			{
				"box" : 				{
					"maxclass" : "newobj",
					"text" : "loadmess 127",
					"outlettype" : [ "" ],
					"fontsize" : 10.0,
					"numinlets" : 1,
					"id" : "obj-95",
					"fontname" : "Arial",
					"patching_rect" : [ 177.662003, 528.724976, 73.0, 18.0 ],
					"numoutlets" : 1
				}

			}
, 			{
				"box" : 				{
					"maxclass" : "message",
					"text" : "pan $1",
					"outlettype" : [ "" ],
					"fontsize" : 12.0,
					"numinlets" : 2,
					"id" : "obj-102",
					"fontname" : "Arial",
					"patching_rect" : [ 177.662003, 599.724976, 47.0, 18.0 ],
					"numoutlets" : 1
				}

			}
, 			{
				"box" : 				{
					"maxclass" : "newobj",
					"text" : "loadmess 45",
					"outlettype" : [ "" ],
					"fontsize" : 10.0,
					"numinlets" : 1,
					"id" : "obj-108",
					"fontname" : "Arial",
					"patching_rect" : [ 177.662003, 577.724976, 67.0, 18.0 ],
					"numoutlets" : 1
				}

			}
, 			{
				"box" : 				{
					"maxclass" : "message",
					"text" : "gain $1",
					"outlettype" : [ "" ],
					"fontsize" : 12.0,
					"numinlets" : 2,
					"id" : "obj-110",
					"fontname" : "Arial",
					"patching_rect" : [ 427.661987, 549.724976, 50.0, 18.0 ],
					"numoutlets" : 1
				}

			}
, 			{
				"box" : 				{
					"maxclass" : "newobj",
					"text" : "loadmess 127",
					"outlettype" : [ "" ],
					"fontsize" : 10.0,
					"numinlets" : 1,
					"id" : "obj-120",
					"fontname" : "Arial",
					"patching_rect" : [ 427.661987, 528.724976, 73.0, 18.0 ],
					"numoutlets" : 1
				}

			}
, 			{
				"box" : 				{
					"maxclass" : "message",
					"text" : "pan $1",
					"outlettype" : [ "" ],
					"fontsize" : 12.0,
					"numinlets" : 2,
					"id" : "obj-127",
					"fontname" : "Arial",
					"patching_rect" : [ 427.661987, 599.724976, 47.0, 18.0 ],
					"numoutlets" : 1
				}

			}
, 			{
				"box" : 				{
					"maxclass" : "newobj",
					"text" : "loadmess 90",
					"outlettype" : [ "" ],
					"fontsize" : 10.0,
					"numinlets" : 1,
					"id" : "obj-128",
					"fontname" : "Arial",
					"patching_rect" : [ 427.661987, 576.724976, 67.0, 18.0 ],
					"numoutlets" : 1
				}

			}
, 			{
				"box" : 				{
					"maxclass" : "newobj",
					"text" : "receive~ audio_out_sp2",
					"outlettype" : [ "signal" ],
					"fontsize" : 10.0,
					"numinlets" : 1,
					"id" : "obj-129",
					"fontname" : "Arial",
					"patching_rect" : [ 297.661987, 499.725006, 117.0, 18.0 ],
					"numoutlets" : 1
				}

			}
, 			{
				"box" : 				{
					"maxclass" : "bpatcher",
					"name" : "audio_gain_pan.maxpat",
					"outlettype" : [ "signal", "signal" ],
					"presentation_rect" : [ 180.0, 94.0, 122.0, 82.0 ],
					"numinlets" : 2,
					"id" : "obj-138",
					"patching_rect" : [ 298.661987, 533.724976, 122.0, 82.0 ],
					"numoutlets" : 2,
					"presentation" : 1,
					"args" : [  ]
				}

			}
, 			{
				"box" : 				{
					"maxclass" : "newobj",
					"text" : "dac~ 3 4",
					"fontsize" : 12.0,
					"numinlets" : 2,
					"id" : "obj-139",
					"fontname" : "Arial",
					"patching_rect" : [ 42.661999, 690.724976, 57.0, 20.0 ],
					"numoutlets" : 0
				}

			}
, 			{
				"box" : 				{
					"maxclass" : "newobj",
					"text" : "receive~ audio_out_sp1",
					"outlettype" : [ "signal" ],
					"fontsize" : 10.0,
					"numinlets" : 1,
					"id" : "obj-140",
					"fontname" : "Arial",
					"patching_rect" : [ 42.661999, 499.725006, 117.0, 18.0 ],
					"numoutlets" : 1
				}

			}
, 			{
				"box" : 				{
					"maxclass" : "bpatcher",
					"name" : "audio_gain_pan.maxpat",
					"outlettype" : [ "signal", "signal" ],
					"presentation_rect" : [ 30.0, 94.0, 122.0, 82.0 ],
					"numinlets" : 2,
					"id" : "obj-142",
					"patching_rect" : [ 43.661999, 533.724976, 122.0, 82.0 ],
					"numoutlets" : 2,
					"presentation" : 1,
					"args" : [  ]
				}

			}
, 			{
				"box" : 				{
					"maxclass" : "newobj",
					"text" : "r o_sp2",
					"outlettype" : [ "" ],
					"fontsize" : 10.0,
					"numinlets" : 0,
					"id" : "obj-24",
					"fontname" : "Arial",
					"patching_rect" : [ 309.248688, 123.0, 44.0, 18.0 ],
					"numoutlets" : 1
				}

			}
, 			{
				"box" : 				{
					"maxclass" : "newobj",
					"text" : "receive~ ar_sp2",
					"outlettype" : [ "signal" ],
					"fontsize" : 10.0,
					"numinlets" : 1,
					"id" : "obj-26",
					"fontname" : "Arial",
					"patching_rect" : [ 336.248688, 168.0, 82.0, 18.0 ],
					"numoutlets" : 1
				}

			}
, 			{
				"box" : 				{
					"maxclass" : "newobj",
					"text" : "receive~ ad_sp2",
					"outlettype" : [ "signal" ],
					"fontsize" : 10.0,
					"numinlets" : 1,
					"id" : "obj-32",
					"fontname" : "Arial",
					"patching_rect" : [ 323.248688, 146.0, 84.0, 18.0 ],
					"numoutlets" : 1
				}

			}
, 			{
				"box" : 				{
					"maxclass" : "button",
					"outlettype" : [ "bang" ],
					"bgcolor" : [ 0.913725, 0.913725, 0.913725, 0.0 ],
					"numinlets" : 1,
					"blinkcolor" : [ 1.0, 0.862745, 0.439216, 1.0 ],
					"id" : "obj-34",
					"patching_rect" : [ 396.248688, 223.0, 17.0, 17.0 ],
					"numoutlets" : 1
				}

			}
, 			{
				"box" : 				{
					"maxclass" : "newobj",
					"text" : "r p_sp2",
					"outlettype" : [ "" ],
					"fontsize" : 10.0,
					"numinlets" : 0,
					"id" : "obj-37",
					"fontname" : "Arial",
					"patching_rect" : [ 296.248688, 101.0, 44.0, 18.0 ],
					"numoutlets" : 1
				}

			}
, 			{
				"box" : 				{
					"maxclass" : "newobj",
					"text" : "r h_sp2",
					"outlettype" : [ "" ],
					"fontsize" : 10.0,
					"numinlets" : 0,
					"id" : "obj-40",
					"fontname" : "Arial",
					"patching_rect" : [ 282.248688, 80.0, 44.0, 18.0 ],
					"numoutlets" : 1
				}

			}
, 			{
				"box" : 				{
					"maxclass" : "newobj",
					"text" : "r m_sp2",
					"outlettype" : [ "" ],
					"fontsize" : 10.0,
					"numinlets" : 0,
					"id" : "obj-43",
					"fontname" : "Arial",
					"patching_rect" : [ 269.248688, 60.0, 47.0, 18.0 ],
					"numoutlets" : 1
				}

			}
, 			{
				"box" : 				{
					"maxclass" : "newobj",
					"text" : "r in_sp2",
					"outlettype" : [ "" ],
					"fontsize" : 10.0,
					"numinlets" : 0,
					"id" : "obj-47",
					"fontname" : "Arial",
					"patching_rect" : [ 255.248703, 40.0, 46.0, 18.0 ],
					"numoutlets" : 1
				}

			}
, 			{
				"box" : 				{
					"maxclass" : "newobj",
					"text" : "s pulse_sp2",
					"fontsize" : 10.0,
					"numinlets" : 1,
					"id" : "obj-49",
					"fontname" : "Arial",
					"patching_rect" : [ 336.248688, 222.0, 64.0, 18.0 ],
					"numoutlets" : 0
				}

			}
, 			{
				"box" : 				{
					"maxclass" : "newobj",
					"text" : "s hctxt_sp2",
					"fontsize" : 10.0,
					"numinlets" : 1,
					"id" : "obj-50",
					"fontname" : "Arial",
					"patching_rect" : [ 309.248688, 243.0, 61.0, 18.0 ],
					"numoutlets" : 0
				}

			}
, 			{
				"box" : 				{
					"maxclass" : "newobj",
					"text" : "send~ audio_out_sp2",
					"fontsize" : 10.0,
					"numinlets" : 1,
					"id" : "obj-53",
					"fontname" : "Arial",
					"patching_rect" : [ 282.248688, 264.0, 106.0, 18.0 ],
					"numoutlets" : 0
				}

			}
, 			{
				"box" : 				{
					"maxclass" : "newobj",
					"text" : "s midi_out_sp2",
					"fontsize" : 10.0,
					"numinlets" : 1,
					"id" : "obj-54",
					"fontname" : "Arial",
					"patching_rect" : [ 255.248703, 285.0, 78.0, 18.0 ],
					"numoutlets" : 0
				}

			}
, 			{
				"box" : 				{
					"maxclass" : "newobj",
					"varname" : "player_2",
					"text" : "soma player_2",
					"outlettype" : [ "", "signal", "", "" ],
					"fontsize" : 12.0,
					"color" : [ 0.599985, 0.649348, 1.0, 1.0 ],
					"presentation_rect" : [ 190.0, 74.0, 100.0, 20.0 ],
					"numinlets" : 7,
					"id" : "obj-59",
					"fontname" : "Arial",
					"patching_rect" : [ 255.248703, 197.0, 100.0, 20.0 ],
					"numoutlets" : 4,
					"presentation" : 1
				}

			}
, 			{
				"box" : 				{
					"maxclass" : "newobj",
					"text" : "s in_sp1",
					"fontsize" : 10.0,
					"numinlets" : 1,
					"id" : "obj-124",
					"fontname" : "Arial",
					"patching_rect" : [ 911.558228, 934.635681, 48.0, 18.0 ],
					"numoutlets" : 0
				}

			}
, 			{
				"box" : 				{
					"maxclass" : "comment",
					"text" : "send melodic influence\n",
					"linecount" : 2,
					"fontsize" : 12.0,
					"numinlets" : 1,
					"id" : "obj-107",
					"fontname" : "Arial",
					"patching_rect" : [ 36.0271, 811.31189, 83.0, 34.0 ],
					"numoutlets" : 0
				}

			}
, 			{
				"box" : 				{
					"maxclass" : "newobj",
					"text" : "loadmess 1",
					"outlettype" : [ "" ],
					"fontsize" : 10.0,
					"numinlets" : 1,
					"id" : "obj-111",
					"fontname" : "Arial",
					"patching_rect" : [ 36.0271, 847.31189, 62.0, 18.0 ],
					"numoutlets" : 1
				}

			}
, 			{
				"box" : 				{
					"maxclass" : "toggle",
					"outlettype" : [ "int" ],
					"numinlets" : 1,
					"id" : "obj-112",
					"patching_rect" : [ 102.0271, 845.31189, 20.0, 20.0 ],
					"numoutlets" : 1
				}

			}
, 			{
				"box" : 				{
					"maxclass" : "newobj",
					"text" : "gate",
					"outlettype" : [ "" ],
					"fontsize" : 12.0,
					"numinlets" : 2,
					"id" : "obj-113",
					"fontname" : "Arial",
					"patching_rect" : [ 102.0271, 871.31189, 34.0, 20.0 ],
					"numoutlets" : 1
				}

			}
, 			{
				"box" : 				{
					"maxclass" : "newobj",
					"text" : "r pitch_in",
					"outlettype" : [ "" ],
					"fontsize" : 12.0,
					"numinlets" : 0,
					"id" : "obj-116",
					"fontname" : "Arial",
					"patching_rect" : [ 116.927124, 810.111938, 59.0, 20.0 ],
					"numoutlets" : 1
				}

			}
, 			{
				"box" : 				{
					"maxclass" : "newobj",
					"text" : "s m_sp1",
					"fontsize" : 10.0,
					"numinlets" : 1,
					"id" : "obj-117",
					"fontname" : "Arial",
					"patching_rect" : [ 101.848145, 918.588623, 48.0, 18.0 ],
					"numoutlets" : 0
				}

			}
, 			{
				"box" : 				{
					"maxclass" : "newobj",
					"text" : "r o_sp1",
					"outlettype" : [ "" ],
					"fontsize" : 10.0,
					"numinlets" : 0,
					"id" : "obj-66",
					"fontname" : "Arial",
					"patching_rect" : [ 128.0, 118.0, 44.0, 18.0 ],
					"numoutlets" : 1
				}

			}
, 			{
				"box" : 				{
					"maxclass" : "message",
					"text" : "listeningWeights 1. 5. 0",
					"outlettype" : [ "" ],
					"fontsize" : 12.0,
					"numinlets" : 2,
					"id" : "obj-5",
					"fontname" : "Arial",
					"patching_rect" : [ 344.760498, 885.032166, 134.0, 18.0 ],
					"numoutlets" : 1
				}

			}
, 			{
				"box" : 				{
					"maxclass" : "newobj",
					"text" : "del 1000",
					"outlettype" : [ "bang" ],
					"fontsize" : 12.0,
					"numinlets" : 2,
					"id" : "obj-11",
					"fontname" : "Arial",
					"patching_rect" : [ 377.760498, 849.032166, 57.0, 20.0 ],
					"numoutlets" : 1
				}

			}
, 			{
				"box" : 				{
					"maxclass" : "newobj",
					"text" : "loadbang",
					"outlettype" : [ "bang" ],
					"fontsize" : 10.0,
					"numinlets" : 1,
					"id" : "obj-4",
					"fontname" : "Arial",
					"patching_rect" : [ 377.760498, 805.032166, 52.0, 18.0 ],
					"numoutlets" : 1
				}

			}
, 			{
				"box" : 				{
					"maxclass" : "newobj",
					"text" : "s in_sp1",
					"fontsize" : 10.0,
					"numinlets" : 1,
					"id" : "obj-3",
					"fontname" : "Arial",
					"patching_rect" : [ 344.760498, 985.832153, 48.0, 18.0 ],
					"numoutlets" : 0
				}

			}
, 			{
				"box" : 				{
					"maxclass" : "newobj",
					"text" : "r hCst",
					"outlettype" : [ "" ],
					"fontsize" : 12.0,
					"numinlets" : 0,
					"id" : "obj-170",
					"fontname" : "Arial",
					"patching_rect" : [ 997.0, 358.000031, 43.0, 20.0 ],
					"numoutlets" : 1
				}

			}
, 			{
				"box" : 				{
					"maxclass" : "newobj",
					"text" : "s hctxt_ap1",
					"fontsize" : 10.0,
					"numinlets" : 1,
					"id" : "obj-169",
					"fontname" : "Arial",
					"patching_rect" : [ 997.0, 381.743011, 62.0, 18.0 ],
					"numoutlets" : 0
				}

			}
, 			{
				"box" : 				{
					"maxclass" : "newobj",
					"text" : "receive~ ar_sp1",
					"outlettype" : [ "signal" ],
					"fontsize" : 10.0,
					"numinlets" : 1,
					"id" : "obj-30",
					"fontname" : "Arial",
					"patching_rect" : [ 152.0, 162.0, 82.0, 18.0 ],
					"numoutlets" : 1
				}

			}
, 			{
				"box" : 				{
					"maxclass" : "newobj",
					"text" : "receive~ ad_sp1",
					"outlettype" : [ "signal" ],
					"fontsize" : 10.0,
					"numinlets" : 1,
					"id" : "obj-29",
					"fontname" : "Arial",
					"patching_rect" : [ 138.0, 140.0, 84.0, 18.0 ],
					"numoutlets" : 1
				}

			}
, 			{
				"box" : 				{
					"maxclass" : "newobj",
					"text" : "receive~ piezo_in",
					"outlettype" : [ "signal" ],
					"fontsize" : 12.0,
					"numinlets" : 1,
					"id" : "obj-237",
					"fontname" : "Arial",
					"patching_rect" : [ 997.0, 95.0, 104.0, 20.0 ],
					"numoutlets" : 1
				}

			}
, 			{
				"box" : 				{
					"maxclass" : "comment",
					"text" : "mic",
					"fontsize" : 12.0,
					"presentation_rect" : [ 522.0, 13.0, 29.0, 20.0 ],
					"numinlets" : 1,
					"id" : "obj-236",
					"fontname" : "Arial",
					"patching_rect" : [ 926.0, 75.0, 29.0, 20.0 ],
					"numoutlets" : 0,
					"presentation" : 1
				}

			}
, 			{
				"box" : 				{
					"maxclass" : "comment",
					"text" : "piezo",
					"fontsize" : 12.0,
					"presentation_rect" : [ 422.0, 13.0, 39.0, 20.0 ],
					"numinlets" : 1,
					"id" : "obj-235",
					"fontname" : "Arial",
					"patching_rect" : [ 771.0, 75.0, 39.0, 20.0 ],
					"numoutlets" : 0,
					"presentation" : 1
				}

			}
, 			{
				"box" : 				{
					"maxclass" : "meter~",
					"outlettype" : [ "float" ],
					"bgcolor" : [ 0.87451, 0.87451, 0.87451, 1.0 ],
					"presentation_rect" : [ 522.0, 32.0, 61.0, 12.0 ],
					"numinlets" : 1,
					"id" : "obj-233",
					"patching_rect" : [ 926.0, 59.0, 80.0, 13.0 ],
					"numoutlets" : 1,
					"presentation" : 1
				}

			}
, 			{
				"box" : 				{
					"maxclass" : "newobj",
					"text" : "receive~ mic_in",
					"outlettype" : [ "signal" ],
					"fontsize" : 12.0,
					"numinlets" : 1,
					"id" : "obj-232",
					"fontname" : "Arial",
					"patching_rect" : [ 926.0, 34.0, 94.0, 20.0 ],
					"numoutlets" : 1
				}

			}
, 			{
				"box" : 				{
					"maxclass" : "newobj",
					"text" : "receive~ piezo_in",
					"outlettype" : [ "signal" ],
					"fontsize" : 12.0,
					"numinlets" : 1,
					"id" : "obj-213",
					"fontname" : "Arial",
					"patching_rect" : [ 771.0, 34.0, 104.0, 20.0 ],
					"numoutlets" : 1
				}

			}
, 			{
				"box" : 				{
					"maxclass" : "meter~",
					"outlettype" : [ "float" ],
					"bgcolor" : [ 0.87451, 0.87451, 0.87451, 1.0 ],
					"presentation_rect" : [ 422.0, 32.0, 61.0, 12.0 ],
					"numinlets" : 1,
					"id" : "obj-210",
					"patching_rect" : [ 771.0, 59.0, 80.0, 13.0 ],
					"numoutlets" : 1,
					"presentation" : 1
				}

			}
, 			{
				"box" : 				{
					"maxclass" : "newobj",
					"text" : "receive~ piezo_in",
					"outlettype" : [ "signal" ],
					"fontsize" : 12.0,
					"numinlets" : 1,
					"id" : "obj-209",
					"fontname" : "Arial",
					"patching_rect" : [ 502.0, 119.0, 104.0, 20.0 ],
					"numoutlets" : 1
				}

			}
, 			{
				"box" : 				{
					"maxclass" : "newobj",
					"text" : "send~ mic_in",
					"fontsize" : 12.0,
					"numinlets" : 1,
					"id" : "obj-196",
					"fontname" : "Arial",
					"patching_rect" : [ 647.0, 82.0, 82.0, 20.0 ],
					"numoutlets" : 0
				}

			}
, 			{
				"box" : 				{
					"maxclass" : "newobj",
					"text" : "adc~ 14",
					"outlettype" : [ "signal" ],
					"fontsize" : 12.0,
					"numinlets" : 1,
					"id" : "obj-204",
					"fontname" : "Arial",
					"patching_rect" : [ 498.0, 45.0, 55.0, 20.0 ],
					"numoutlets" : 1
				}

			}
, 			{
				"box" : 				{
					"maxclass" : "newobj",
					"text" : "send~ piezo_in",
					"fontsize" : 12.0,
					"numinlets" : 1,
					"id" : "obj-193",
					"fontname" : "Arial",
					"patching_rect" : [ 498.0, 82.0, 92.0, 20.0 ],
					"numoutlets" : 0
				}

			}
, 			{
				"box" : 				{
					"maxclass" : "newobj",
					"text" : "adc~ 13",
					"outlettype" : [ "signal" ],
					"fontsize" : 12.0,
					"numinlets" : 1,
					"id" : "obj-44",
					"fontname" : "Arial",
					"patching_rect" : [ 647.0, 45.0, 54.0, 20.0 ],
					"numoutlets" : 1
				}

			}
, 			{
				"box" : 				{
					"maxclass" : "slider",
					"outlettype" : [ "" ],
					"presentation_rect" : [ 735.0, 72.314682, 18.0, 65.0 ],
					"numinlets" : 1,
					"id" : "obj-387",
					"patching_rect" : [ 553.0, 280.000031, 21.0, 60.0 ],
					"numoutlets" : 1,
					"presentation" : 1
				}

			}
, 			{
				"box" : 				{
					"maxclass" : "newobj",
					"text" : "stripnote",
					"outlettype" : [ "int", "int" ],
					"fontsize" : 12.0,
					"numinlets" : 2,
					"id" : "obj-386",
					"fontname" : "Arial",
					"patching_rect" : [ 515.0, 255.000015, 57.0, 20.0 ],
					"numoutlets" : 2
				}

			}
, 			{
				"box" : 				{
					"maxclass" : "message",
					"text" : "-1",
					"outlettype" : [ "" ],
					"fontsize" : 12.0,
					"numinlets" : 2,
					"id" : "obj-530",
					"fontname" : "Arial",
					"patching_rect" : [ 1229.0, 314.000031, 32.5, 18.0 ],
					"numoutlets" : 1
				}

			}
, 			{
				"box" : 				{
					"maxclass" : "message",
					"text" : "0.7 0.15 0.15 1.",
					"outlettype" : [ "" ],
					"fontsize" : 12.0,
					"numinlets" : 2,
					"id" : "obj-63",
					"fontname" : "Arial",
					"patching_rect" : [ 688.0, 287.000031, 102.0, 18.0 ],
					"numoutlets" : 1
				}

			}
, 			{
				"box" : 				{
					"maxclass" : "newobj",
					"text" : "loadbang",
					"outlettype" : [ "bang" ],
					"fontsize" : 10.0,
					"numinlets" : 1,
					"id" : "obj-64",
					"fontname" : "Arial",
					"patching_rect" : [ 688.0, 266.000031, 52.0, 18.0 ],
					"numoutlets" : 1
				}

			}
, 			{
				"box" : 				{
					"maxclass" : "newobj",
					"text" : "r pitch_in",
					"outlettype" : [ "" ],
					"fontsize" : 12.0,
					"numinlets" : 0,
					"id" : "obj-67",
					"fontname" : "Arial",
					"patching_rect" : [ 597.0, 278.000031, 59.0, 20.0 ],
					"numoutlets" : 1
				}

			}
, 			{
				"box" : 				{
					"maxclass" : "message",
					"text" : "fgcolor $1 $2 $3 $4",
					"outlettype" : [ "" ],
					"fontsize" : 12.0,
					"numinlets" : 2,
					"id" : "obj-727",
					"fontname" : "Arial",
					"patching_rect" : [ 841.0, 308.000031, 111.0, 18.0 ],
					"numoutlets" : 1
				}

			}
, 			{
				"box" : 				{
					"maxclass" : "message",
					"text" : "hkeycolor $1 $2 $3 1.",
					"outlettype" : [ "" ],
					"fontsize" : 12.0,
					"numinlets" : 2,
					"id" : "obj-713",
					"fontname" : "Arial",
					"patching_rect" : [ 688.0, 312.000031, 125.0, 18.0 ],
					"numoutlets" : 1
				}

			}
, 			{
				"box" : 				{
					"maxclass" : "kslider",
					"hkeycolor" : [ 0.7, 0.15, 0.15, 1.0 ],
					"mode" : 1,
					"outlettype" : [ "int", "int" ],
					"whitekeycolor" : [ 1.0, 1.0, 1.0, 0.576471 ],
					"presentation_rect" : [ 420.0, 145.0, 342.0, 41.0 ],
					"offset" : 34,
					"range" : 64,
					"numinlets" : 2,
					"ignoreclick" : 1,
					"id" : "obj-717",
					"blackkeycolor" : [ 0.0, 0.0, 0.0, 0.698039 ],
					"patching_rect" : [ 596.666504, 346.000031, 266.0, 34.0 ],
					"numoutlets" : 2,
					"presentation" : 1
				}

			}
, 			{
				"box" : 				{
					"maxclass" : "button",
					"outlettype" : [ "bang" ],
					"bgcolor" : [ 1.0, 1.0, 1.0, 0.0 ],
					"outlinecolor" : [ 1.0, 1.0, 1.0, 0.0 ],
					"presentation_rect" : [ 563.554077, 181.108154, 10.0, 10.0 ],
					"numinlets" : 1,
					"ignoreclick" : 1,
					"blinkcolor" : [ 1.0, 1.0, 1.0, 1.0 ],
					"id" : "obj-720",
					"patching_rect" : [ 841.0, 326.000031, 16.0, 16.0 ],
					"fgcolor" : [ 0.7, 0.15, 0.15, 1.0 ],
					"numoutlets" : 1,
					"presentation" : 1
				}

			}
, 			{
				"box" : 				{
					"maxclass" : "newobj",
					"text" : "s pitch_in",
					"fontsize" : 12.0,
					"numinlets" : 1,
					"id" : "obj-85",
					"fontname" : "Arial",
					"patching_rect" : [ 502.0, 364.000031, 61.0, 20.0 ],
					"numoutlets" : 0
				}

			}
, 			{
				"box" : 				{
					"maxclass" : "bpatcher",
					"varname" : "Yin+",
					"name" : "OMax.yin+.maxpat",
					"outlettype" : [ "", "int", "int", "float" ],
					"presentation_rect" : [ 567.667175, 70.314682, 168.0, 69.0 ],
					"numinlets" : 2,
					"id" : "obj-172",
					"patching_rect" : [ 502.0, 181.314697, 220.0, 69.0 ],
					"numoutlets" : 4,
					"presentation" : 1,
					"args" : [  ]
				}

			}
, 			{
				"box" : 				{
					"maxclass" : "newobj",
					"text" : "s hCst",
					"fontsize" : 12.0,
					"numinlets" : 1,
					"id" : "obj-141",
					"fontname" : "Arial",
					"patching_rect" : [ 997.0, 331.000031, 45.0, 20.0 ],
					"numoutlets" : 0
				}

			}
, 			{
				"box" : 				{
					"maxclass" : "message",
					"text" : "0.7 0.15 0.15 1.",
					"outlettype" : [ "" ],
					"fontsize" : 12.0,
					"numinlets" : 2,
					"id" : "obj-151",
					"fontname" : "Arial",
					"patching_rect" : [ 1179.0, 166.0, 94.0, 18.0 ],
					"numoutlets" : 1
				}

			}
, 			{
				"box" : 				{
					"maxclass" : "newobj",
					"text" : "loadbang",
					"outlettype" : [ "bang" ],
					"fontsize" : 10.0,
					"numinlets" : 1,
					"id" : "obj-152",
					"fontname" : "Arial",
					"patching_rect" : [ 1179.0, 145.0, 52.0, 18.0 ],
					"numoutlets" : 1
				}

			}
, 			{
				"box" : 				{
					"maxclass" : "flonum",
					"outlettype" : [ "float", "bang" ],
					"fontsize" : 10.0,
					"triscale" : 0.5,
					"numinlets" : 1,
					"id" : "obj-157",
					"fontname" : "Arial",
					"patching_rect" : [ 1031.999878, 175.0, 45.0, 18.0 ],
					"numoutlets" : 2
				}

			}
, 			{
				"box" : 				{
					"maxclass" : "comment",
					"text" : "integration time (ms)",
					"fontsize" : 10.0,
					"numinlets" : 1,
					"id" : "obj-158",
					"fontname" : "Arial",
					"patching_rect" : [ 1034.999878, 155.0, 108.0, 18.0 ],
					"numoutlets" : 0
				}

			}
, 			{
				"box" : 				{
					"maxclass" : "newobj",
					"text" : "loadmess 1000",
					"outlettype" : [ "" ],
					"fontsize" : 10.0,
					"numinlets" : 1,
					"id" : "obj-159",
					"fontname" : "Arial",
					"patching_rect" : [ 1083.999878, 175.0, 78.0, 18.0 ],
					"numoutlets" : 1
				}

			}
, 			{
				"box" : 				{
					"maxclass" : "message",
					"text" : "slidercolor $1 $2 $3 $4",
					"outlettype" : [ "" ],
					"fontsize" : 12.0,
					"numinlets" : 2,
					"id" : "obj-164",
					"fontname" : "Arial",
					"patching_rect" : [ 1179.0, 196.0, 130.0, 18.0 ],
					"numoutlets" : 1
				}

			}
, 			{
				"box" : 				{
					"maxclass" : "multislider",
					"thickness" : 3,
					"outlettype" : [ "", "" ],
					"slidercolor" : [ 0.7, 0.15, 0.15, 1.0 ],
					"setminmax" : [ 0.0, 1.05 ],
					"presentation_rect" : [ 430.0, 57.0, 125.0, 79.0 ],
					"size" : 12,
					"numinlets" : 1,
					"id" : "obj-179",
					"patching_rect" : [ 997.0, 232.000031, 142.0, 85.0 ],
					"ghostbar" : 20,
					"numoutlets" : 2,
					"presentation" : 1
				}

			}
, 			{
				"box" : 				{
					"maxclass" : "newobj",
					"text" : "audio2chroma",
					"outlettype" : [ "" ],
					"fontsize" : 12.0,
					"numinlets" : 2,
					"id" : "obj-191",
					"fontname" : "Arial",
					"patching_rect" : [ 997.0, 199.0, 87.0, 20.0 ],
					"numoutlets" : 1
				}

			}
, 			{
				"box" : 				{
					"maxclass" : "comment",
					"text" : "remi",
					"fontface" : 1,
					"fontsize" : 12.0,
					"presentation_rect" : [ 646.0, 11.0, 36.0, 20.0 ],
					"numinlets" : 1,
					"id" : "obj-12",
					"fontname" : "Arial",
					"patching_rect" : [ 492.0, 12.0, 47.0, 20.0 ],
					"numoutlets" : 0,
					"presentation" : 1
				}

			}
, 			{
				"box" : 				{
					"maxclass" : "ezdac~",
					"bgcolor" : [ 1.0, 1.0, 1.0, 0.0 ],
					"ongradcolor1" : [ 0.901961, 0.2, 0.2, 1.0 ],
					"presentation_rect" : [ 13.0, 12.0, 45.0, 45.0 ],
					"ongradcolor2" : [ 0.74902, 0.14902, 0.14902, 1.0 ],
					"numinlets" : 2,
					"id" : "obj-7",
					"patching_rect" : [ 13.0, 38.0, 45.0, 45.0 ],
					"numoutlets" : 0,
					"presentation" : 1
				}

			}
, 			{
				"box" : 				{
					"maxclass" : "button",
					"outlettype" : [ "bang" ],
					"bgcolor" : [ 0.913725, 0.913725, 0.913725, 0.0 ],
					"numinlets" : 1,
					"blinkcolor" : [ 1.0, 0.862745, 0.439216, 1.0 ],
					"id" : "obj-192",
					"patching_rect" : [ 212.0, 219.0, 17.0, 17.0 ],
					"numoutlets" : 1
				}

			}
, 			{
				"box" : 				{
					"maxclass" : "newobj",
					"text" : "r p_sp1",
					"outlettype" : [ "" ],
					"fontsize" : 10.0,
					"numinlets" : 0,
					"id" : "obj-105",
					"fontname" : "Arial",
					"patching_rect" : [ 116.0, 97.0, 44.0, 18.0 ],
					"numoutlets" : 1
				}

			}
, 			{
				"box" : 				{
					"maxclass" : "newobj",
					"text" : "r h_sp1",
					"outlettype" : [ "" ],
					"fontsize" : 10.0,
					"numinlets" : 0,
					"id" : "obj-104",
					"fontname" : "Arial",
					"patching_rect" : [ 104.0, 76.0, 44.0, 18.0 ],
					"numoutlets" : 1
				}

			}
, 			{
				"box" : 				{
					"maxclass" : "newobj",
					"text" : "r m_sp1",
					"outlettype" : [ "" ],
					"fontsize" : 10.0,
					"numinlets" : 0,
					"id" : "obj-103",
					"fontname" : "Arial",
					"patching_rect" : [ 93.0, 56.0, 47.0, 18.0 ],
					"numoutlets" : 1
				}

			}
, 			{
				"box" : 				{
					"maxclass" : "newobj",
					"text" : "r in_sp1",
					"outlettype" : [ "" ],
					"fontsize" : 10.0,
					"numinlets" : 0,
					"id" : "obj-101",
					"fontname" : "Arial",
					"patching_rect" : [ 81.0, 36.0, 46.0, 18.0 ],
					"numoutlets" : 1
				}

			}
, 			{
				"box" : 				{
					"maxclass" : "comment",
					"text" : "output",
					"fontface" : 1,
					"fontsize" : 12.0,
					"numinlets" : 1,
					"id" : "obj-41",
					"fontname" : "Arial",
					"patching_rect" : [ 20.036919, 435.599609, 52.0, 20.0 ],
					"numoutlets" : 0
				}

			}
, 			{
				"box" : 				{
					"maxclass" : "newobj",
					"text" : "s pulse_sp1",
					"fontsize" : 10.0,
					"numinlets" : 1,
					"id" : "obj-15",
					"fontname" : "Arial",
					"patching_rect" : [ 151.0, 218.0, 64.0, 18.0 ],
					"numoutlets" : 0
				}

			}
, 			{
				"box" : 				{
					"maxclass" : "newobj",
					"text" : "s hctxt_sp1",
					"fontsize" : 10.0,
					"numinlets" : 1,
					"id" : "obj-10",
					"fontname" : "Arial",
					"patching_rect" : [ 127.999992, 239.0, 61.0, 18.0 ],
					"numoutlets" : 0
				}

			}
, 			{
				"box" : 				{
					"maxclass" : "newobj",
					"text" : "send~ audio_out_sp1",
					"fontsize" : 10.0,
					"numinlets" : 1,
					"id" : "obj-8",
					"fontname" : "Arial",
					"patching_rect" : [ 103.0, 260.0, 106.0, 18.0 ],
					"numoutlets" : 0
				}

			}
, 			{
				"box" : 				{
					"maxclass" : "comment",
					"text" : "color management\n",
					"fontface" : 1,
					"fontsize" : 12.0,
					"numinlets" : 1,
					"id" : "obj-19",
					"fontname" : "Arial",
					"patching_rect" : [ 10.0, 1570.0, 128.0, 20.0 ],
					"numoutlets" : 0
				}

			}
, 			{
				"box" : 				{
					"maxclass" : "newobj",
					"text" : "b 2",
					"outlettype" : [ "bang", "bang" ],
					"fontsize" : 12.0,
					"numinlets" : 1,
					"id" : "obj-114",
					"fontname" : "Arial",
					"patching_rect" : [ 180.0, 1600.0, 32.5, 20.0 ],
					"numoutlets" : 2
				}

			}
, 			{
				"box" : 				{
					"maxclass" : "message",
					"text" : "remove $1",
					"outlettype" : [ "" ],
					"fontsize" : 12.0,
					"numinlets" : 2,
					"id" : "obj-122",
					"fontname" : "Arial",
					"patching_rect" : [ 479.0, 1878.0, 67.0, 18.0 ],
					"numoutlets" : 1
				}

			}
, 			{
				"box" : 				{
					"maxclass" : "message",
					"text" : "dump",
					"outlettype" : [ "" ],
					"fontsize" : 12.0,
					"numinlets" : 2,
					"id" : "obj-109",
					"fontname" : "Arial",
					"patching_rect" : [ 180.0, 1631.0, 41.0, 18.0 ],
					"numoutlets" : 1
				}

			}
, 			{
				"box" : 				{
					"maxclass" : "newobj",
					"text" : "t s s",
					"outlettype" : [ "", "" ],
					"fontsize" : 12.0,
					"numinlets" : 1,
					"id" : "obj-97",
					"fontname" : "Arial",
					"patching_rect" : [ 479.0, 1745.0, 33.0, 20.0 ],
					"numoutlets" : 2
				}

			}
, 			{
				"box" : 				{
					"maxclass" : "newobj",
					"text" : "zl reg",
					"outlettype" : [ "", "" ],
					"fontsize" : 12.0,
					"numinlets" : 2,
					"id" : "obj-80",
					"fontname" : "Arial",
					"patching_rect" : [ 479.0, 1851.0, 40.0, 20.0 ],
					"numoutlets" : 2
				}

			}
, 			{
				"box" : 				{
					"maxclass" : "newobj",
					"text" : "sel 0",
					"outlettype" : [ "bang", "" ],
					"fontsize" : 12.0,
					"numinlets" : 2,
					"id" : "obj-78",
					"fontname" : "Arial",
					"patching_rect" : [ 479.0, 1826.0, 36.0, 20.0 ],
					"numoutlets" : 2
				}

			}
, 			{
				"box" : 				{
					"maxclass" : "newobj",
					"text" : "prepend doesObjectExist",
					"outlettype" : [ "" ],
					"fontsize" : 12.0,
					"numinlets" : 1,
					"id" : "obj-70",
					"fontname" : "Arial",
					"patching_rect" : [ 479.0, 1770.0, 145.0, 20.0 ],
					"numoutlets" : 1
				}

			}
, 			{
				"box" : 				{
					"maxclass" : "newobj",
					"text" : "route symbol",
					"outlettype" : [ "", "" ],
					"fontsize" : 12.0,
					"numinlets" : 1,
					"id" : "obj-52",
					"fontname" : "Arial",
					"patching_rect" : [ 479.0, 1717.0, 79.0, 20.0 ],
					"numoutlets" : 2
				}

			}
, 			{
				"box" : 				{
					"maxclass" : "message",
					"text" : "dump",
					"outlettype" : [ "" ],
					"fontsize" : 12.0,
					"numinlets" : 2,
					"id" : "obj-46",
					"fontname" : "Arial",
					"patching_rect" : [ 454.0, 1663.0, 41.0, 18.0 ],
					"numoutlets" : 1
				}

			}
, 			{
				"box" : 				{
					"maxclass" : "newobj",
					"text" : "js SOMax_misc_js",
					"outlettype" : [ "" ],
					"fontsize" : 12.0,
					"numinlets" : 1,
					"id" : "obj-31",
					"fontname" : "Arial",
					"patching_rect" : [ 479.0, 1799.0, 109.0, 20.0 ],
					"numoutlets" : 1
				}

			}
, 			{
				"box" : 				{
					"maxclass" : "newobj",
					"text" : "coll playerColor",
					"outlettype" : [ "", "", "", "" ],
					"fontsize" : 12.0,
					"numinlets" : 1,
					"id" : "obj-20",
					"fontname" : "Arial",
					"patching_rect" : [ 454.0, 1692.0, 93.0, 20.0 ],
					"numoutlets" : 4,
					"coll_data" : 					{
						"count" : 2,
						"data" : [ 							{
								"key" : "player_1",
								"value" : [ 0.7, 0.15, 0.15, 1.0 ]
							}
, 							{
								"key" : "player_2",
								"value" : [ 0.599985, 0.649348, 1.0, 1.0 ]
							}
 ]
					}
,
					"saved_object_attributes" : 					{
						"embed" : 1
					}

				}

			}
, 			{
				"box" : 				{
					"maxclass" : "newobj",
					"text" : "prepend in0",
					"outlettype" : [ "" ],
					"fontsize" : 12.0,
					"numinlets" : 1,
					"id" : "obj-73",
					"fontname" : "Arial",
					"patching_rect" : [ 196.0, 1801.0, 74.0, 20.0 ],
					"numoutlets" : 1
				}

			}
, 			{
				"box" : 				{
					"maxclass" : "message",
					"text" : "color $2 $3 $4 $5",
					"outlettype" : [ "" ],
					"fontsize" : 12.0,
					"numinlets" : 2,
					"id" : "obj-68",
					"fontname" : "Arial",
					"patching_rect" : [ 196.0, 1778.0, 103.0, 18.0 ],
					"numoutlets" : 1
				}

			}
, 			{
				"box" : 				{
					"maxclass" : "newobj",
					"text" : "pattrforward",
					"outlettype" : [ "" ],
					"fontsize" : 12.0,
					"numinlets" : 1,
					"id" : "obj-21",
					"fontname" : "Arial",
					"patching_rect" : [ 196.0, 1829.0, 75.0, 20.0 ],
					"numoutlets" : 1
				}

			}
, 			{
				"box" : 				{
					"maxclass" : "newobj",
					"text" : "loadbang",
					"outlettype" : [ "bang" ],
					"fontsize" : 12.0,
					"numinlets" : 1,
					"id" : "obj-91",
					"fontname" : "Arial",
					"patching_rect" : [ 180.0, 1575.0, 60.0, 20.0 ],
					"numoutlets" : 1
				}

			}
, 			{
				"box" : 				{
					"maxclass" : "message",
					"text" : "set $1",
					"outlettype" : [ "" ],
					"fontsize" : 12.0,
					"numinlets" : 2,
					"id" : "obj-83",
					"fontname" : "Arial",
					"patching_rect" : [ 205.0, 1718.0, 43.0, 18.0 ],
					"numoutlets" : 1
				}

			}
, 			{
				"box" : 				{
					"maxclass" : "newobj",
					"text" : "route symbol",
					"outlettype" : [ "", "" ],
					"fontsize" : 12.0,
					"numinlets" : 1,
					"id" : "obj-79",
					"fontname" : "Arial",
					"patching_rect" : [ 205.0, 1695.0, 79.0, 20.0 ],
					"numoutlets" : 2
				}

			}
, 			{
				"box" : 				{
					"maxclass" : "newobj",
					"text" : "prepend",
					"outlettype" : [ "" ],
					"fontsize" : 12.0,
					"numinlets" : 1,
					"id" : "obj-48",
					"fontname" : "Arial",
					"patching_rect" : [ 180.0, 1743.0, 55.0, 20.0 ],
					"numoutlets" : 1
				}

			}
, 			{
				"box" : 				{
					"maxclass" : "message",
					"text" : "script sendbox $1 bordercolor $2 $3 $4 $5",
					"outlettype" : [ "" ],
					"fontsize" : 12.0,
					"numinlets" : 2,
					"id" : "obj-77",
					"fontname" : "Arial",
					"patching_rect" : [ 180.0, 1861.0, 235.0, 18.0 ],
					"numoutlets" : 1
				}

			}
, 			{
				"box" : 				{
					"maxclass" : "newobj",
					"varname" : "playerColor",
					"text" : "coll playerColor",
					"outlettype" : [ "", "", "", "" ],
					"fontsize" : 12.0,
					"numinlets" : 1,
					"id" : "obj-39",
					"fontname" : "Arial",
					"patching_rect" : [ 180.0, 1653.0, 93.0, 20.0 ],
					"numoutlets" : 4,
					"coll_data" : 					{
						"count" : 2,
						"data" : [ 							{
								"key" : "player_1",
								"value" : [ 0.7, 0.15, 0.15, 1.0 ]
							}
, 							{
								"key" : "player_2",
								"value" : [ 0.599985, 0.649348, 1.0, 1.0 ]
							}
 ]
					}
,
					"saved_object_attributes" : 					{
						"embed" : 1
					}

				}

			}
, 			{
				"box" : 				{
					"maxclass" : "newobj",
					"text" : "prepend store",
					"outlettype" : [ "" ],
					"fontsize" : 12.0,
					"numinlets" : 1,
					"id" : "obj-55",
					"fontname" : "Arial",
					"patching_rect" : [ 65.0, 1852.0, 85.0, 20.0 ],
					"numoutlets" : 1
				}

			}
, 			{
				"box" : 				{
					"maxclass" : "newobj",
					"text" : "coll playerColor",
					"outlettype" : [ "", "", "", "" ],
					"fontsize" : 12.0,
					"numinlets" : 1,
					"id" : "obj-38",
					"fontname" : "Arial",
					"patching_rect" : [ 65.0, 1881.0, 93.0, 20.0 ],
					"numoutlets" : 4,
					"coll_data" : 					{
						"count" : 2,
						"data" : [ 							{
								"key" : "player_1",
								"value" : [ 0.7, 0.15, 0.15, 1.0 ]
							}
, 							{
								"key" : "player_2",
								"value" : [ 0.599985, 0.649348, 1.0, 1.0 ]
							}
 ]
					}
,
					"saved_object_attributes" : 					{
						"embed" : 1
					}

				}

			}
, 			{
				"box" : 				{
					"maxclass" : "newobj",
					"text" : "route color",
					"outlettype" : [ "", "" ],
					"fontsize" : 12.0,
					"numinlets" : 1,
					"id" : "obj-35",
					"fontname" : "Arial",
					"patching_rect" : [ 65.0, 1807.0, 67.0, 20.0 ],
					"numoutlets" : 2
				}

			}
, 			{
				"box" : 				{
					"maxclass" : "newobj",
					"text" : "r extraInfo",
					"outlettype" : [ "" ],
					"fontsize" : 12.0,
					"numinlets" : 0,
					"id" : "obj-22",
					"fontname" : "Arial",
					"patching_rect" : [ 65.0, 1774.0, 65.0, 20.0 ],
					"numoutlets" : 1
				}

			}
, 			{
				"box" : 				{
					"maxclass" : "newobj",
					"varname" : "poum",
					"text" : "thispatcher",
					"outlettype" : [ "", "" ],
					"fontsize" : 12.0,
					"numinlets" : 1,
					"id" : "obj-57",
					"fontname" : "Arial",
					"patching_rect" : [ 180.0, 1887.0, 69.0, 20.0 ],
					"numoutlets" : 2,
					"save" : [ "#N", "thispatcher", ";", "#Q", "end", ";" ]
				}

			}
, 			{
				"box" : 				{
					"maxclass" : "message",
					"text" : "send $1",
					"outlettype" : [ "" ],
					"fontsize" : 12.0,
					"numinlets" : 2,
					"id" : "obj-58",
					"fontname" : "Arial",
					"patching_rect" : [ 275.0, 1805.0, 51.0, 18.0 ],
					"numoutlets" : 1
				}

			}
, 			{
				"box" : 				{
					"maxclass" : "message",
					"text" : "clear",
					"outlettype" : [ "" ],
					"fontsize" : 12.0,
					"numinlets" : 2,
					"id" : "obj-6",
					"fontname" : "Arial",
					"patching_rect" : [ 22.0, 1855.0, 37.0, 18.0 ],
					"numoutlets" : 1
				}

			}
, 			{
				"box" : 				{
					"maxclass" : "message",
					"text" : "remove $1",
					"outlettype" : [ "" ],
					"fontsize" : 12.0,
					"numinlets" : 2,
					"id" : "obj-82",
					"fontname" : "Arial",
					"patching_rect" : [ 513.0, 1664.0, 65.0, 18.0 ],
					"numoutlets" : 1
				}

			}
, 			{
				"box" : 				{
					"maxclass" : "panel",
					"bgcolor" : [ 0.666667, 0.666667, 0.666667, 1.0 ],
					"numinlets" : 1,
					"bordercolor" : [ 0.0, 0.0, 0.0, 0.0 ],
					"id" : "obj-23",
					"patching_rect" : [ 10.0, 1570.0, 623.0, 345.0 ],
					"numoutlets" : 0
				}

			}
, 			{
				"box" : 				{
					"maxclass" : "newobj",
					"text" : "s midi_out_sp1",
					"fontsize" : 10.0,
					"numinlets" : 1,
					"id" : "obj-18",
					"fontname" : "Arial",
					"patching_rect" : [ 81.0, 281.0, 78.0, 18.0 ],
					"numoutlets" : 0
				}

			}
, 			{
				"box" : 				{
					"maxclass" : "comment",
					"text" : "agents",
					"fontface" : 1,
					"fontsize" : 12.0,
					"numinlets" : 1,
					"id" : "obj-17",
					"fontname" : "Arial",
					"patching_rect" : [ 11.0, 12.0, 47.0, 20.0 ],
					"numoutlets" : 0
				}

			}
, 			{
				"box" : 				{
					"maxclass" : "newobj",
					"varname" : "player_1",
					"text" : "soma player_1",
					"outlettype" : [ "", "signal", "", "" ],
					"fontsize" : 12.0,
					"color" : [ 0.7, 0.15, 0.15, 1.0 ],
					"presentation_rect" : [ 40.0, 74.0, 89.0, 20.0 ],
					"numinlets" : 7,
					"id" : "obj-1",
					"fontname" : "Arial",
					"patching_rect" : [ 81.0, 193.0, 89.0, 20.0 ],
					"numoutlets" : 4,
					"presentation" : 1
				}

			}
, 			{
				"box" : 				{
					"maxclass" : "panel",
					"bgcolor" : [ 0.8, 0.8, 0.8, 1.0 ],
					"background" : 1,
					"presentation_rect" : [ 10.0, 10.0, 391.0, 186.0 ],
					"numinlets" : 1,
					"id" : "obj-479",
					"patching_rect" : [ 10.0, 10.0, 428.35379, 305.0 ],
					"numoutlets" : 0,
					"presentation" : 1
				}

			}
, 			{
				"box" : 				{
					"maxclass" : "panel",
					"bgcolor" : [ 0.8, 0.8, 0.8, 1.0 ],
					"background" : 1,
					"presentation_rect" : [ 410.0, 10.0, 362.0, 188.0 ],
					"numinlets" : 1,
					"id" : "obj-13",
					"patching_rect" : [ 490.0, 9.0, 833.0, 405.0 ],
					"numoutlets" : 0,
					"presentation" : 1
				}

			}
, 			{
				"box" : 				{
					"maxclass" : "panel",
					"background" : 1,
					"numinlets" : 1,
					"id" : "obj-42",
					"patching_rect" : [ 20.036919, 435.599609, 675.619202, 308.179962 ],
					"numoutlets" : 0
				}

			}
 ],
		"lines" : [ 			{
				"patchline" : 				{
					"source" : [ "obj-204", 0 ],
					"destination" : [ "obj-193", 0 ],
					"hidden" : 0,
					"midpoints" : [  ]
				}

			}
, 			{
				"patchline" : 				{
					"source" : [ "obj-44", 0 ],
					"destination" : [ "obj-196", 0 ],
					"hidden" : 0,
					"midpoints" : [  ]
				}

			}
, 			{
				"patchline" : 				{
					"source" : [ "obj-92", 0 ],
					"destination" : [ "obj-93", 0 ],
					"hidden" : 0,
					"midpoints" : [  ]
				}

			}
, 			{
				"patchline" : 				{
					"source" : [ "obj-93", 0 ],
					"destination" : [ "obj-86", 0 ],
					"hidden" : 0,
					"midpoints" : [  ]
				}

			}
, 			{
				"patchline" : 				{
					"source" : [ "obj-92", 0 ],
					"destination" : [ "obj-89", 0 ],
					"hidden" : 0,
					"midpoints" : [  ]
				}

			}
, 			{
				"patchline" : 				{
					"source" : [ "obj-92", 0 ],
					"destination" : [ "obj-87", 0 ],
					"hidden" : 0,
					"midpoints" : [  ]
				}

			}
, 			{
				"patchline" : 				{
					"source" : [ "obj-92", 0 ],
					"destination" : [ "obj-88", 0 ],
					"hidden" : 0,
					"midpoints" : [  ]
				}

			}
, 			{
				"patchline" : 				{
					"source" : [ "obj-89", 0 ],
					"destination" : [ "obj-76", 0 ],
					"hidden" : 0,
					"midpoints" : [  ]
				}

			}
, 			{
				"patchline" : 				{
					"source" : [ "obj-89", 0 ],
					"destination" : [ "obj-86", 0 ],
					"hidden" : 0,
					"midpoints" : [  ]
				}

			}
, 			{
				"patchline" : 				{
					"source" : [ "obj-87", 0 ],
					"destination" : [ "obj-76", 0 ],
					"hidden" : 0,
					"midpoints" : [  ]
				}

			}
, 			{
				"patchline" : 				{
					"source" : [ "obj-87", 0 ],
					"destination" : [ "obj-86", 0 ],
					"hidden" : 0,
					"midpoints" : [  ]
				}

			}
, 			{
				"patchline" : 				{
					"source" : [ "obj-88", 0 ],
					"destination" : [ "obj-76", 0 ],
					"hidden" : 0,
					"midpoints" : [  ]
				}

			}
, 			{
				"patchline" : 				{
					"source" : [ "obj-62", 0 ],
					"destination" : [ "obj-75", 0 ],
					"hidden" : 0,
					"midpoints" : [  ]
				}

			}
, 			{
				"patchline" : 				{
					"source" : [ "obj-62", 0 ],
					"destination" : [ "obj-72", 0 ],
					"hidden" : 0,
					"midpoints" : [  ]
				}

			}
, 			{
				"patchline" : 				{
					"source" : [ "obj-71", 0 ],
					"destination" : [ "obj-75", 0 ],
					"hidden" : 0,
					"midpoints" : [  ]
				}

			}
, 			{
				"patchline" : 				{
					"source" : [ "obj-71", 0 ],
					"destination" : [ "obj-72", 0 ],
					"hidden" : 0,
					"midpoints" : [  ]
				}

			}
, 			{
				"patchline" : 				{
					"source" : [ "obj-60", 0 ],
					"destination" : [ "obj-75", 0 ],
					"hidden" : 0,
					"midpoints" : [  ]
				}

			}
, 			{
				"patchline" : 				{
					"source" : [ "obj-60", 0 ],
					"destination" : [ "obj-72", 0 ],
					"hidden" : 0,
					"midpoints" : [  ]
				}

			}
, 			{
				"patchline" : 				{
					"source" : [ "obj-56", 0 ],
					"destination" : [ "obj-62", 0 ],
					"hidden" : 0,
					"midpoints" : [  ]
				}

			}
, 			{
				"patchline" : 				{
					"source" : [ "obj-56", 0 ],
					"destination" : [ "obj-71", 0 ],
					"hidden" : 0,
					"midpoints" : [  ]
				}

			}
, 			{
				"patchline" : 				{
					"source" : [ "obj-56", 0 ],
					"destination" : [ "obj-60", 0 ],
					"hidden" : 0,
					"midpoints" : [  ]
				}

			}
, 			{
				"patchline" : 				{
					"source" : [ "obj-5", 0 ],
					"destination" : [ "obj-65", 0 ],
					"hidden" : 0,
					"midpoints" : [  ]
				}

			}
, 			{
				"patchline" : 				{
					"source" : [ "obj-11", 0 ],
					"destination" : [ "obj-69", 0 ],
					"hidden" : 0,
					"midpoints" : [  ]
				}

			}
, 			{
				"patchline" : 				{
					"source" : [ "obj-69", 0 ],
					"destination" : [ "obj-3", 0 ],
					"hidden" : 0,
					"midpoints" : [  ]
				}

			}
, 			{
				"patchline" : 				{
					"source" : [ "obj-69", 0 ],
					"destination" : [ "obj-65", 0 ],
					"hidden" : 0,
					"midpoints" : [  ]
				}

			}
, 			{
				"patchline" : 				{
					"source" : [ "obj-4", 0 ],
					"destination" : [ "obj-11", 0 ],
					"hidden" : 0,
					"midpoints" : [  ]
				}

			}
, 			{
				"patchline" : 				{
					"source" : [ "obj-51", 0 ],
					"destination" : [ "obj-65", 0 ],
					"hidden" : 0,
					"midpoints" : [  ]
				}

			}
, 			{
				"patchline" : 				{
					"source" : [ "obj-25", 0 ],
					"destination" : [ "obj-65", 0 ],
					"hidden" : 0,
					"midpoints" : [  ]
				}

			}
, 			{
				"patchline" : 				{
					"source" : [ "obj-25", 0 ],
					"destination" : [ "obj-3", 0 ],
					"hidden" : 0,
					"midpoints" : [  ]
				}

			}
, 			{
				"patchline" : 				{
					"source" : [ "obj-11", 0 ],
					"destination" : [ "obj-25", 0 ],
					"hidden" : 0,
					"midpoints" : [  ]
				}

			}
, 			{
				"patchline" : 				{
					"source" : [ "obj-51", 0 ],
					"destination" : [ "obj-3", 0 ],
					"hidden" : 0,
					"midpoints" : [  ]
				}

			}
, 			{
				"patchline" : 				{
					"source" : [ "obj-11", 0 ],
					"destination" : [ "obj-51", 0 ],
					"hidden" : 0,
					"midpoints" : [  ]
				}

			}
, 			{
				"patchline" : 				{
					"source" : [ "obj-128", 0 ],
					"destination" : [ "obj-127", 0 ],
					"hidden" : 0,
					"midpoints" : [  ]
				}

			}
, 			{
				"patchline" : 				{
					"source" : [ "obj-163", 0 ],
					"destination" : [ "obj-160", 0 ],
					"hidden" : 0,
					"midpoints" : [  ]
				}

			}
, 			{
				"patchline" : 				{
					"source" : [ "obj-160", 0 ],
					"destination" : [ "obj-110", 0 ],
					"hidden" : 0,
					"midpoints" : [  ]
				}

			}
, 			{
				"patchline" : 				{
					"source" : [ "obj-160", 0 ],
					"destination" : [ "obj-84", 0 ],
					"hidden" : 0,
					"midpoints" : [  ]
				}

			}
, 			{
				"patchline" : 				{
					"source" : [ "obj-147", 0 ],
					"destination" : [ "obj-145", 0 ],
					"hidden" : 0,
					"midpoints" : [  ]
				}

			}
, 			{
				"patchline" : 				{
					"source" : [ "obj-146", 0 ],
					"destination" : [ "obj-144", 0 ],
					"hidden" : 0,
					"midpoints" : [  ]
				}

			}
, 			{
				"patchline" : 				{
					"source" : [ "obj-108", 0 ],
					"destination" : [ "obj-102", 0 ],
					"hidden" : 0,
					"midpoints" : [  ]
				}

			}
, 			{
				"patchline" : 				{
					"source" : [ "obj-120", 0 ],
					"destination" : [ "obj-110", 0 ],
					"hidden" : 0,
					"midpoints" : [  ]
				}

			}
, 			{
				"patchline" : 				{
					"source" : [ "obj-84", 0 ],
					"destination" : [ "obj-142", 0 ],
					"hidden" : 0,
					"midpoints" : [  ]
				}

			}
, 			{
				"patchline" : 				{
					"source" : [ "obj-102", 0 ],
					"destination" : [ "obj-142", 0 ],
					"hidden" : 0,
					"midpoints" : [  ]
				}

			}
, 			{
				"patchline" : 				{
					"source" : [ "obj-127", 0 ],
					"destination" : [ "obj-138", 0 ],
					"hidden" : 0,
					"midpoints" : [  ]
				}

			}
, 			{
				"patchline" : 				{
					"source" : [ "obj-110", 0 ],
					"destination" : [ "obj-138", 0 ],
					"hidden" : 0,
					"midpoints" : [  ]
				}

			}
, 			{
				"patchline" : 				{
					"source" : [ "obj-129", 0 ],
					"destination" : [ "obj-138", 1 ],
					"hidden" : 0,
					"midpoints" : [  ]
				}

			}
, 			{
				"patchline" : 				{
					"source" : [ "obj-129", 0 ],
					"destination" : [ "obj-138", 0 ],
					"hidden" : 0,
					"midpoints" : [  ]
				}

			}
, 			{
				"patchline" : 				{
					"source" : [ "obj-140", 0 ],
					"destination" : [ "obj-142", 1 ],
					"hidden" : 0,
					"midpoints" : [  ]
				}

			}
, 			{
				"patchline" : 				{
					"source" : [ "obj-140", 0 ],
					"destination" : [ "obj-142", 0 ],
					"hidden" : 0,
					"midpoints" : [  ]
				}

			}
, 			{
				"patchline" : 				{
					"source" : [ "obj-95", 0 ],
					"destination" : [ "obj-84", 0 ],
					"hidden" : 0,
					"midpoints" : [  ]
				}

			}
, 			{
				"patchline" : 				{
					"source" : [ "obj-59", 0 ],
					"destination" : [ "obj-54", 0 ],
					"hidden" : 0,
					"midpoints" : [  ]
				}

			}
, 			{
				"patchline" : 				{
					"source" : [ "obj-59", 1 ],
					"destination" : [ "obj-53", 0 ],
					"hidden" : 0,
					"midpoints" : [  ]
				}

			}
, 			{
				"patchline" : 				{
					"source" : [ "obj-59", 2 ],
					"destination" : [ "obj-50", 0 ],
					"hidden" : 0,
					"midpoints" : [  ]
				}

			}
, 			{
				"patchline" : 				{
					"source" : [ "obj-59", 3 ],
					"destination" : [ "obj-49", 0 ],
					"hidden" : 0,
					"midpoints" : [  ]
				}

			}
, 			{
				"patchline" : 				{
					"source" : [ "obj-26", 0 ],
					"destination" : [ "obj-59", 6 ],
					"hidden" : 0,
					"midpoints" : [  ]
				}

			}
, 			{
				"patchline" : 				{
					"source" : [ "obj-32", 0 ],
					"destination" : [ "obj-59", 5 ],
					"hidden" : 0,
					"midpoints" : [  ]
				}

			}
, 			{
				"patchline" : 				{
					"source" : [ "obj-24", 0 ],
					"destination" : [ "obj-59", 4 ],
					"hidden" : 0,
					"midpoints" : [  ]
				}

			}
, 			{
				"patchline" : 				{
					"source" : [ "obj-37", 0 ],
					"destination" : [ "obj-59", 3 ],
					"hidden" : 0,
					"midpoints" : [  ]
				}

			}
, 			{
				"patchline" : 				{
					"source" : [ "obj-40", 0 ],
					"destination" : [ "obj-59", 2 ],
					"hidden" : 0,
					"midpoints" : [  ]
				}

			}
, 			{
				"patchline" : 				{
					"source" : [ "obj-43", 0 ],
					"destination" : [ "obj-59", 1 ],
					"hidden" : 0,
					"midpoints" : [  ]
				}

			}
, 			{
				"patchline" : 				{
					"source" : [ "obj-47", 0 ],
					"destination" : [ "obj-59", 0 ],
					"hidden" : 0,
					"midpoints" : [  ]
				}

			}
, 			{
				"patchline" : 				{
					"source" : [ "obj-59", 3 ],
					"destination" : [ "obj-34", 0 ],
					"hidden" : 0,
					"midpoints" : [  ]
				}

			}
, 			{
				"patchline" : 				{
					"source" : [ "obj-11", 0 ],
					"destination" : [ "obj-5", 0 ],
					"hidden" : 0,
					"midpoints" : [  ]
				}

			}
, 			{
				"patchline" : 				{
					"source" : [ "obj-5", 0 ],
					"destination" : [ "obj-3", 0 ],
					"hidden" : 0,
					"midpoints" : [  ]
				}

			}
, 			{
				"patchline" : 				{
					"source" : [ "obj-170", 0 ],
					"destination" : [ "obj-169", 0 ],
					"hidden" : 0,
					"midpoints" : [  ]
				}

			}
, 			{
				"patchline" : 				{
					"source" : [ "obj-237", 0 ],
					"destination" : [ "obj-191", 0 ],
					"hidden" : 0,
					"midpoints" : [  ]
				}

			}
, 			{
				"patchline" : 				{
					"source" : [ "obj-232", 0 ],
					"destination" : [ "obj-233", 0 ],
					"hidden" : 0,
					"midpoints" : [  ]
				}

			}
, 			{
				"patchline" : 				{
					"source" : [ "obj-213", 0 ],
					"destination" : [ "obj-210", 0 ],
					"hidden" : 0,
					"midpoints" : [  ]
				}

			}
, 			{
				"patchline" : 				{
					"source" : [ "obj-209", 0 ],
					"destination" : [ "obj-172", 0 ],
					"hidden" : 0,
					"midpoints" : [  ]
				}

			}
, 			{
				"patchline" : 				{
					"source" : [ "obj-172", 0 ],
					"destination" : [ "obj-85", 0 ],
					"hidden" : 0,
					"midpoints" : [  ]
				}

			}
, 			{
				"patchline" : 				{
					"source" : [ "obj-386", 1 ],
					"destination" : [ "obj-387", 0 ],
					"hidden" : 0,
					"midpoints" : [  ]
				}

			}
, 			{
				"patchline" : 				{
					"source" : [ "obj-530", 0 ],
					"destination" : [ "obj-141", 0 ],
					"hidden" : 0,
					"midpoints" : [  ]
				}

			}
, 			{
				"patchline" : 				{
					"source" : [ "obj-157", 0 ],
					"destination" : [ "obj-191", 1 ],
					"hidden" : 0,
					"midpoints" : [  ]
				}

			}
, 			{
				"patchline" : 				{
					"source" : [ "obj-191", 0 ],
					"destination" : [ "obj-179", 0 ],
					"hidden" : 0,
					"midpoints" : [  ]
				}

			}
, 			{
				"patchline" : 				{
					"source" : [ "obj-164", 0 ],
					"destination" : [ "obj-179", 0 ],
					"hidden" : 0,
					"midpoints" : [ 1188.5, 224.500031, 1006.5, 224.500031 ]
				}

			}
, 			{
				"patchline" : 				{
					"source" : [ "obj-159", 0 ],
					"destination" : [ "obj-157", 0 ],
					"hidden" : 0,
					"midpoints" : [  ]
				}

			}
, 			{
				"patchline" : 				{
					"source" : [ "obj-152", 0 ],
					"destination" : [ "obj-151", 0 ],
					"hidden" : 0,
					"midpoints" : [  ]
				}

			}
, 			{
				"patchline" : 				{
					"source" : [ "obj-151", 0 ],
					"destination" : [ "obj-164", 0 ],
					"hidden" : 0,
					"midpoints" : [  ]
				}

			}
, 			{
				"patchline" : 				{
					"source" : [ "obj-727", 0 ],
					"destination" : [ "obj-720", 0 ],
					"hidden" : 0,
					"midpoints" : [  ]
				}

			}
, 			{
				"patchline" : 				{
					"source" : [ "obj-713", 0 ],
					"destination" : [ "obj-717", 0 ],
					"hidden" : 0,
					"midpoints" : [  ]
				}

			}
, 			{
				"patchline" : 				{
					"source" : [ "obj-67", 0 ],
					"destination" : [ "obj-717", 0 ],
					"hidden" : 0,
					"midpoints" : [  ]
				}

			}
, 			{
				"patchline" : 				{
					"source" : [ "obj-64", 0 ],
					"destination" : [ "obj-63", 0 ],
					"hidden" : 0,
					"midpoints" : [  ]
				}

			}
, 			{
				"patchline" : 				{
					"source" : [ "obj-63", 0 ],
					"destination" : [ "obj-727", 0 ],
					"hidden" : 0,
					"midpoints" : [ 697.5, 307.000031, 850.5, 307.000031 ]
				}

			}
, 			{
				"patchline" : 				{
					"source" : [ "obj-63", 0 ],
					"destination" : [ "obj-713", 0 ],
					"hidden" : 0,
					"midpoints" : [  ]
				}

			}
, 			{
				"patchline" : 				{
					"source" : [ "obj-179", 0 ],
					"destination" : [ "obj-141", 0 ],
					"hidden" : 0,
					"midpoints" : [  ]
				}

			}
, 			{
				"patchline" : 				{
					"source" : [ "obj-172", 0 ],
					"destination" : [ "obj-386", 0 ],
					"hidden" : 0,
					"midpoints" : [  ]
				}

			}
, 			{
				"patchline" : 				{
					"source" : [ "obj-1", 3 ],
					"destination" : [ "obj-192", 0 ],
					"hidden" : 0,
					"midpoints" : [  ]
				}

			}
, 			{
				"patchline" : 				{
					"source" : [ "obj-105", 0 ],
					"destination" : [ "obj-1", 3 ],
					"hidden" : 0,
					"midpoints" : [  ]
				}

			}
, 			{
				"patchline" : 				{
					"source" : [ "obj-104", 0 ],
					"destination" : [ "obj-1", 2 ],
					"hidden" : 0,
					"midpoints" : [  ]
				}

			}
, 			{
				"patchline" : 				{
					"source" : [ "obj-103", 0 ],
					"destination" : [ "obj-1", 1 ],
					"hidden" : 0,
					"midpoints" : [  ]
				}

			}
, 			{
				"patchline" : 				{
					"source" : [ "obj-101", 0 ],
					"destination" : [ "obj-1", 0 ],
					"hidden" : 0,
					"midpoints" : [  ]
				}

			}
, 			{
				"patchline" : 				{
					"source" : [ "obj-1", 3 ],
					"destination" : [ "obj-15", 0 ],
					"hidden" : 0,
					"midpoints" : [  ]
				}

			}
, 			{
				"patchline" : 				{
					"source" : [ "obj-1", 0 ],
					"destination" : [ "obj-18", 0 ],
					"hidden" : 0,
					"midpoints" : [  ]
				}

			}
, 			{
				"patchline" : 				{
					"source" : [ "obj-114", 1 ],
					"destination" : [ "obj-46", 0 ],
					"hidden" : 0,
					"midpoints" : [  ]
				}

			}
, 			{
				"patchline" : 				{
					"source" : [ "obj-114", 0 ],
					"destination" : [ "obj-109", 0 ],
					"hidden" : 0,
					"midpoints" : [  ]
				}

			}
, 			{
				"patchline" : 				{
					"source" : [ "obj-91", 0 ],
					"destination" : [ "obj-114", 0 ],
					"hidden" : 0,
					"midpoints" : [  ]
				}

			}
, 			{
				"patchline" : 				{
					"source" : [ "obj-35", 0 ],
					"destination" : [ "obj-77", 0 ],
					"hidden" : 0,
					"midpoints" : [  ]
				}

			}
, 			{
				"patchline" : 				{
					"source" : [ "obj-48", 0 ],
					"destination" : [ "obj-58", 0 ],
					"hidden" : 0,
					"midpoints" : [  ]
				}

			}
, 			{
				"patchline" : 				{
					"source" : [ "obj-77", 0 ],
					"destination" : [ "obj-57", 0 ],
					"hidden" : 0,
					"midpoints" : [  ]
				}

			}
, 			{
				"patchline" : 				{
					"source" : [ "obj-48", 0 ],
					"destination" : [ "obj-77", 0 ],
					"hidden" : 0,
					"midpoints" : [  ]
				}

			}
, 			{
				"patchline" : 				{
					"source" : [ "obj-39", 0 ],
					"destination" : [ "obj-48", 0 ],
					"hidden" : 0,
					"midpoints" : [  ]
				}

			}
, 			{
				"patchline" : 				{
					"source" : [ "obj-83", 0 ],
					"destination" : [ "obj-48", 0 ],
					"hidden" : 0,
					"midpoints" : [  ]
				}

			}
, 			{
				"patchline" : 				{
					"source" : [ "obj-79", 0 ],
					"destination" : [ "obj-83", 0 ],
					"hidden" : 0,
					"midpoints" : [  ]
				}

			}
, 			{
				"patchline" : 				{
					"source" : [ "obj-39", 1 ],
					"destination" : [ "obj-79", 0 ],
					"hidden" : 0,
					"midpoints" : [  ]
				}

			}
, 			{
				"patchline" : 				{
					"source" : [ "obj-22", 0 ],
					"destination" : [ "obj-35", 0 ],
					"hidden" : 0,
					"midpoints" : [  ]
				}

			}
, 			{
				"patchline" : 				{
					"source" : [ "obj-35", 0 ],
					"destination" : [ "obj-55", 0 ],
					"hidden" : 0,
					"midpoints" : [  ]
				}

			}
, 			{
				"patchline" : 				{
					"source" : [ "obj-55", 0 ],
					"destination" : [ "obj-38", 0 ],
					"hidden" : 0,
					"midpoints" : [  ]
				}

			}
, 			{
				"patchline" : 				{
					"source" : [ "obj-58", 0 ],
					"destination" : [ "obj-21", 0 ],
					"hidden" : 0,
					"midpoints" : [  ]
				}

			}
, 			{
				"patchline" : 				{
					"source" : [ "obj-48", 0 ],
					"destination" : [ "obj-68", 0 ],
					"hidden" : 0,
					"midpoints" : [  ]
				}

			}
, 			{
				"patchline" : 				{
					"source" : [ "obj-6", 0 ],
					"destination" : [ "obj-38", 0 ],
					"hidden" : 0,
					"midpoints" : [  ]
				}

			}
, 			{
				"patchline" : 				{
					"source" : [ "obj-46", 0 ],
					"destination" : [ "obj-20", 0 ],
					"hidden" : 0,
					"midpoints" : [  ]
				}

			}
, 			{
				"patchline" : 				{
					"source" : [ "obj-20", 1 ],
					"destination" : [ "obj-52", 0 ],
					"hidden" : 0,
					"midpoints" : [  ]
				}

			}
, 			{
				"patchline" : 				{
					"source" : [ "obj-70", 0 ],
					"destination" : [ "obj-31", 0 ],
					"hidden" : 0,
					"midpoints" : [  ]
				}

			}
, 			{
				"patchline" : 				{
					"source" : [ "obj-31", 0 ],
					"destination" : [ "obj-78", 0 ],
					"hidden" : 0,
					"midpoints" : [  ]
				}

			}
, 			{
				"patchline" : 				{
					"source" : [ "obj-82", 0 ],
					"destination" : [ "obj-20", 0 ],
					"hidden" : 0,
					"midpoints" : [  ]
				}

			}
, 			{
				"patchline" : 				{
					"source" : [ "obj-97", 0 ],
					"destination" : [ "obj-70", 0 ],
					"hidden" : 0,
					"midpoints" : [  ]
				}

			}
, 			{
				"patchline" : 				{
					"source" : [ "obj-52", 0 ],
					"destination" : [ "obj-97", 0 ],
					"hidden" : 0,
					"midpoints" : [  ]
				}

			}
, 			{
				"patchline" : 				{
					"source" : [ "obj-97", 1 ],
					"destination" : [ "obj-80", 1 ],
					"hidden" : 0,
					"midpoints" : [  ]
				}

			}
, 			{
				"patchline" : 				{
					"source" : [ "obj-78", 0 ],
					"destination" : [ "obj-80", 0 ],
					"hidden" : 0,
					"midpoints" : [  ]
				}

			}
, 			{
				"patchline" : 				{
					"source" : [ "obj-109", 0 ],
					"destination" : [ "obj-39", 0 ],
					"hidden" : 0,
					"midpoints" : [  ]
				}

			}
, 			{
				"patchline" : 				{
					"source" : [ "obj-122", 0 ],
					"destination" : [ "obj-20", 0 ],
					"hidden" : 0,
					"midpoints" : [ 488.5, 1904.0, 441.0, 1904.0, 441.0, 1688.0, 463.5, 1688.0 ]
				}

			}
, 			{
				"patchline" : 				{
					"source" : [ "obj-80", 0 ],
					"destination" : [ "obj-122", 0 ],
					"hidden" : 0,
					"midpoints" : [  ]
				}

			}
, 			{
				"patchline" : 				{
					"source" : [ "obj-73", 0 ],
					"destination" : [ "obj-21", 0 ],
					"hidden" : 0,
					"midpoints" : [  ]
				}

			}
, 			{
				"patchline" : 				{
					"source" : [ "obj-68", 0 ],
					"destination" : [ "obj-73", 0 ],
					"hidden" : 0,
					"midpoints" : [  ]
				}

			}
, 			{
				"patchline" : 				{
					"source" : [ "obj-1", 2 ],
					"destination" : [ "obj-10", 0 ],
					"hidden" : 0,
					"midpoints" : [  ]
				}

			}
, 			{
				"patchline" : 				{
					"source" : [ "obj-1", 1 ],
					"destination" : [ "obj-8", 0 ],
					"hidden" : 0,
					"midpoints" : [  ]
				}

			}
, 			{
				"patchline" : 				{
					"source" : [ "obj-30", 0 ],
					"destination" : [ "obj-1", 6 ],
					"hidden" : 0,
					"midpoints" : [  ]
				}

			}
, 			{
				"patchline" : 				{
					"source" : [ "obj-29", 0 ],
					"destination" : [ "obj-1", 5 ],
					"hidden" : 0,
					"midpoints" : [  ]
				}

			}
, 			{
				"patchline" : 				{
					"source" : [ "obj-66", 0 ],
					"destination" : [ "obj-1", 4 ],
					"hidden" : 0,
					"midpoints" : [  ]
				}

			}
, 			{
				"patchline" : 				{
					"source" : [ "obj-112", 0 ],
					"destination" : [ "obj-113", 0 ],
					"hidden" : 0,
					"midpoints" : [  ]
				}

			}
, 			{
				"patchline" : 				{
					"source" : [ "obj-116", 0 ],
					"destination" : [ "obj-113", 1 ],
					"hidden" : 0,
					"midpoints" : [  ]
				}

			}
, 			{
				"patchline" : 				{
					"source" : [ "obj-111", 0 ],
					"destination" : [ "obj-112", 0 ],
					"hidden" : 0,
					"midpoints" : [  ]
				}

			}
, 			{
				"patchline" : 				{
					"source" : [ "obj-113", 0 ],
					"destination" : [ "obj-117", 0 ],
					"hidden" : 0,
					"midpoints" : [  ]
				}

			}
, 			{
				"patchline" : 				{
					"source" : [ "obj-113", 0 ],
					"destination" : [ "obj-33", 0 ],
					"hidden" : 0,
					"midpoints" : [  ]
				}

			}
, 			{
				"patchline" : 				{
					"source" : [ "obj-81", 0 ],
					"destination" : [ "obj-27", 0 ],
					"hidden" : 0,
					"midpoints" : [  ]
				}

			}
, 			{
				"patchline" : 				{
					"source" : [ "obj-16", 0 ],
					"destination" : [ "obj-81", 0 ],
					"hidden" : 0,
					"midpoints" : [  ]
				}

			}
, 			{
				"patchline" : 				{
					"source" : [ "obj-9", 0 ],
					"destination" : [ "obj-74", 0 ],
					"hidden" : 0,
					"midpoints" : [  ]
				}

			}
, 			{
				"patchline" : 				{
					"source" : [ "obj-16", 0 ],
					"destination" : [ "obj-2", 0 ],
					"hidden" : 0,
					"midpoints" : [  ]
				}

			}
, 			{
				"patchline" : 				{
					"source" : [ "obj-2", 0 ],
					"destination" : [ "obj-9", 0 ],
					"hidden" : 0,
					"midpoints" : [  ]
				}

			}
, 			{
				"patchline" : 				{
					"source" : [ "obj-27", 0 ],
					"destination" : [ "obj-124", 0 ],
					"hidden" : 0,
					"midpoints" : [  ]
				}

			}
, 			{
				"patchline" : 				{
					"source" : [ "obj-27", 0 ],
					"destination" : [ "obj-28", 0 ],
					"hidden" : 0,
					"midpoints" : [  ]
				}

			}
, 			{
				"patchline" : 				{
					"source" : [ "obj-36", 0 ],
					"destination" : [ "obj-160", 0 ],
					"hidden" : 0,
					"midpoints" : [  ]
				}

			}
, 			{
				"patchline" : 				{
					"source" : [ "obj-142", 0 ],
					"destination" : [ "obj-139", 0 ],
					"hidden" : 0,
					"midpoints" : [ 53.161999, 641.724976, 52.161999, 641.724976 ]
				}

			}
, 			{
				"patchline" : 				{
					"source" : [ "obj-142", 1 ],
					"destination" : [ "obj-139", 1 ],
					"hidden" : 0,
					"midpoints" : [ 156.162003, 641.724976, 90.162003, 641.724976 ]
				}

			}
, 			{
				"patchline" : 				{
					"source" : [ "obj-138", 0 ],
					"destination" : [ "obj-139", 0 ],
					"hidden" : 0,
					"midpoints" : [ 308.161987, 654.724976, 52.161999, 654.724976 ]
				}

			}
, 			{
				"patchline" : 				{
					"source" : [ "obj-138", 1 ],
					"destination" : [ "obj-139", 1 ],
					"hidden" : 0,
					"midpoints" : [ 411.161987, 663.724976, 90.162003, 663.724976 ]
				}

			}
 ]
	}

}
