{
	"patcher" : 	{
		"fileversion" : 1,
		"appversion" : 		{
			"major" : 7,
			"minor" : 0,
			"revision" : 1,
			"architecture" : "x86",
			"modernui" : 1
		}
,
		"rect" : [ 564.0, 79.0, 1613.0, 1112.0 ],
		"bglocked" : 0,
		"openinpresentation" : 0,
		"default_fontsize" : 12.0,
		"default_fontface" : 0,
		"default_fontname" : "Arial",
		"gridonopen" : 1,
		"gridsize" : [ 15.0, 15.0 ],
		"gridsnaponopen" : 1,
		"objectsnaponopen" : 1,
		"statusbarvisible" : 2,
		"toolbarvisible" : 1,
		"lefttoolbarpinned" : 0,
		"toptoolbarpinned" : 0,
		"righttoolbarpinned" : 0,
		"bottomtoolbarpinned" : 0,
		"toolbars_unpinned_last_save" : 0,
		"tallnewobj" : 0,
		"boxanimatetime" : 200,
		"enablehscroll" : 1,
		"enablevscroll" : 1,
		"devicewidth" : 0.0,
		"description" : "",
		"digest" : "",
		"tags" : "",
		"style" : "",
		"subpatcher_template" : "",
		"boxes" : [ 			{
				"box" : 				{
					"id" : "obj-80",
					"maxclass" : "live.gain~",
					"numinlets" : 2,
					"numoutlets" : 5,
					"orientation" : 1,
					"outlettype" : [ "signal", "signal", "", "float", "list" ],
					"parameter_enable" : 1,
					"patching_rect" : [ 836.0, 916.0, 168.0, 48.0 ],
					"presentation_rect" : [ 895.0, 924.0, 50.0, 48.0 ],
					"saved_attribute_attributes" : 					{
						"valueof" : 						{
							"parameter_longname" : "live.gain~[2]",
							"parameter_shortname" : "live.gain~",
							"parameter_type" : 0,
							"parameter_mmin" : -70.0,
							"parameter_mmax" : 6.0,
							"parameter_initial" : [ 0.0 ],
							"parameter_unitstyle" : 4
						}

					}
,
					"varname" : "live.gain~[2]"
				}

			}
, 			{
				"box" : 				{
					"id" : "obj-81",
					"maxclass" : "ezdac~",
					"numinlets" : 2,
					"numoutlets" : 0,
					"patching_rect" : [ 844.0, 976.875, 48.25, 48.25 ],
					"presentation_rect" : [ 903.0, 984.875, 0.0, 0.0 ],
					"style" : ""
				}

			}
, 			{
				"box" : 				{
					"bgmode" : 0,
					"border" : 0,
					"clickthrough" : 0,
					"enablehscroll" : 0,
					"enablevscroll" : 0,
					"id" : "obj-79",
					"lockeddragscroll" : 0,
					"maxclass" : "bpatcher",
					"name" : "MidiOutput.maxpat",
					"numinlets" : 2,
					"numoutlets" : 3,
					"offset" : [ 0.0, 0.0 ],
					"outlettype" : [ "", "signal", "signal" ],
					"patching_rect" : [ 687.5, 788.0, 316.0, 118.0 ],
					"presentation_rect" : [ 686.0, 813.0, 0.0, 0.0 ],
					"viewvisibility" : 1
				}

			}
, 			{
				"box" : 				{
					"id" : "obj-78",
					"maxclass" : "ezdac~",
					"numinlets" : 2,
					"numoutlets" : 0,
					"patching_rect" : [ 811.0, 587.0, 45.0, 45.0 ],
					"style" : ""
				}

			}
, 			{
				"box" : 				{
					"id" : "obj-76",
					"maxclass" : "newobj",
					"numinlets" : 1,
					"numoutlets" : 0,
					"patching_rect" : [ 393.0, 900.0, 73.0, 22.0 ],
					"style" : "",
					"text" : "s to-player2"
				}

			}
, 			{
				"box" : 				{
					"bgmode" : 0,
					"border" : 0,
					"clickthrough" : 0,
					"enablehscroll" : 0,
					"enablevscroll" : 0,
					"id" : "obj-75",
					"lockeddragscroll" : 0,
					"maxclass" : "bpatcher",
					"name" : "SM.Influence.maxpat",
					"numinlets" : 1,
					"numoutlets" : 1,
					"offset" : [ 0.0, 0.0 ],
					"outlettype" : [ "" ],
					"patching_rect" : [ 393.0, 788.0, 193.0, 104.0 ],
					"presentation_rect" : [ 428.0, 721.0, 0.0, 0.0 ],
					"viewvisibility" : 1
				}

			}
, 			{
				"box" : 				{
					"id" : "obj-74",
					"maxclass" : "newobj",
					"numinlets" : 1,
					"numoutlets" : 0,
					"patching_rect" : [ 1019.5, 900.0, 73.0, 22.0 ],
					"style" : "",
					"text" : "s to-player1"
				}

			}
, 			{
				"box" : 				{
					"bgmode" : 0,
					"border" : 0,
					"clickthrough" : 0,
					"enablehscroll" : 0,
					"enablevscroll" : 0,
					"id" : "obj-73",
					"lockeddragscroll" : 0,
					"maxclass" : "bpatcher",
					"name" : "SM.Influence.maxpat",
					"numinlets" : 1,
					"numoutlets" : 1,
					"offset" : [ 0.0, 0.0 ],
					"outlettype" : [ "" ],
					"patching_rect" : [ 1019.5, 788.0, 193.0, 104.0 ],
					"presentation_rect" : [ 788.333374, 571.5, 0.0, 0.0 ],
					"viewvisibility" : 1
				}

			}
, 			{
				"box" : 				{
					"id" : "obj-72",
					"maxclass" : "newobj",
					"numinlets" : 0,
					"numoutlets" : 1,
					"outlettype" : [ "" ],
					"patching_rect" : [ 687.5, 641.5, 65.0, 22.0 ],
					"presentation_rect" : [ 815.0, 651.5, 0.0, 0.0 ],
					"style" : "",
					"text" : "r to-player"
				}

			}
, 			{
				"box" : 				{
					"id" : "obj-71",
					"maxclass" : "newobj",
					"numinlets" : 0,
					"numoutlets" : 1,
					"outlettype" : [ "" ],
					"patching_rect" : [ -6.0, 637.5, 65.0, 22.0 ],
					"style" : "",
					"text" : "r to-player"
				}

			}
, 			{
				"box" : 				{
					"id" : "obj-64",
					"maxclass" : "newobj",
					"numinlets" : 1,
					"numoutlets" : 0,
					"patching_rect" : [ 1210.0, 502.0, 73.0, 22.0 ],
					"style" : "",
					"text" : "s to-player2"
				}

			}
, 			{
				"box" : 				{
					"id" : "obj-65",
					"maxclass" : "newobj",
					"numinlets" : 2,
					"numoutlets" : 1,
					"outlettype" : [ "" ],
					"patching_rect" : [ 1210.0, 439.0, 77.0, 22.0 ],
					"presentation_rect" : [ 1226.0, 441.0, 0.0, 0.0 ],
					"style" : "",
					"text" : "pack s None"
				}

			}
, 			{
				"box" : 				{
					"fontname" : "Arial",
					"fontsize" : 12.0,
					"id" : "obj-66",
					"maxclass" : "newobj",
					"numinlets" : 1,
					"numoutlets" : 2,
					"outlettype" : [ "", "int" ],
					"patching_rect" : [ 1210.0, 392.5, 130.0, 22.0 ],
					"presentation_rect" : [ 1226.0, 394.5, 0.0, 0.0 ],
					"style" : "",
					"text" : "conformpath max boot"
				}

			}
, 			{
				"box" : 				{
					"id" : "obj-67",
					"maxclass" : "button",
					"numinlets" : 1,
					"numoutlets" : 1,
					"outlettype" : [ "bang" ],
					"patching_rect" : [ 1210.0, 327.0, 24.0, 24.0 ],
					"presentation_rect" : [ 1226.0, 329.0, 0.0, 0.0 ],
					"style" : ""
				}

			}
, 			{
				"box" : 				{
					"id" : "obj-68",
					"maxclass" : "newobj",
					"numinlets" : 1,
					"numoutlets" : 2,
					"outlettype" : [ "", "bang" ],
					"patching_rect" : [ 1210.0, 364.0, 69.0, 22.0 ],
					"presentation_rect" : [ 1226.0, 366.0, 0.0, 0.0 ],
					"style" : "",
					"text" : "opendialog"
				}

			}
, 			{
				"box" : 				{
					"id" : "obj-69",
					"maxclass" : "message",
					"numinlets" : 2,
					"numoutlets" : 1,
					"outlettype" : [ "" ],
					"patching_rect" : [ 1210.0, 466.0, 90.0, 22.0 ],
					"presentation_rect" : [ 1226.0, 468.0, 0.0, 0.0 ],
					"style" : "",
					"text" : "read_file $2 $1"
				}

			}
, 			{
				"box" : 				{
					"id" : "obj-62",
					"maxclass" : "newobj",
					"numinlets" : 0,
					"numoutlets" : 1,
					"outlettype" : [ "" ],
					"patching_rect" : [ 687.5, 670.5, 71.0, 22.0 ],
					"style" : "",
					"text" : "r to-player2"
				}

			}
, 			{
				"box" : 				{
					"fontname" : "Arial",
					"fontsize" : 12.0,
					"id" : "obj-61",
					"maxclass" : "message",
					"numinlets" : 2,
					"numoutlets" : 1,
					"outlettype" : [ "" ],
					"patching_rect" : [ 1234.5, 84.0, 148.0, 22.0 ],
					"presentation" : 1,
					"presentation_rect" : [ 1232.0, 84.0, 148.0, 22.0 ],
					"style" : "",
					"text" : "/new_player player2 1233"
				}

			}
, 			{
				"box" : 				{
					"color" : [ 0.720698, 0.16723, 0.080014, 1.0 ],
					"fontface" : 0,
					"fontsize" : 20.725521,
					"id" : "obj-60",
					"maxclass" : "newobj",
					"numinlets" : 1,
					"numoutlets" : 2,
					"outlettype" : [ "", "" ],
					"patching_rect" : [ 687.5, 728.0, 284.0, 32.0 ],
					"style" : "",
					"text" : "SM.Player player2 1235 1233"
				}

			}
, 			{
				"box" : 				{
					"bgmode" : 0,
					"border" : 0,
					"clickthrough" : 0,
					"enablehscroll" : 0,
					"enablevscroll" : 0,
					"id" : "obj-48",
					"lockeddragscroll" : 0,
					"maxclass" : "bpatcher",
					"name" : "SM.Influence.maxpat",
					"numinlets" : 1,
					"numoutlets" : 1,
					"offset" : [ 0.0, 0.0 ],
					"outlettype" : [ "" ],
					"patching_rect" : [ 426.333344, 539.5, 193.0, 104.0 ],
					"viewvisibility" : 1
				}

			}
, 			{
				"box" : 				{
					"bgmode" : 0,
					"border" : 0,
					"clickthrough" : 0,
					"enablehscroll" : 0,
					"enablevscroll" : 0,
					"id" : "obj-16",
					"lockeddragscroll" : 0,
					"maxclass" : "bpatcher",
					"name" : "AudioListener.maxpat",
					"numinlets" : 2,
					"numoutlets" : 4,
					"offset" : [ 0.0, 0.0 ],
					"outlettype" : [ "", "", "", "signal" ],
					"patching_rect" : [ 538.0, 59.0, 364.0, 258.0 ],
					"varname" : "AudioListener",
					"viewvisibility" : 1
				}

			}
, 			{
				"box" : 				{
					"id" : "obj-13",
					"maxclass" : "comment",
					"numinlets" : 1,
					"numoutlets" : 0,
					"patching_rect" : [ 1051.0, 59.0, 18.0, 20.0 ],
					"presentation_rect" : [ 629.0, 35.0, 0.0, 0.0 ],
					"style" : "",
					"text" : "1"
				}

			}
, 			{
				"box" : 				{
					"bgmode" : 0,
					"border" : 0,
					"clickthrough" : 0,
					"enablehscroll" : 0,
					"enablevscroll" : 0,
					"id" : "obj-3",
					"lockeddragscroll" : 0,
					"maxclass" : "bpatcher",
					"name" : "beat_tracker.maxpat",
					"numinlets" : 2,
					"numoutlets" : 1,
					"offset" : [ 0.0, 0.0 ],
					"outlettype" : [ "" ],
					"patching_rect" : [ 156.5, 34.0, 254.0, 136.0 ],
					"viewvisibility" : 1
				}

			}
, 			{
				"box" : 				{
					"bgmode" : 0,
					"border" : 0,
					"clickthrough" : 0,
					"enablehscroll" : 0,
					"enablevscroll" : 0,
					"id" : "obj-1",
					"lockeddragscroll" : 0,
					"maxclass" : "bpatcher",
					"name" : "SM.Influence.maxpat",
					"numinlets" : 1,
					"numoutlets" : 1,
					"offset" : [ 0.0, 0.0 ],
					"outlettype" : [ "" ],
					"patching_rect" : [ 71.0, 543.0, 193.0, 104.0 ],
					"viewvisibility" : 1
				}

			}
, 			{
				"box" : 				{
					"id" : "obj-58",
					"maxclass" : "comment",
					"numinlets" : 1,
					"numoutlets" : 0,
					"patching_rect" : [ 80.0, 350.5, 150.0, 20.0 ],
					"style" : "",
					"text" : "MidiListener"
				}

			}
, 			{
				"box" : 				{
					"id" : "obj-56",
					"maxclass" : "live.gain~",
					"numinlets" : 2,
					"numoutlets" : 5,
					"orientation" : 1,
					"outlettype" : [ "signal", "signal", "", "float", "list" ],
					"parameter_enable" : 1,
					"patching_rect" : [ 811.0, 523.5, 168.0, 48.0 ],
					"presentation_rect" : [ 360.5, 923.0, 50.0, 48.0 ],
					"saved_attribute_attributes" : 					{
						"valueof" : 						{
							"parameter_longname" : "live.gain~[1]",
							"parameter_shortname" : "live.gain~",
							"parameter_type" : 0,
							"parameter_mmin" : -70.0,
							"parameter_mmax" : 6.0,
							"parameter_initial" : [ 0.0 ],
							"parameter_unitstyle" : 4
						}

					}
,
					"varname" : "live.gain~[1]"
				}

			}
, 			{
				"box" : 				{
					"id" : "obj-54",
					"maxclass" : "live.gain~",
					"numinlets" : 2,
					"numoutlets" : 5,
					"orientation" : 1,
					"outlettype" : [ "signal", "signal", "", "float", "list" ],
					"parameter_enable" : 1,
					"patching_rect" : [ 219.0, 916.0, 168.0, 48.0 ],
					"presentation_rect" : [ 0.0, 0.0, 50.0, 48.0 ],
					"saved_attribute_attributes" : 					{
						"valueof" : 						{
							"parameter_longname" : "live.gain~",
							"parameter_shortname" : "live.gain~",
							"parameter_type" : 0,
							"parameter_mmin" : -70.0,
							"parameter_mmax" : 6.0,
							"parameter_initial" : [ 0.0 ],
							"parameter_unitstyle" : 4
						}

					}
,
					"varname" : "live.gain~"
				}

			}
, 			{
				"box" : 				{
					"bgmode" : 0,
					"border" : 0,
					"clickthrough" : 0,
					"enablehscroll" : 0,
					"enablevscroll" : 0,
					"id" : "obj-42",
					"lockeddragscroll" : 0,
					"maxclass" : "bpatcher",
					"name" : "MidiOutput.maxpat",
					"numinlets" : 2,
					"numoutlets" : 3,
					"offset" : [ 0.0, 0.0 ],
					"outlettype" : [ "", "signal", "signal" ],
					"patching_rect" : [ 663.0, 392.5, 316.0, 118.0 ],
					"viewvisibility" : 1
				}

			}
, 			{
				"box" : 				{
					"id" : "obj-41",
					"maxclass" : "comment",
					"numinlets" : 1,
					"numoutlets" : 0,
					"patching_rect" : [ 569.0, 509.5, 33.0, 20.0 ],
					"style" : "",
					"text" : "Raw"
				}

			}
, 			{
				"box" : 				{
					"id" : "obj-40",
					"maxclass" : "comment",
					"numinlets" : 1,
					"numoutlets" : 0,
					"patching_rect" : [ 446.0, 509.5, 99.0, 20.0 ],
					"style" : "",
					"text" : "Chroma output"
				}

			}
, 			{
				"box" : 				{
					"id" : "obj-39",
					"maxclass" : "comment",
					"numinlets" : 1,
					"numoutlets" : 0,
					"patching_rect" : [ 279.0, 509.5, 80.0, 20.0 ],
					"style" : "",
					"text" : "Pitch output"
				}

			}
, 			{
				"box" : 				{
					"id" : "obj-36",
					"maxclass" : "comment",
					"numinlets" : 1,
					"numoutlets" : 0,
					"patching_rect" : [ 97.0, 509.5, 80.0, 20.0 ],
					"style" : "",
					"text" : "Midi output"
				}

			}
, 			{
				"box" : 				{
					"bgmode" : 0,
					"border" : 0,
					"clickthrough" : 0,
					"enablehscroll" : 0,
					"enablevscroll" : 0,
					"id" : "obj-32",
					"lockeddragscroll" : 0,
					"maxclass" : "bpatcher",
					"name" : "MidiListener.maxpat",
					"numinlets" : 1,
					"numoutlets" : 4,
					"offset" : [ 0.0, 0.0 ],
					"outlettype" : [ "", "", "", "int" ],
					"patching_rect" : [ 71.0, 372.5, 552.0, 135.0 ],
					"varname" : "MidiListener",
					"viewvisibility" : 1
				}

			}
, 			{
				"box" : 				{
					"id" : "obj-24",
					"maxclass" : "comment",
					"numinlets" : 1,
					"numoutlets" : 0,
					"patching_rect" : [ 1094.0, 551.0, 230.0, 20.0 ],
					"style" : "",
					"text" : "Select MIDI output (External MIDI / VST)"
				}

			}
, 			{
				"box" : 				{
					"id" : "obj-25",
					"maxclass" : "comment",
					"numinlets" : 1,
					"numoutlets" : 0,
					"patching_rect" : [ 1071.0, 551.0, 29.0, 20.0 ],
					"style" : "",
					"text" : "6"
				}

			}
, 			{
				"box" : 				{
					"id" : "obj-18",
					"maxclass" : "ezdac~",
					"numinlets" : 2,
					"numoutlets" : 0,
					"patching_rect" : [ 227.0, 976.875, 48.25, 48.25 ],
					"style" : ""
				}

			}
, 			{
				"box" : 				{
					"bgmode" : 0,
					"border" : 0,
					"clickthrough" : 0,
					"enablehscroll" : 0,
					"enablevscroll" : 0,
					"id" : "obj-7",
					"lockeddragscroll" : 0,
					"maxclass" : "bpatcher",
					"name" : "MidiOutput.maxpat",
					"numinlets" : 2,
					"numoutlets" : 3,
					"offset" : [ 0.0, 0.0 ],
					"outlettype" : [ "", "signal", "signal" ],
					"patching_rect" : [ 71.0, 788.0, 316.0, 118.0 ],
					"viewvisibility" : 1
				}

			}
, 			{
				"box" : 				{
					"id" : "obj-52",
					"maxclass" : "newobj",
					"numinlets" : 1,
					"numoutlets" : 0,
					"patching_rect" : [ 1071.0, 502.0, 73.0, 22.0 ],
					"style" : "",
					"text" : "s to-player1"
				}

			}
, 			{
				"box" : 				{
					"id" : "obj-47",
					"maxclass" : "newobj",
					"numinlets" : 2,
					"numoutlets" : 1,
					"outlettype" : [ "" ],
					"patching_rect" : [ 1071.0, 439.0, 77.0, 22.0 ],
					"style" : "",
					"text" : "pack s None"
				}

			}
, 			{
				"box" : 				{
					"fontname" : "Arial",
					"fontsize" : 12.0,
					"id" : "obj-55",
					"maxclass" : "newobj",
					"numinlets" : 1,
					"numoutlets" : 2,
					"outlettype" : [ "", "int" ],
					"patching_rect" : [ 1071.0, 392.5, 130.0, 22.0 ],
					"style" : "",
					"text" : "conformpath max boot"
				}

			}
, 			{
				"box" : 				{
					"id" : "obj-38",
					"maxclass" : "button",
					"numinlets" : 1,
					"numoutlets" : 1,
					"outlettype" : [ "bang" ],
					"patching_rect" : [ 1071.0, 327.0, 24.0, 24.0 ],
					"style" : ""
				}

			}
, 			{
				"box" : 				{
					"id" : "obj-35",
					"maxclass" : "newobj",
					"numinlets" : 1,
					"numoutlets" : 2,
					"outlettype" : [ "", "bang" ],
					"patching_rect" : [ 1071.0, 364.0, 69.0, 22.0 ],
					"style" : "",
					"text" : "opendialog"
				}

			}
, 			{
				"box" : 				{
					"id" : "obj-33",
					"maxclass" : "message",
					"numinlets" : 2,
					"numoutlets" : 1,
					"outlettype" : [ "" ],
					"patching_rect" : [ 1071.0, 466.0, 90.0, 22.0 ],
					"style" : "",
					"text" : "read_file $2 $1"
				}

			}
, 			{
				"box" : 				{
					"id" : "obj-30",
					"maxclass" : "comment",
					"numinlets" : 1,
					"numoutlets" : 0,
					"patching_rect" : [ 1071.0, 302.0, 88.0, 20.0 ],
					"style" : "",
					"text" : "Read files"
				}

			}
, 			{
				"box" : 				{
					"id" : "obj-31",
					"maxclass" : "comment",
					"numinlets" : 1,
					"numoutlets" : 0,
					"patching_rect" : [ 1051.0, 302.0, 18.0, 20.0 ],
					"style" : "",
					"text" : "5"
				}

			}
, 			{
				"box" : 				{
					"hidden" : 1,
					"id" : "obj-29",
					"maxclass" : "newobj",
					"numinlets" : 1,
					"numoutlets" : 0,
					"patching_rect" : [ 1241.0, 166.0, 67.0, 22.0 ],
					"style" : "",
					"text" : "s to-player"
				}

			}
, 			{
				"box" : 				{
					"id" : "obj-27",
					"maxclass" : "comment",
					"numinlets" : 1,
					"numoutlets" : 0,
					"patching_rect" : [ 1071.0, 201.0, 88.0, 20.0 ],
					"style" : "",
					"text" : "Create atoms"
				}

			}
, 			{
				"box" : 				{
					"id" : "obj-28",
					"maxclass" : "comment",
					"numinlets" : 1,
					"numoutlets" : 0,
					"patching_rect" : [ 1051.0, 201.0, 18.0, 20.0 ],
					"style" : "",
					"text" : "4"
				}

			}
, 			{
				"box" : 				{
					"id" : "obj-22",
					"maxclass" : "message",
					"numinlets" : 2,
					"numoutlets" : 1,
					"outlettype" : [ "" ],
					"patching_rect" : [ 1071.0, 247.0, 302.0, 22.0 ],
					"style" : "",
					"text" : "create_atom pitch:harmony label_type=HarmonicLabel"
				}

			}
, 			{
				"box" : 				{
					"id" : "obj-21",
					"maxclass" : "message",
					"numinlets" : 2,
					"numoutlets" : 1,
					"outlettype" : [ "" ],
					"patching_rect" : [ 1071.0, 223.0, 284.0, 22.0 ],
					"style" : "",
					"text" : "create_atom pitch:melody label_type=MelodicLabel"
				}

			}
, 			{
				"box" : 				{
					"hidden" : 1,
					"id" : "obj-20",
					"maxclass" : "newobj",
					"numinlets" : 1,
					"numoutlets" : 0,
					"patching_rect" : [ 1071.0, 278.0, 67.0, 22.0 ],
					"style" : "",
					"text" : "s to-player"
				}

			}
, 			{
				"box" : 				{
					"id" : "obj-19",
					"maxclass" : "message",
					"numinlets" : 2,
					"numoutlets" : 1,
					"outlettype" : [ "" ],
					"patching_rect" : [ 1071.0, 166.0, 140.0, 22.0 ],
					"style" : "",
					"text" : "create_streamview pitch"
				}

			}
, 			{
				"box" : 				{
					"id" : "obj-17",
					"maxclass" : "comment",
					"numinlets" : 1,
					"numoutlets" : 0,
					"patching_rect" : [ 1071.0, 144.0, 150.0, 20.0 ],
					"style" : "",
					"text" : "Create streamviews"
				}

			}
, 			{
				"box" : 				{
					"id" : "obj-15",
					"maxclass" : "comment",
					"numinlets" : 1,
					"numoutlets" : 0,
					"patching_rect" : [ 1051.0, 144.0, 18.0, 20.0 ],
					"style" : "",
					"text" : "3"
				}

			}
, 			{
				"box" : 				{
					"id" : "obj-14",
					"maxclass" : "newobj",
					"numinlets" : 0,
					"numoutlets" : 1,
					"outlettype" : [ "" ],
					"patching_rect" : [ 84.0, 678.5, 71.0, 22.0 ],
					"style" : "",
					"text" : "r to-player1"
				}

			}
, 			{
				"box" : 				{
					"color" : [ 0.720698, 0.16723, 0.080014, 1.0 ],
					"fontsize" : 20.725521,
					"id" : "obj-11",
					"maxclass" : "newobj",
					"numinlets" : 1,
					"numoutlets" : 2,
					"outlettype" : [ "", "" ],
					"patching_rect" : [ 71.0, 730.0, 283.0, 32.0 ],
					"style" : "",
					"text" : "SM.Player player1 1235 1234"
				}

			}
, 			{
				"box" : 				{
					"id" : "obj-10",
					"maxclass" : "newobj",
					"numinlets" : 1,
					"numoutlets" : 0,
					"patching_rect" : [ 1076.0, 120.0, 67.0, 22.0 ],
					"style" : "",
					"text" : "s to-server"
				}

			}
, 			{
				"box" : 				{
					"fontname" : "Arial",
					"fontsize" : 12.0,
					"id" : "obj-37",
					"maxclass" : "message",
					"numinlets" : 2,
					"numoutlets" : 1,
					"outlettype" : [ "" ],
					"patching_rect" : [ 1076.0, 84.0, 148.0, 22.0 ],
					"presentation" : 1,
					"presentation_rect" : [ 42.72229, 200.0, 148.0, 22.0 ],
					"style" : "",
					"text" : "/new_player player1 1234"
				}

			}
, 			{
				"box" : 				{
					"id" : "obj-9",
					"maxclass" : "comment",
					"numinlets" : 1,
					"numoutlets" : 0,
					"patching_rect" : [ 1051.0, 86.0, 18.0, 20.0 ],
					"style" : "",
					"text" : "2"
				}

			}
, 			{
				"box" : 				{
					"id" : "obj-5",
					"maxclass" : "newobj",
					"numinlets" : 0,
					"numoutlets" : 1,
					"outlettype" : [ "" ],
					"patching_rect" : [ 80.0, 34.0, 65.0, 22.0 ],
					"style" : "",
					"text" : "r to-server"
				}

			}
, 			{
				"box" : 				{
					"args" : [ 1235, 1236 ],
					"bgmode" : 0,
					"border" : 0,
					"clickthrough" : 0,
					"enablehscroll" : 0,
					"enablevscroll" : 0,
					"id" : "obj-26",
					"lockeddragscroll" : 0,
					"maxclass" : "bpatcher",
					"name" : "SM.Server.maxpat",
					"numinlets" : 2,
					"numoutlets" : 1,
					"offset" : [ 0.0, 0.0 ],
					"outlettype" : [ "dictionary" ],
					"patching_rect" : [ 80.0, 202.0, 407.0, 134.0 ],
					"presentation" : 1,
					"presentation_rect" : [ 39.72229, 47.5, 409.0, 140.0 ],
					"viewvisibility" : 1
				}

			}
, 			{
				"box" : 				{
					"id" : "obj-2",
					"maxclass" : "comment",
					"numinlets" : 1,
					"numoutlets" : 0,
					"patching_rect" : [ 1083.0, 59.0, 421.0, 20.0 ],
					"presentation" : 1,
					"presentation_rect" : [ 43.72229, 17.0, 421.0, 20.0 ],
					"style" : "",
					"text" : " Terminal > cd ..../SoMax2 > python SoMaxServer.py <in port> <out port>"
				}

			}
 ],
		"lines" : [ 			{
				"patchline" : 				{
					"destination" : [ "obj-11", 0 ],
					"disabled" : 0,
					"hidden" : 0,
					"source" : [ "obj-1", 0 ]
				}

			}
, 			{
				"patchline" : 				{
					"destination" : [ "obj-60", 0 ],
					"disabled" : 0,
					"hidden" : 0,
					"midpoints" : [ 80.5, 663.0, 672.0, 663.0, 672.0, 714.0, 697.0, 714.0 ],
					"source" : [ "obj-1", 0 ]
				}

			}
, 			{
				"patchline" : 				{
					"destination" : [ "obj-7", 0 ],
					"disabled" : 0,
					"hidden" : 0,
					"midpoints" : [ 80.5, 773.0, 80.5, 773.0 ],
					"source" : [ "obj-11", 0 ]
				}

			}
, 			{
				"patchline" : 				{
					"destination" : [ "obj-75", 0 ],
					"disabled" : 0,
					"hidden" : 0,
					"midpoints" : [ 80.5, 774.0, 402.5, 774.0 ],
					"source" : [ "obj-11", 0 ]
				}

			}
, 			{
				"patchline" : 				{
					"destination" : [ "obj-11", 0 ],
					"disabled" : 0,
					"hidden" : 0,
					"source" : [ "obj-14", 0 ]
				}

			}
, 			{
				"patchline" : 				{
					"destination" : [ "obj-29", 0 ],
					"disabled" : 0,
					"hidden" : 1,
					"source" : [ "obj-19", 0 ]
				}

			}
, 			{
				"patchline" : 				{
					"destination" : [ "obj-20", 0 ],
					"disabled" : 0,
					"hidden" : 1,
					"source" : [ "obj-21", 0 ]
				}

			}
, 			{
				"patchline" : 				{
					"destination" : [ "obj-20", 0 ],
					"disabled" : 0,
					"hidden" : 1,
					"source" : [ "obj-22", 0 ]
				}

			}
, 			{
				"patchline" : 				{
					"destination" : [ "obj-26", 0 ],
					"disabled" : 0,
					"hidden" : 0,
					"midpoints" : [ 166.0, 184.0, 89.5, 184.0 ],
					"source" : [ "obj-3", 0 ]
				}

			}
, 			{
				"patchline" : 				{
					"destination" : [ "obj-1", 0 ],
					"disabled" : 0,
					"hidden" : 0,
					"source" : [ "obj-32", 0 ]
				}

			}
, 			{
				"patchline" : 				{
					"destination" : [ "obj-42", 1 ],
					"disabled" : 0,
					"hidden" : 0,
					"midpoints" : [ 613.5, 528.0, 635.0, 528.0, 635.0, 367.0, 969.5, 367.0 ],
					"source" : [ "obj-32", 3 ]
				}

			}
, 			{
				"patchline" : 				{
					"destination" : [ "obj-48", 0 ],
					"disabled" : 0,
					"hidden" : 0,
					"source" : [ "obj-32", 2 ]
				}

			}
, 			{
				"patchline" : 				{
					"destination" : [ "obj-52", 0 ],
					"disabled" : 0,
					"hidden" : 0,
					"source" : [ "obj-33", 0 ]
				}

			}
, 			{
				"patchline" : 				{
					"destination" : [ "obj-55", 0 ],
					"disabled" : 0,
					"hidden" : 0,
					"source" : [ "obj-35", 0 ]
				}

			}
, 			{
				"patchline" : 				{
					"destination" : [ "obj-10", 0 ],
					"disabled" : 0,
					"hidden" : 0,
					"source" : [ "obj-37", 0 ]
				}

			}
, 			{
				"patchline" : 				{
					"destination" : [ "obj-35", 0 ],
					"disabled" : 0,
					"hidden" : 0,
					"source" : [ "obj-38", 0 ]
				}

			}
, 			{
				"patchline" : 				{
					"destination" : [ "obj-56", 1 ],
					"disabled" : 0,
					"hidden" : 0,
					"source" : [ "obj-42", 2 ]
				}

			}
, 			{
				"patchline" : 				{
					"destination" : [ "obj-56", 0 ],
					"disabled" : 0,
					"hidden" : 0,
					"source" : [ "obj-42", 1 ]
				}

			}
, 			{
				"patchline" : 				{
					"destination" : [ "obj-33", 0 ],
					"disabled" : 0,
					"hidden" : 0,
					"source" : [ "obj-47", 0 ]
				}

			}
, 			{
				"patchline" : 				{
					"destination" : [ "obj-11", 0 ],
					"disabled" : 0,
					"hidden" : 0,
					"midpoints" : [ 435.833344, 717.0, 80.5, 717.0 ],
					"source" : [ "obj-48", 0 ]
				}

			}
, 			{
				"patchline" : 				{
					"destination" : [ "obj-60", 0 ],
					"disabled" : 0,
					"hidden" : 0,
					"source" : [ "obj-48", 0 ]
				}

			}
, 			{
				"patchline" : 				{
					"destination" : [ "obj-26", 0 ],
					"disabled" : 0,
					"hidden" : 0,
					"source" : [ "obj-5", 0 ]
				}

			}
, 			{
				"patchline" : 				{
					"destination" : [ "obj-18", 1 ],
					"disabled" : 0,
					"hidden" : 0,
					"source" : [ "obj-54", 1 ]
				}

			}
, 			{
				"patchline" : 				{
					"destination" : [ "obj-18", 0 ],
					"disabled" : 0,
					"hidden" : 0,
					"midpoints" : [ 228.5, 961.0, 236.5, 961.0 ],
					"source" : [ "obj-54", 0 ]
				}

			}
, 			{
				"patchline" : 				{
					"destination" : [ "obj-47", 0 ],
					"disabled" : 0,
					"hidden" : 0,
					"source" : [ "obj-55", 0 ]
				}

			}
, 			{
				"patchline" : 				{
					"destination" : [ "obj-78", 1 ],
					"disabled" : 0,
					"hidden" : 0,
					"source" : [ "obj-56", 1 ]
				}

			}
, 			{
				"patchline" : 				{
					"destination" : [ "obj-78", 0 ],
					"disabled" : 0,
					"hidden" : 0,
					"source" : [ "obj-56", 0 ]
				}

			}
, 			{
				"patchline" : 				{
					"destination" : [ "obj-73", 0 ],
					"disabled" : 0,
					"hidden" : 0,
					"midpoints" : [ 697.0, 774.0, 1029.0, 774.0 ],
					"source" : [ "obj-60", 0 ]
				}

			}
, 			{
				"patchline" : 				{
					"destination" : [ "obj-79", 0 ],
					"disabled" : 0,
					"hidden" : 0,
					"midpoints" : [ 697.0, 762.0, 697.0, 762.0 ],
					"source" : [ "obj-60", 0 ]
				}

			}
, 			{
				"patchline" : 				{
					"destination" : [ "obj-10", 0 ],
					"disabled" : 0,
					"hidden" : 0,
					"midpoints" : [ 1244.0, 113.0, 1085.5, 113.0 ],
					"source" : [ "obj-61", 0 ]
				}

			}
, 			{
				"patchline" : 				{
					"destination" : [ "obj-60", 0 ],
					"disabled" : 0,
					"hidden" : 0,
					"source" : [ "obj-62", 0 ]
				}

			}
, 			{
				"patchline" : 				{
					"destination" : [ "obj-69", 0 ],
					"disabled" : 0,
					"hidden" : 0,
					"source" : [ "obj-65", 0 ]
				}

			}
, 			{
				"patchline" : 				{
					"destination" : [ "obj-65", 0 ],
					"disabled" : 0,
					"hidden" : 0,
					"source" : [ "obj-66", 0 ]
				}

			}
, 			{
				"patchline" : 				{
					"destination" : [ "obj-68", 0 ],
					"disabled" : 0,
					"hidden" : 0,
					"source" : [ "obj-67", 0 ]
				}

			}
, 			{
				"patchline" : 				{
					"destination" : [ "obj-66", 0 ],
					"disabled" : 0,
					"hidden" : 0,
					"source" : [ "obj-68", 0 ]
				}

			}
, 			{
				"patchline" : 				{
					"destination" : [ "obj-64", 0 ],
					"disabled" : 0,
					"hidden" : 0,
					"source" : [ "obj-69", 0 ]
				}

			}
, 			{
				"patchline" : 				{
					"destination" : [ "obj-54", 1 ],
					"disabled" : 0,
					"hidden" : 0,
					"source" : [ "obj-7", 2 ]
				}

			}
, 			{
				"patchline" : 				{
					"destination" : [ "obj-54", 0 ],
					"disabled" : 0,
					"hidden" : 0,
					"source" : [ "obj-7", 1 ]
				}

			}
, 			{
				"patchline" : 				{
					"destination" : [ "obj-11", 0 ],
					"disabled" : 0,
					"hidden" : 0,
					"source" : [ "obj-71", 0 ]
				}

			}
, 			{
				"patchline" : 				{
					"destination" : [ "obj-60", 0 ],
					"disabled" : 0,
					"hidden" : 0,
					"source" : [ "obj-72", 0 ]
				}

			}
, 			{
				"patchline" : 				{
					"destination" : [ "obj-74", 0 ],
					"disabled" : 0,
					"hidden" : 0,
					"source" : [ "obj-73", 0 ]
				}

			}
, 			{
				"patchline" : 				{
					"destination" : [ "obj-76", 0 ],
					"disabled" : 0,
					"hidden" : 0,
					"source" : [ "obj-75", 0 ]
				}

			}
, 			{
				"patchline" : 				{
					"destination" : [ "obj-80", 1 ],
					"disabled" : 0,
					"hidden" : 0,
					"source" : [ "obj-79", 2 ]
				}

			}
, 			{
				"patchline" : 				{
					"destination" : [ "obj-80", 0 ],
					"disabled" : 0,
					"hidden" : 0,
					"source" : [ "obj-79", 1 ]
				}

			}
, 			{
				"patchline" : 				{
					"destination" : [ "obj-81", 1 ],
					"disabled" : 0,
					"hidden" : 0,
					"source" : [ "obj-80", 1 ]
				}

			}
, 			{
				"patchline" : 				{
					"destination" : [ "obj-81", 0 ],
					"disabled" : 0,
					"hidden" : 0,
					"midpoints" : [ 845.5, 961.0, 853.5, 961.0 ],
					"source" : [ "obj-80", 0 ]
				}

			}
 ],
		"parameters" : 		{
			"obj-54" : [ "live.gain~", "live.gain~", 0 ],
			"obj-80" : [ "live.gain~[2]", "live.gain~", 0 ],
			"obj-56" : [ "live.gain~[1]", "live.gain~", 0 ]
		}
,
		"dependency_cache" : [ 			{
				"name" : "SM.Server.maxpat",
				"bootpath" : "~/Google Drive/SoMax2/Abstractions/Entities",
				"patcherrelativepath" : "./Abstractions/Entities",
				"type" : "JSON",
				"implicit" : 1
			}
, 			{
				"name" : "SM.Player.maxpat",
				"bootpath" : "~/Google Drive/SoMax2/Abstractions/Entities",
				"patcherrelativepath" : "./Abstractions/Entities",
				"type" : "JSON",
				"implicit" : 1
			}
, 			{
				"name" : "ActivityViewer.maxpat",
				"bootpath" : "~/Google Drive/SoMax2/Abstractions/Subpatchers",
				"patcherrelativepath" : "./Abstractions/Subpatchers",
				"type" : "JSON",
				"implicit" : 1
			}
, 			{
				"name" : "activity_viewer.js",
				"bootpath" : "~/Google Drive/SoMax2",
				"patcherrelativepath" : ".",
				"type" : "TEXT",
				"implicit" : 1
			}
, 			{
				"name" : "pp.js",
				"bootpath" : "~/Google Drive/SoMax2/Abstractions/Subpatchers",
				"patcherrelativepath" : "./Abstractions/Subpatchers",
				"type" : "TEXT",
				"implicit" : 1
			}
, 			{
				"name" : "DictViewer.maxpat",
				"bootpath" : "~/Google Drive/SoMax2/Abstractions/Subpatchers",
				"patcherrelativepath" : "./Abstractions/Subpatchers",
				"type" : "JSON",
				"implicit" : 1
			}
, 			{
				"name" : "PlayerParameters.maxpat",
				"bootpath" : "~/Google Drive/SoMax2/Abstractions/Subpatchers",
				"patcherrelativepath" : "./Abstractions/Subpatchers",
				"type" : "JSON",
				"implicit" : 1
			}
, 			{
				"name" : "tools.js",
				"bootpath" : "~/Google Drive/SoMax2/Abstractions",
				"patcherrelativepath" : "./Abstractions",
				"type" : "TEXT",
				"implicit" : 1
			}
, 			{
				"name" : "MidiOutput.maxpat",
				"bootpath" : "~/Google Drive/SoMax2/Abstractions",
				"patcherrelativepath" : "./Abstractions",
				"type" : "JSON",
				"implicit" : 1
			}
, 			{
				"name" : "channel_plug.maxpat",
				"bootpath" : "/Applications/Max.app/Contents/Resources/C74/help/msp",
				"patcherrelativepath" : "../../../../Applications/Max.app/Contents/Resources/C74/help/msp",
				"type" : "JSON",
				"implicit" : 1
			}
, 			{
				"name" : "get_plugs.js",
				"bootpath" : "/Applications/Max.app/Contents/Resources/C74/help/msp",
				"patcherrelativepath" : "../../../../Applications/Max.app/Contents/Resources/C74/help/msp",
				"type" : "TEXT",
				"implicit" : 1
			}
, 			{
				"name" : "MidiListener.maxpat",
				"bootpath" : "~/Google Drive/SoMax2/Abstractions",
				"patcherrelativepath" : "./Abstractions",
				"type" : "JSON",
				"implicit" : 1
			}
, 			{
				"name" : "midi2chroma.maxpat",
				"bootpath" : "~/Google Drive/SoMax2/Abstractions",
				"patcherrelativepath" : "./Abstractions",
				"type" : "JSON",
				"implicit" : 1
			}
, 			{
				"name" : "computeMemoryPitchClass.js",
				"bootpath" : "~/Google Drive/SoMax2",
				"patcherrelativepath" : ".",
				"type" : "TEXT",
				"implicit" : 1
			}
, 			{
				"name" : "note-names.txt",
				"bootpath" : "~/Google Drive/SoMax2/Abstractions",
				"patcherrelativepath" : "./Abstractions",
				"type" : "TEXT",
				"implicit" : 1
			}
, 			{
				"name" : "thru.maxpat",
				"bootpath" : "/Applications/Max.app/Contents/Resources/C74/patchers/m4l/Pluggo for Live resources/patches",
				"patcherrelativepath" : "../../../../Applications/Max.app/Contents/Resources/C74/patchers/m4l/Pluggo for Live resources/patches",
				"type" : "JSON",
				"implicit" : 1
			}
, 			{
				"name" : "SM.Influence.maxpat",
				"bootpath" : "~/Google Drive/SoMax2/Abstractions/Entities",
				"patcherrelativepath" : "./Abstractions/Entities",
				"type" : "JSON",
				"implicit" : 1
			}
, 			{
				"name" : "beat_tracker.maxpat",
				"bootpath" : "~/Google Drive/SoMax/SoMax 1.45/For Max7/tools",
				"patcherrelativepath" : "../SoMax/SoMax 1.45/For Max7/tools",
				"type" : "JSON",
				"implicit" : 1
			}
, 			{
				"name" : "AudioListener.maxpat",
				"bootpath" : "~/Google Drive/SoMax2/Abstractions",
				"patcherrelativepath" : "./Abstractions",
				"type" : "JSON",
				"implicit" : 1
			}
, 			{
				"name" : "OMax.yin+.maxpat",
				"bootpath" : "~/Google Drive/SoMax2/Abstractions",
				"patcherrelativepath" : "./Abstractions",
				"type" : "JSON",
				"implicit" : 1
			}
, 			{
				"name" : "Yin+.maxpat",
				"bootpath" : "~/Google Drive/SoMax/SoMax 1.45/For Max7/tools",
				"patcherrelativepath" : "../SoMax/SoMax 1.45/For Max7/tools",
				"type" : "JSON",
				"implicit" : 1
			}
, 			{
				"name" : "sr.maxpat",
				"bootpath" : "~/Google Drive/SoMax/SoMax 1.45/For Max7/tools",
				"patcherrelativepath" : "../SoMax/SoMax 1.45/For Max7/tools",
				"type" : "JSON",
				"implicit" : 1
			}
, 			{
				"name" : "bc.autoname.js",
				"bootpath" : "~/Google Drive/SoMax/SoMax 1.45/For Max7/javascript",
				"patcherrelativepath" : "../SoMax/SoMax 1.45/For Max7/javascript",
				"type" : "TEXT",
				"implicit" : 1
			}
, 			{
				"name" : "audio2chroma.maxpat",
				"bootpath" : "~/Google Drive/SoMax2/Abstractions",
				"patcherrelativepath" : "./Abstractions",
				"type" : "JSON",
				"implicit" : 1
			}
, 			{
				"name" : "bc.virfun.mxo",
				"type" : "iLaX"
			}
, 			{
				"name" : "yin~.mxo",
				"type" : "iLaX"
			}
, 			{
				"name" : "bc.yinstats.mxo",
				"type" : "iLaX"
			}
, 			{
				"name" : "ircamdescriptor~.mxo",
				"type" : "iLaX"
			}
, 			{
				"name" : "bonk~.mxo",
				"type" : "iLaX"
			}
 ],
		"embedsnapshot" : 0
	}

}
